<?xml version="1.0" encoding="utf-8"?>
<!-- Generator: Adobe Illustrator 26.0.2, SVG Export Plug-In . SVG Version: 6.00 Build 0)  -->
<svg version="1.1" id="Layer_1" xmlns="http://www.w3.org/2000/svg" xmlns:xlink="http://www.w3.org/1999/xlink" x="0px" y="0px"
	 viewBox="0 0 96 96" style="enable-background:new 0 0 96 96;" xml:space="preserve">
<style type="text/css">
	.st0{fill:url(#SVGID_1_);}
</style>
<g>
	<linearGradient id="SVGID_1_" gradientUnits="userSpaceOnUse" x1="65.3975" y1="83.4789" x2="41.3612" y2="19.382">
		<stop  offset="0" style="stop-color:#E7D0AA"/>
		<stop  offset="0.1768" style="stop-color:#E3CCA6"/>
		<stop  offset="0.364" style="stop-color:#D8BF9B"/>
		<stop  offset="0.556" style="stop-color:#C6AA87"/>
		<stop  offset="0.7513" style="stop-color:#AC8C6D"/>
		<stop  offset="0.9474" style="stop-color:#8B664A"/>
		<stop  offset="1" style="stop-color:#815B40"/>
	</linearGradient>
	<path class="st0" d="M83.6,40.2l-7.3-27.3c-0.3-1.1-1.1-1.9-2.1-2.3L49.7,1.1c-1.1-0.4-2.3-0.4-3.4,0l-24.5,9.4
		c-1,0.4-1.8,1.3-2.1,2.3l-7.3,27.3c-0.2,0.9-0.1,1.9,0.4,2.7l33.8,51.6c0.6,1,2.1,1,2.7,0l33.8-51.6C83.7,42.1,83.8,41.1,83.6,40.2
		z M81.5,39.8C81.5,39.9,81.5,39.9,81.5,39.8L63.7,52.7L63,50.4l11.8-35.5L81.5,39.8z M27.3,61.4L15.1,42.7L37,31.8l21.3,24.7
		L49,63.3L27.3,61.4z M47.1,64.6l-12,8.6L28.4,63L47.1,64.6z M61.4,50.4l-1.7,5.2l-0.2,0.1L38.4,31.1l15.2-7.5L61.4,50.4z
		 M54.9,22.9l18.7-9.3L62.3,47.9L54.9,22.9z M58.9,58l-2,5.9l-5.6-0.5L58.9,58z M60.2,58.8l5,5.8l-6.8-0.6L60.2,58.8z M65.5,66.2
		l-15.7,24L58,65.6L65.5,66.2z M60.8,57.1l0.2-0.6l1.8-1.3l1.9,6.6L60.8,57.1z M61.8,54.1l0.4-1.1l0.2,0.7L61.8,54.1z M49.7,3.2
		l22.9,8.8c0.1,0.1,0.3,0.1,0.4,0.2l-18.5,9.2L49.1,3.1C49.3,3.1,49.5,3.2,49.7,3.2z M46.3,3.2C46.7,3.1,47.1,3,47.5,3l5.6,19.2
		l-15.8,7.8L22.5,12.6c0.3-0.2,0.6-0.4,1-0.6L46.3,3.2z M14.5,39.8l6.8-25.5c0-0.2,0.1-0.4,0.2-0.5L36,30.6L14.5,41.3
		C14.4,40.8,14.4,40.3,14.5,39.8z M35.9,74.5l13.5-9.7l7,0.6l-8.9,26.7c-0.1,0-0.1-0.1-0.1-0.2L35.9,74.5z M67,64l-2.8-9.7
		l17.2-12.4c-0.1,0.2-0.2,0.5-0.3,0.7L67,64z"/>
</g>
</svg>
