<?xml version="1.0" encoding="utf-8"?>
<!-- Generator: Adobe Illustrator 26.0.2, SVG Export Plug-In . SVG Version: 6.00 Build 0)  -->
<svg version="1.1" id="Layer_1" xmlns="http://www.w3.org/2000/svg" xmlns:xlink="http://www.w3.org/1999/xlink" x="0px" y="0px"
	 viewBox="0 0 631.7 631.7" style="enable-background:new 0 0 631.7 631.7;" xml:space="preserve">
<style type="text/css">
	.st0{fill:#845C41;}
</style>
<g>
	<g>
		<path class="st0" d="M71,170.6c-7.8,0-14.3-1.6-19.5-4.9s-9.1-7.8-11.7-13.7c-2.6-5.9-4.2-12.7-4.8-20.6l11.9-3.6
			c0.6,5.9,1.7,11.3,3.2,16.1c1.5,4.8,4,8.6,7.3,11.4c3.3,2.8,7.9,4.2,13.7,4.2c6.4,0,11.4-1.7,15-5c3.6-3.3,5.3-8.6,5.3-15.9
			c0-6.3-1.6-11.8-4.7-16.5c-3.1-4.7-7.5-9.6-12.9-14.7L48.3,83.1c-4.5-4.4-7.8-8.9-10-13.6c-2.1-4.7-3.2-9.8-3.2-15.4
			c0-10,3-17.6,8.9-23c5.9-5.3,13.8-8,23.7-8c5.1,0,9.7,0.7,13.8,2c4.1,1.3,7.6,3.4,10.5,6.3c2.9,2.9,5.2,6.7,6.9,11.3
			c1.7,4.6,2.8,10.3,3.4,16.9l-11.6,3c-0.5-6.1-1.5-11.3-2.9-15.6c-1.5-4.3-3.8-7.6-7-9.9c-3.1-2.3-7.5-3.4-13.1-3.4
			c-5.9,0-10.8,1.5-14.6,4.6c-3.8,3.1-5.7,7.9-5.7,14.4c0,3.9,0.7,7.5,2.2,10.7c1.5,3.2,4.1,6.7,7.9,10.3l25.5,24.1
			c5.7,5.3,10.6,11.3,14.8,17.8c4.2,6.5,6.2,13.9,6.2,22.1c0,7.2-1.4,13.3-4.2,18.2c-2.8,4.9-6.7,8.5-11.7,11
			C83.3,169.4,77.5,170.6,71,170.6z"/>
		<path class="st0" d="M136.5,168.8V24.5h34.6c8.7,0,15.5,1.6,20.4,4.8c4.9,3.2,8.5,7.7,10.6,13.4s3.2,12.4,3.2,20.1
			c0,6.8-1.1,13-3.3,18.8c-2.2,5.8-5.8,10.4-10.9,13.8c-5.1,3.4-11.7,5.2-19.9,5.2h-21.2v68.3H136.5z M150.1,90.4h17.3
			c5.8,0,10.5-0.9,14.2-2.6c3.6-1.7,6.3-4.6,7.9-8.6c1.7-4,2.5-9.5,2.5-16.4c0-7.4-0.7-13.1-2.1-17.2c-1.4-4.1-3.9-7-7.4-8.6
			c-3.5-1.6-8.5-2.4-14.9-2.4h-17.5V90.4z"/>
		<path class="st0" d="M270.9,170.6c-9.5,0-17-1.9-22.4-5.6c-5.4-3.7-9.2-9-11.4-15.7c-2.2-6.7-3.3-14.4-3.3-23.1V66.4
			c0-8.8,1.2-16.4,3.5-22.9c2.3-6.5,6.2-11.5,11.6-15.1c5.4-3.6,12.7-5.3,22-5.3c9.4,0,16.8,1.8,22.2,5.3c5.4,3.6,9.2,8.6,11.5,15.1
			c2.3,6.5,3.4,14.1,3.4,22.9v60.1c0,8.7-1.1,16.3-3.3,23c-2.2,6.7-6,11.9-11.3,15.6C288,168.8,280.5,170.6,270.9,170.6z
			 M270.9,159.8c6.4,0,11.3-1.3,14.6-3.8c3.3-2.6,5.6-6.1,6.9-10.7c1.2-4.6,1.9-9.9,1.9-16V63.9c0-6.1-0.6-11.3-1.9-15.9
			c-1.2-4.5-3.5-8-6.9-10.4c-3.3-2.4-8.2-3.7-14.6-3.7c-6.3,0-11.1,1.2-14.5,3.7c-3.4,2.4-5.7,5.9-7,10.4c-1.2,4.5-1.9,9.8-1.9,15.9
			v65.4c0,6.1,0.6,11.4,1.9,16c1.2,4.6,3.6,8.1,7,10.7C259.8,158.5,264.6,159.8,270.9,159.8z"/>
		<path class="st0" d="M362.5,168.8V35h-27.3V24.5h67.2V35h-26.4v133.8H362.5z"/>
		<path class="st0" d="M430.8,168.8v-19.6h13.7v19.6H430.8z"/>
		<path class="st0" d="M71,384.5c-7.8,0-14.3-1.6-19.5-4.9s-9.1-7.8-11.7-13.7c-2.6-5.9-4.2-12.7-4.8-20.6l11.9-3.6
			c0.6,5.9,1.7,11.3,3.2,16.1c1.5,4.8,4,8.6,7.3,11.4c3.3,2.8,7.9,4.2,13.7,4.2c6.4,0,11.4-1.7,15-5c3.6-3.3,5.3-8.6,5.3-15.9
			c0-6.3-1.6-11.8-4.7-16.5c-3.1-4.7-7.5-9.6-12.9-14.7L48.3,297c-4.5-4.4-7.8-8.9-10-13.6c-2.1-4.7-3.2-9.8-3.2-15.4
			c0-10,3-17.6,8.9-23c5.9-5.3,13.8-8,23.7-8c5.1,0,9.7,0.7,13.8,2c4.1,1.3,7.6,3.4,10.5,6.3c2.9,2.9,5.2,6.7,6.9,11.3
			c1.7,4.6,2.8,10.3,3.4,16.9l-11.6,3c-0.5-6.1-1.5-11.3-2.9-15.6c-1.5-4.3-3.8-7.6-7-9.9c-3.1-2.3-7.5-3.4-13.1-3.4
			c-5.9,0-10.8,1.5-14.6,4.6c-3.8,3.1-5.7,7.9-5.7,14.4c0,3.9,0.7,7.5,2.2,10.7c1.5,3.2,4.1,6.7,7.9,10.3l25.5,24.1
			c5.7,5.3,10.6,11.3,14.8,17.8c4.2,6.5,6.2,13.9,6.2,22.1c0,7.2-1.4,13.3-4.2,18.2c-2.8,4.9-6.7,8.5-11.7,11
			C83.3,383.3,77.5,384.5,71,384.5z"/>
		<path class="st0" d="M154.5,382.7l-24.4-144.4h11.6l19.1,117.3l21.7-115.1h11.2L216,355.8l17.6-117.4h11.4l-23.3,144.4h-10.5
			l-23-119.1l-22.6,119.1H154.5z"/>
		<path class="st0" d="M278.1,382.7V238.4h52.2v10.5h-38.5V303h31.4v10h-31.4v59.5h38.9v10.2H278.1z"/>
		<path class="st0" d="M355.6,382.7l30.5-144.4h14.3L431,382.7h-13.4l-7.1-38.7h-34.4l-7.3,38.7H355.6z M378,334.2h30.7l-15.5-77.9
			L378,334.2z"/>
		<path class="st0" d="M480.5,382.7V248.9h-27.3v-10.5h67.2v10.5h-26.4v133.8H480.5z"/>
		<path class="st0" d="M548.8,382.7v-19.6h13.7v19.6H548.8z"/>
		<path class="st0" d="M40.3,596.6V452.2h32.6c9,0,16.1,1.5,21.3,4.4c5.2,2.9,8.9,7.1,11.1,12.7c2.3,5.5,3.4,12.1,3.4,19.7
			c0,5.3-0.6,10.4-1.8,15.1c-1.2,4.8-3.2,8.8-6.1,12.1c-2.9,3.3-6.9,5.5-12.1,6.6l22.1,73.8H97.7l-21.2-70.9H53.8v70.9H40.3z
			 M53.8,515.7h18.4c6.1,0,10.8-1,14.1-3c3.3-2,5.7-5,7.1-8.9s2.1-8.8,2.1-14.8c0-8.9-1.5-15.6-4.6-20c-3.1-4.4-9.2-6.6-18.4-6.6
			H53.8V515.7z"/>
		<path class="st0" d="M145.6,596.6V452.2h52.2v10.5h-38.5v54.2h31.4v10h-31.4v59.5h38.9v10.2H145.6z"/>
		<path class="st0" d="M231,596.6V452.2h34.6c8.7,0,15.5,1.6,20.4,4.8c4.9,3.2,8.5,7.7,10.6,13.4s3.2,12.4,3.2,20.1
			c0,6.8-1.1,13-3.3,18.8c-2.2,5.8-5.8,10.4-10.9,13.8c-5.1,3.4-11.7,5.2-19.9,5.2h-21.2v68.3H231z M244.5,518.2h17.3
			c5.8,0,10.5-0.9,14.2-2.6c3.6-1.7,6.3-4.6,7.9-8.6c1.7-4,2.5-9.5,2.5-16.4c0-7.4-0.7-13.1-2.1-17.2c-1.4-4.1-3.9-7-7.4-8.6
			c-3.5-1.6-8.5-2.4-14.9-2.4h-17.5V518.2z"/>
		<path class="st0" d="M331.2,596.6V452.2h52.2v10.5h-38.5v54.2h31.4v10h-31.4v59.5h38.9v10.2H331.2z"/>
		<path class="st0" d="M408.7,596.6l30.5-144.4h14.3l30.7,144.4h-13.4l-7.1-38.7h-34.4l-7.3,38.7H408.7z M431.1,548.1h30.7
			l-15.5-77.9L431.1,548.1z"/>
		<path class="st0" d="M533.6,596.6V462.7h-27.3v-10.5h67.2v10.5h-26.4v133.8H533.6z"/>
		<path class="st0" d="M602.1,596.6v-15.5H616v15.5H602.1z M606.7,565.6l-4.5-113.4h13.9l-4.8,113.4H606.7z"/>
	</g>
</g>
</svg>
