<?xml version="1.0" encoding="utf-8"?>
<!-- Generator: Adobe Illustrator 26.0.2, SVG Export Plug-In . SVG Version: 6.00 Build 0)  -->
<svg version="1.1" id="Layer_1" xmlns="http://www.w3.org/2000/svg" xmlns:xlink="http://www.w3.org/1999/xlink" x="0px" y="0px"
	 viewBox="0 0 2663.8 295.4" style="enable-background:new 0 0 2663.8 295.4;" xml:space="preserve">
<style type="text/css">
	.st0{fill:#845C41;}
</style>
<g>
	<path class="st0" d="M96.2,257.1c-12.1,0-22.2-2.5-30.2-7.6c-8-5.1-14-12.1-18.1-21.2c-4-9.1-6.5-19.7-7.4-31.8l18.5-5.5
		c0.9,9.2,2.6,17.5,5,25c2.4,7.4,6.2,13.3,11.3,17.6c5.1,4.3,12.2,6.5,21.2,6.5c9.9,0,17.6-2.6,23.2-7.7c5.5-5.1,8.3-13.3,8.3-24.5
		c0-9.7-2.4-18.2-7.3-25.5c-4.9-7.3-11.5-14.8-20-22.7l-39.4-37.8c-7-6.8-12.1-13.8-15.4-21.1c-3.3-7.3-5-15.2-5-23.9
		c0-15.4,4.6-27.3,13.8-35.6c9.2-8.3,21.4-12.4,36.7-12.4c7.9,0,15,1,21.4,3c6.3,2,11.8,5.3,16.3,9.8c4.5,4.5,8,10.3,10.6,17.5
		c2.6,7.2,4.3,15.9,5.2,26.2L126.8,90c-0.7-9.4-2.3-17.4-4.5-24.1c-2.3-6.7-5.9-11.8-10.8-15.3c-4.9-3.5-11.6-5.2-20.3-5.2
		c-9.2,0-16.7,2.4-22.6,7.2c-5.9,4.8-8.8,12.2-8.8,22.3c0,6.1,1.1,11.6,3.4,16.5c2.3,5,6.4,10.3,12.3,16l39.4,37.2
		c8.8,8.3,16.4,17.5,22.9,27.6c6.4,10.1,9.7,21.5,9.7,34.2c0,11.2-2.2,20.6-6.5,28.1c-4.3,7.5-10.3,13.2-18.1,17
		S106.3,257.1,96.2,257.1z"/>
	<path class="st0" d="M197.7,254.4V31h53.5c13.4,0,23.9,2.5,31.6,7.4c7.6,5,13.1,11.9,16.4,20.7c3.3,8.8,5,19.2,5,31.2
		c0,10.5-1.7,20.2-5.1,29.1c-3.4,8.9-9,16-16.8,21.4c-7.8,5.3-18.1,8-30.7,8h-32.8v105.6H197.7z M218.6,133h26.7
		c9,0,16.3-1.3,21.9-4c5.6-2.7,9.7-7.1,12.3-13.4c2.6-6.2,3.9-14.7,3.9-25.4c0-11.4-1.1-20.3-3.3-26.6s-6-10.8-11.4-13.2
		c-5.4-2.5-13.1-3.7-23-3.7h-27V133z"/>
	<path class="st0" d="M405.6,257.1c-14.7,0-26.2-2.9-34.6-8.7c-8.4-5.8-14.2-13.9-17.6-24.3c-3.4-10.4-5.1-22.3-5.1-35.7V95.8
		c0-13.6,1.8-25.4,5.4-35.4c3.6-10,9.6-17.8,17.9-23.3c8.4-5.5,19.7-8.3,34.1-8.3c14.5,0,26,2.8,34.3,8.3
		c8.4,5.5,14.3,13.3,17.8,23.3c3.5,10,5.2,21.8,5.2,35.4v92.9c0,13.4-1.7,25.3-5.1,35.6c-3.4,10.3-9.2,18.3-17.5,24.1
		C432,254.2,420.4,257.1,405.6,257.1z M405.6,240.3c9.9,0,17.5-2,22.6-5.9c5.1-4,8.7-9.5,10.6-16.5c1.9-7.1,2.9-15.3,2.9-24.7V92
		c0-9.4-1-17.6-2.9-24.5c-1.9-7-5.5-12.4-10.6-16.1c-5.1-3.8-12.7-5.7-22.6-5.7c-9.7,0-17.2,1.9-22.5,5.7
		c-5.2,3.8-8.8,9.1-10.8,16.1c-1.9,7-2.9,15.2-2.9,24.5v101.2c0,9.4,1,17.6,2.9,24.7c1.9,7.1,5.5,12.6,10.8,16.5
		C388.3,238.3,395.8,240.3,405.6,240.3z"/>
	<path class="st0" d="M547.3,254.4V47.3h-42.2V31h104v16.3h-40.8v207.1H547.3z"/>
	<path class="st0" d="M652.9,254.4V224h21.2v30.3H652.9z"/>
	<path class="st0" d="M853.6,257.1c-12.1,0-22.2-2.5-30.2-7.6c-8-5.1-14-12.1-18.1-21.2c-4-9.1-6.5-19.7-7.4-31.8l18.5-5.5
		c0.9,9.2,2.6,17.5,5,25c2.4,7.4,6.2,13.3,11.3,17.6c5.1,4.3,12.2,6.5,21.2,6.5c9.9,0,17.6-2.6,23.2-7.7c5.5-5.1,8.3-13.3,8.3-24.5
		c0-9.7-2.4-18.2-7.3-25.5c-4.9-7.3-11.5-14.8-20-22.7l-39.4-37.8c-7-6.8-12.1-13.8-15.4-21.1c-3.3-7.3-5-15.2-5-23.9
		c0-15.4,4.6-27.3,13.8-35.6c9.2-8.3,21.4-12.4,36.7-12.4c7.9,0,15,1,21.4,3c6.3,2,11.8,5.3,16.3,9.8c4.5,4.5,8,10.3,10.6,17.5
		c2.6,7.2,4.3,15.9,5.2,26.2L884.2,90c-0.7-9.4-2.3-17.4-4.5-24.1c-2.3-6.7-5.9-11.8-10.8-15.3c-4.9-3.5-11.6-5.2-20.3-5.2
		c-9.2,0-16.7,2.4-22.6,7.2c-5.9,4.8-8.8,12.2-8.8,22.3c0,6.1,1.1,11.6,3.4,16.5c2.3,5,6.4,10.3,12.3,16l39.4,37.2
		c8.8,8.3,16.4,17.5,22.9,27.6c6.4,10.1,9.7,21.5,9.7,34.2c0,11.2-2.2,20.6-6.5,28.1c-4.3,7.5-10.3,13.2-18.1,17
		S863.7,257.1,853.6,257.1z"/>
	<path class="st0" d="M983,254.4L945.2,31h17.9l29.5,181.4l33.6-178.1h17.4l34.5,178.4L1105.4,31h17.6l-36.1,223.3h-16.3
		l-35.6-184.2l-35,184.2H983z"/>
	<path class="st0" d="M1174,254.4V31h80.8v16.3h-59.6v83.8h48.5v15.4h-48.5v92.1h60.1v15.7H1174z"/>
	<path class="st0" d="M1294,254.4L1341.1,31h22.1l47.4,223.3h-20.7l-11-59.8h-53.2l-11.3,59.8H1294z M1328.7,179.4h47.4l-24-120.5
		L1328.7,179.4z"/>
	<path class="st0" d="M1477.4,254.4V47.3h-42.2V31h104v16.3h-40.8v207.1H1477.4z"/>
	<path class="st0" d="M1583,254.4V224h21.2v30.3H1583z"/>
	<path class="st0" d="M1736.3,254.4V31h50.5c14,0,25,2.3,33,6.8c8,4.5,13.7,11,17.2,19.6c3.5,8.5,5.2,18.7,5.2,30.5
		c0,8.3-0.9,16.1-2.8,23.4c-1.8,7.4-5,13.6-9.4,18.8c-4.4,5.1-10.7,8.5-18.8,10.2l34.2,114.2h-20.4l-32.8-109.7h-35v109.7H1736.3z
		 M1757.2,129.2h28.4c9.4,0,16.6-1.6,21.8-4.7c5.1-3.1,8.8-7.7,11-13.8c2.2-6.1,3.3-13.7,3.3-22.9c0-13.8-2.4-24.1-7.2-30.9
		c-4.8-6.8-14.2-10.2-28.4-10.2h-29V129.2z"/>
	<path class="st0" d="M1899.2,254.4V31h80.8v16.3h-59.6v83.8h48.5v15.4h-48.5v92.1h60.1v15.7H1899.2z"/>
	<path class="st0" d="M2031.3,254.4V31h53.5c13.4,0,23.9,2.5,31.6,7.4c7.6,5,13.1,11.9,16.4,20.7c3.3,8.8,5,19.2,5,31.2
		c0,10.5-1.7,20.2-5.1,29.1c-3.4,8.9-9,16-16.8,21.4c-7.8,5.3-18.1,8-30.7,8h-32.8v105.6H2031.3z M2052.3,133h26.7
		c9,0,16.3-1.3,21.9-4c5.6-2.7,9.7-7.1,12.3-13.4c2.6-6.2,3.9-14.7,3.9-25.4c0-11.4-1.1-20.3-3.3-26.6s-6-10.8-11.4-13.2
		c-5.4-2.5-13.1-3.7-23-3.7h-27V133z"/>
	<path class="st0" d="M2186.3,254.4V31h80.8v16.3h-59.6v83.8h48.5v15.4h-48.5v92.1h60.1v15.7H2186.3z"/>
	<path class="st0" d="M2306.2,254.4L2353.4,31h22.1l47.4,223.3h-20.7l-11-59.8h-53.2l-11.3,59.8H2306.2z M2341,179.4h47.4l-24-120.5
		L2341,179.4z"/>
	<path class="st0" d="M2489.6,254.4V47.3h-42.2V31h104v16.3h-40.8v207.1H2489.6z"/>
	<path class="st0" d="M2595.2,254.4V224h21.2v30.3H2595.2z"/>
</g>
</svg>
