<?xml version="1.0" encoding="utf-8"?>
<!-- Generator: Adobe Illustrator 26.0.2, SVG Export Plug-In . SVG Version: 6.00 Build 0)  -->
<svg version="1.1" id="Layer_1" xmlns="http://www.w3.org/2000/svg" xmlns:xlink="http://www.w3.org/1999/xlink" x="0px" y="0px"
	 viewBox="0 0 631.7 631.7" style="enable-background:new 0 0 631.7 631.7;" xml:space="preserve">
<style type="text/css">
	.st0{fill:#111524;}
	.st1{fill:url(#SVGID_1_);}
</style>
<g>
	<g transform="matrix(1, 0, 0, 1, 0, 0)">
		<path id="App_Icon-2_00000095340051074382692860000011020805013242716859_" class="st0" d="M142.1,0h347.5
			c78.5,0,142.1,63.6,142.1,142.1v347.5c0,78.5-63.6,142.1-142.1,142.1H142.1C63.6,631.7,0,568.1,0,489.6V142.1
			C0,63.6,63.6,0,142.1,0z"/>
	</g>
</g>
<g>
	<linearGradient id="SVGID_1_" gradientUnits="userSpaceOnUse" x1="413.8841" y1="515.7546" x2="278.4633" y2="154.6327">
		<stop  offset="0" style="stop-color:#E7D0AA"/>
		<stop  offset="0.1786" style="stop-color:#E1CAA5"/>
		<stop  offset="0.3678" style="stop-color:#D3BA96"/>
		<stop  offset="0.5618" style="stop-color:#BFA280"/>
		<stop  offset="0.7592" style="stop-color:#A68364"/>
		<stop  offset="0.9573" style="stop-color:#886246"/>
		<stop  offset="1" style="stop-color:#825B40"/>
	</linearGradient>
	<path class="st1" d="M516.4,271.8L475.5,118c-1.6-6-6-10.9-11.9-13.2L325.4,51.6c-6.1-2.4-12.9-2.4-19.1,0l-138.2,53.2
		c-5.9,2.3-10.3,7.2-11.9,13.2l-41,154c-1.4,5.2-0.5,10.7,2.5,15.1l190.6,290.8c3.6,5.4,11.6,5.4,15.2,0l190.5-290.7
		C516.9,282.6,517.8,277.1,516.4,271.8z M504.4,269.8c0,0.2,0.1,0.3,0.1,0.5l-100.3,72l-3.8-12.9L467,129.3L504.4,269.8z
		 M199.5,391.4l-69-105.3l123.3-61.3l120,139.4l-52.4,37.7L199.5,391.4z M310.7,409.6l-67.5,48.5l-37.7-57.6L310.7,409.6z
		 M391.5,329.3l-9.7,29.2l-0.9,0.7L261.7,220.9l85.5-42.5L391.5,329.3z M355,174.5l105.4-52.4l-64.2,193L355,174.5z M377.1,372.4
		l-11.1,33.3l-31.5-2.7L377.1,372.4z M384.7,376.8l28.3,32.9l-38.2-3.3L384.7,376.8z M414.5,418.5l-88.6,135.3l46.2-138.9
		L414.5,418.5z M387.9,367.3l1.2-3.5l10.4-7.5l10.8,36.9L387.9,367.3z M393.6,350l2.1-6.2l1.1,3.9L393.6,350z M325.4,63.7l129,49.7
		c0.8,0.3,1.5,0.6,2.2,1l-104,51.7L322.2,62.7C323.3,63,324.4,63.3,325.4,63.7z M306.3,63.7c2.2-0.8,4.5-1.4,6.8-1.6L344.7,170
		L256,214.2l-84-97.6c1.6-1.3,3.4-2.4,5.5-3.2L306.3,63.7z M127.3,269.9l38.2-143.4c0.3-1,0.6-2.1,1.1-3l81.4,94.6l-121,60.2
		C126.5,275.5,126.6,272.7,127.3,269.9z M247.9,465.3l76-54.6l39.4,3.4l-50.1,150.5c-0.3-0.3-0.6-0.6-0.8-0.9L247.9,465.3z
		 M422.8,405.8l-16-54.7l97-69.7c-0.5,1.3-1.1,2.6-1.9,3.8L422.8,405.8z"/>
</g>
</svg>
