<?xml version="1.0" encoding="utf-8"?>
<!-- Generator: Adobe Illustrator 26.0.2, SVG Export Plug-In . SVG Version: 6.00 Build 0)  -->
<svg version="1.1" id="Layer_1" xmlns="http://www.w3.org/2000/svg" xmlns:xlink="http://www.w3.org/1999/xlink" x="0px" y="0px"
	 viewBox="0 0 1549.3 450.3" style="enable-background:new 0 0 1549.3 450.3;" xml:space="preserve">
<style type="text/css">
	.st0{fill:url(#SVGID_1_);}
	.st1{fill:#E7D0AF;}
</style>
<g>
	<linearGradient id="SVGID_1_" gradientUnits="userSpaceOnUse" x1="1386.3765" y1="382.3568" x2="1283.2131" y2="107.2546">
		<stop  offset="0" style="stop-color:#E7D0AA"/>
		<stop  offset="0.1786" style="stop-color:#E1CAA5"/>
		<stop  offset="0.3678" style="stop-color:#D3BA96"/>
		<stop  offset="0.5618" style="stop-color:#BFA280"/>
		<stop  offset="0.7592" style="stop-color:#A68364"/>
		<stop  offset="0.9573" style="stop-color:#886246"/>
		<stop  offset="1" style="stop-color:#825B40"/>
	</linearGradient>
	<path class="st0" d="M1464.5,196.5l-31.2-117.2c-1.2-4.6-4.6-8.3-9.1-10L1319,28.8c-4.7-1.8-9.9-1.8-14.5,0l-105.3,40.5
		c-4.5,1.7-7.8,5.5-9.1,10l-31.2,117.3c-1,3.9-0.4,8.1,1.9,11.5l145.2,221.5c2.7,4.1,8.8,4.1,11.5,0l145.1-221.4
		C1464.9,204.8,1465.6,200.5,1464.5,196.5z M1455.3,195c0,0.1,0.1,0.3,0.1,0.4l-76.4,54.9l-2.9-9.8L1426.8,88L1455.3,195z
		 M1223,287.6l-52.6-80.2l93.9-46.7l91.4,106.2l-39.9,28.7L1223,287.6z M1307.8,301.5l-51.4,37l-28.7-43.8L1307.8,301.5z
		 M1369.3,240.3l-7.4,22.3l-0.7,0.5l-90.7-105.4l65.1-32.4L1369.3,240.3z M1341.5,122.4l80.3-39.9l-48.9,147L1341.5,122.4z
		 M1358.4,273.2l-8.4,25.4l-24-2.1L1358.4,273.2z M1364.2,276.5l21.6,25.1l-29.1-2.5L1364.2,276.5z M1386.9,308.3l-67.5,103
		l35.2-105.8L1386.9,308.3z M1366.6,269.3l0.9-2.6l7.9-5.7l8.2,28.1L1366.6,269.3z M1370.9,256.1l1.6-4.7l0.9,3L1370.9,256.1z
		 M1319,38l98.2,37.8c0.6,0.2,1.1,0.5,1.7,0.8l-79.3,39.4l-23.1-78.8C1317.4,37.4,1318.2,37.7,1319,38z M1304.5,38
		c1.7-0.6,3.4-1.1,5.2-1.2l24.1,82.2l-67.6,33.6l-64-74.4c1.2-1,2.6-1.8,4.2-2.4L1304.5,38z M1168.1,195.1l29.1-109.3
		c0.2-0.8,0.5-1.6,0.8-2.3l62,72.1l-92.2,45.8C1167.5,199.4,1167.5,197.2,1168.1,195.1z M1259.9,343.9l57.9-41.6l30,2.6l-38.1,114.7
		c-0.2-0.2-0.4-0.4-0.6-0.7L1259.9,343.9z M1393.2,298.6l-12.2-41.7l73.9-53.1c-0.4,1-0.9,2-1.4,2.9L1393.2,298.6z"/>
</g>
<g>
	<path class="st1" d="M161,352.4c-14.6,0-26.7-3.1-36.4-9.4s-17-14.9-22-25.9c-5-11-7.9-23.9-8.7-38.4l9.8-2.7c11-3,22,4,24.4,15.1
		c0.4,1.7,0.8,3.4,1.2,5c2.2,8.3,5.8,15.2,10.8,20.5c5,5.3,12,8,20.9,8c9.2,0,16.1-2.5,20.8-7.7c4.7-5.1,7-12.4,7-22
		c0-11.5-2.6-20.7-7.8-27.7c-5.2-7-11.8-14-19.7-21.1l-42.5-37.5c-8.3-7.3-14.5-15.3-18.4-23.9c-4-8.6-5.9-19.3-5.9-32
		c0-18.5,5.3-32.9,15.9-43.1c10.6-10.2,25.1-15.3,43.4-15.3c10,0,18.8,1.3,26.4,3.9c7.6,2.6,14,6.6,19.1,12
		c5.1,5.4,9.2,12.2,12.2,20.5c3,8.2,5,17.9,6.1,28.9l-8.7,2.4c-10.7,2.9-21.7-3.5-24.3-14.3c-0.2-1-0.5-2-0.7-2.9
		c-1.9-7-5.2-12.6-9.8-16.9c-4.7-4.3-11.4-6.4-20.2-6.4c-8.7,0-15.6,2.3-20.5,7c-4.9,4.7-7.3,11.6-7.3,20.8c0,7.7,1.3,14.1,3.9,19.1
		c2.6,5,6.8,10.1,12.7,15.3l42.8,37.5c9.6,8.3,18,18.3,25.3,29.8c7.3,11.6,10.9,25.3,10.9,41.1c0,12.5-2.6,23.3-7.8,32.3
		c-5.2,9.1-12.3,16-21.4,20.8C183.4,350,172.9,352.4,161,352.4z"/>
	<path class="st1" d="M249.1,349.6V96.5h62.8c15.2,0,27.3,2.8,36.4,8.3c9.1,5.5,15.7,13.5,19.8,23.9c4.2,10.4,6.2,23,6.2,37.8
		c0,13.3-0.9,26-5.6,35.8c-4.7,9.8-11.2,19.1-20.6,26.7c-8.4,6.8-17.9,11.2-36,11.2h-27.8v93.5c0,8.8-7.1,15.9-15.9,15.9H249.1z
		 M284.4,206.5h16.2c10.2,0,18.2-1.1,24.1-3.4c5.8-2.3,10-6.3,12.5-12c2.5-5.7,3.7-13.8,3.7-24.2c0-12.1-0.9-21.4-2.7-27.8
		c-1.8-6.5-5.5-10.9-11.1-13.4s-14.4-3.7-26.2-3.7h-16.6V206.5z"/>
	<path class="st1" d="M469.1,352.4c-17.1,0-30.7-3.3-40.9-10c-10.2-6.7-17.5-16.2-21.9-28.6c-4.4-12.4-6.6-26.9-6.6-43.6v-95.9
		c0-16.7,2.2-31,6.7-43c4.5-12,11.8-21.1,21.9-27.5c10.1-6.4,23.7-9.5,40.8-9.5c17.1,0,30.6,3.2,40.6,9.7
		c10,6.5,17.2,15.6,21.7,27.5c4.5,11.9,6.7,26.1,6.7,42.8v96.2c0,16.5-2.2,30.8-6.7,43.1c-4.5,12.3-11.7,21.8-21.7,28.6
		C499.7,349,486.2,352.4,469.1,352.4z M469.1,324.6c9.4,0,16.5-1.9,21.2-5.8c4.8-3.9,8-9.3,9.7-16.2c1.7-7,2.5-15.2,2.5-24.5V167.1
		c0-9.4-0.8-17.4-2.5-24.2c-1.7-6.8-4.9-12-9.7-15.6c-4.8-3.6-11.9-5.5-21.2-5.5c-9.4,0-16.5,1.8-21.4,5.5
		c-4.9,3.6-8.2,8.9-9.8,15.6c-1.7,6.8-2.5,14.8-2.5,24.2V278c0,9.4,0.8,17.6,2.5,24.5c1.7,7,4.9,12.4,9.8,16.2
		C452.6,322.6,459.7,324.6,469.1,324.6z"/>
	<path class="st1" d="M604.1,349.6V122.7h-52.9v-7.6c0-10.3,8.4-18.7,18.7-18.7H681v26.2h-41.6v226.8H604.1z"/>
	<path class="st1" d="M750.8,349.6V122.7H708V96.5h133.8v7.4c0,10.4-8.5,18.9-18.9,18.9h-36.8v226.8H750.8z"/>
	<path class="st1" d="M861.8,330.4v-234h98.1v6.5c0,10.9-8.8,19.7-19.7,19.7h-43.1v83.7H948v25h-50.9v92.8h63.4v25.3h-79.6
		C870.3,349.6,861.8,341,861.8,330.4z"/>
	<path class="st1" d="M988.9,349.6V96.5h50.9c16.9,0,30.8,2.2,41.9,6.7c11,4.5,19.2,11.7,24.5,21.6c5.3,9.9,8,22.9,8,38.9
		c0,9.8-1,18.7-3.1,26.7c-2.1,8-5.4,14.8-10,20.3c-4.1,4.9-9.4,8.7-15.8,11.2c-1.2,0.5-1.6,1.9-0.9,2.9l82.1,124.8H1140
		c-11,0-21.1-9.6-25.5-16.3l-62.8-94h-27.5v110.3H988.9z M1024.2,205.5h13.4c10,0,18.1-1.3,24.4-3.7c6.2-2.5,10.8-6.8,13.7-12.8
		c2.9-6,4.4-14.5,4.4-25.3c0-14.8-2.7-25.5-8.1-32c-5.4-6.6-16.1-9.8-32.2-9.8h-15.6V205.5z"/>
</g>
</svg>
