<?xml version="1.0" encoding="utf-8"?>
<!-- Generator: Adobe Illustrator 26.0.2, SVG Export Plug-In . SVG Version: 6.00 Build 0)  -->
<svg version="1.1" id="Layer_1" xmlns="http://www.w3.org/2000/svg" xmlns:xlink="http://www.w3.org/1999/xlink" x="0px" y="0px"
	 viewBox="0 0 1549.3 450.3" style="enable-background:new 0 0 1549.3 450.3;" xml:space="preserve">
<style type="text/css">
	.st0{fill:url(#SVGID_1_);}
	.st1{fill:#E7D0AF;}
	.st2{fill:#845C41;}
</style>
<g>
	<linearGradient id="SVGID_1_" gradientUnits="userSpaceOnUse" x1="1406.3765" y1="382.3568" x2="1303.2131" y2="107.2546">
		<stop  offset="0" style="stop-color:#E7D0AA"/>
		<stop  offset="0.1786" style="stop-color:#E1CAA5"/>
		<stop  offset="0.3678" style="stop-color:#D3BA96"/>
		<stop  offset="0.5618" style="stop-color:#BFA280"/>
		<stop  offset="0.7592" style="stop-color:#A68364"/>
		<stop  offset="0.9573" style="stop-color:#886246"/>
		<stop  offset="1" style="stop-color:#825B40"/>
	</linearGradient>
	<path class="st0" d="M1484.5,196.5l-31.2-117.2c-1.2-4.6-4.6-8.3-9.1-10L1339,28.8c-4.7-1.8-9.9-1.8-14.5,0l-105.3,40.5
		c-4.5,1.7-7.8,5.5-9.1,10l-31.2,117.3c-1,3.9-0.4,8.1,1.9,11.5l145.2,221.5c2.7,4.1,8.8,4.1,11.5,0l145.1-221.4
		C1484.9,204.8,1485.6,200.5,1484.5,196.5z M1475.3,195c0,0.1,0.1,0.3,0.1,0.4l-76.4,54.9l-2.9-9.8L1446.8,88L1475.3,195z
		 M1243,287.6l-52.6-80.2l93.9-46.7l91.4,106.2l-39.9,28.7L1243,287.6z M1327.8,301.5l-51.4,37l-28.7-43.8L1327.8,301.5z
		 M1389.3,240.3l-7.4,22.3l-0.7,0.5l-90.7-105.4l65.1-32.4L1389.3,240.3z M1361.5,122.4l80.3-39.9l-48.9,147L1361.5,122.4z
		 M1378.4,273.2l-8.4,25.4l-24-2.1L1378.4,273.2z M1384.2,276.5l21.6,25.1l-29.1-2.5L1384.2,276.5z M1406.9,308.3l-67.5,103
		l35.2-105.8L1406.9,308.3z M1386.6,269.3l0.9-2.6l7.9-5.7l8.2,28.1L1386.6,269.3z M1390.9,256.1l1.6-4.7l0.9,3L1390.9,256.1z
		 M1339,38l98.2,37.8c0.6,0.2,1.1,0.5,1.7,0.8l-79.3,39.4l-23.1-78.8C1337.4,37.4,1338.2,37.7,1339,38z M1324.5,38
		c1.7-0.6,3.4-1.1,5.2-1.2l24.1,82.2l-67.6,33.6l-64-74.4c1.2-1,2.6-1.8,4.2-2.4L1324.5,38z M1188.1,195.1l29.1-109.3
		c0.2-0.8,0.5-1.6,0.8-2.3l62,72.1l-92.2,45.8C1187.5,199.4,1187.5,197.2,1188.1,195.1z M1279.9,343.9l57.9-41.6l30,2.6l-38.1,114.7
		c-0.2-0.2-0.4-0.4-0.6-0.7L1279.9,343.9z M1413.2,298.6l-12.2-41.7l73.9-53.1c-0.4,1-0.9,2-1.4,2.9L1413.2,298.6z"/>
</g>
<g>
	<path class="st1" d="M181,334.4c-14.6,0-26.7-3.1-36.4-9.4c-9.7-6.2-17-14.9-22-25.9c-5-11-7.9-23.9-8.7-38.4l9.8-2.7
		c11-3,22,4,24.4,15.1c0.4,1.7,0.8,3.4,1.2,5c2.2,8.3,5.8,15.2,10.8,20.5c5,5.3,12,8,20.9,8c9.2,0,16.1-2.5,20.8-7.7
		c4.7-5.1,7-12.4,7-22c0-11.5-2.6-20.7-7.8-27.7c-5.2-7-11.8-14-19.7-21.1l-42.5-37.5c-8.3-7.3-14.5-15.3-18.4-23.9
		c-4-8.6-5.9-19.3-5.9-32c0-18.5,5.3-32.9,15.9-43.1c10.6-10.2,25.1-15.3,43.4-15.3c10,0,18.8,1.3,26.4,3.9c7.6,2.6,14,6.6,19.1,12
		c5.1,5.4,9.2,12.2,12.2,20.5c3,8.2,5,17.9,6.1,28.9l-8.7,2.4c-10.7,2.9-21.7-3.5-24.3-14.3c-0.2-1-0.5-2-0.7-2.9
		c-1.9-7-5.2-12.6-9.8-16.9c-4.7-4.3-11.4-6.4-20.2-6.4c-8.7,0-15.6,2.3-20.5,7c-4.9,4.7-7.3,11.6-7.3,20.8c0,7.7,1.3,14.1,3.9,19.1
		c2.6,5,6.8,10.1,12.7,15.3l42.8,37.5c9.6,8.3,18,18.3,25.3,29.8c7.3,11.6,10.9,25.3,10.9,41.1c0,12.5-2.6,23.3-7.8,32.3
		c-5.2,9.1-12.3,16-21.4,20.8C203.4,332,192.9,334.4,181,334.4z"/>
	<path class="st1" d="M269.1,331.6V78.5h62.8c15.2,0,27.3,2.8,36.4,8.3c9.1,5.5,15.7,13.5,19.8,23.9c4.2,10.4,6.2,23,6.2,37.8
		c0,13.3-0.9,26-5.6,35.8c-4.7,9.8-11.2,19.1-20.6,26.7c-8.4,6.8-17.9,11.2-36,11.2h-27.8v93.5c0,8.8-7.1,15.9-15.9,15.9H269.1z
		 M304.4,188.4h16.2c10.2,0,18.2-1.1,24.1-3.4c5.8-2.3,10-6.3,12.5-12c2.5-5.7,3.7-13.8,3.7-24.2c0-12.1-0.9-21.4-2.7-27.8
		c-1.8-6.5-5.5-10.9-11.1-13.4s-14.4-3.7-26.2-3.7h-16.6V188.4z"/>
	<path class="st1" d="M489.1,334.4c-17.1,0-30.7-3.3-40.9-10c-10.2-6.7-17.5-16.2-21.9-28.6c-4.4-12.4-6.6-26.9-6.6-43.6v-95.9
		c0-16.7,2.2-31,6.7-43c4.5-12,11.8-21.1,21.9-27.5c10.1-6.4,23.7-9.5,40.8-9.5c17.1,0,30.6,3.2,40.6,9.7
		c10,6.5,17.2,15.6,21.7,27.5c4.5,11.9,6.7,26.1,6.7,42.8v96.2c0,16.5-2.2,30.8-6.7,43.1c-4.5,12.3-11.7,21.8-21.7,28.6
		C519.7,331,506.2,334.4,489.1,334.4z M489.1,306.6c9.4,0,16.5-1.9,21.2-5.8c4.8-3.9,8-9.3,9.7-16.2c1.7-7,2.5-15.2,2.5-24.5V149.1
		c0-9.4-0.8-17.4-2.5-24.2c-1.7-6.8-4.9-12-9.7-15.6c-4.8-3.6-11.9-5.5-21.2-5.5c-9.4,0-16.5,1.8-21.4,5.5
		c-4.9,3.6-8.2,8.9-9.8,15.6c-1.7,6.8-2.5,14.8-2.5,24.2V260c0,9.4,0.8,17.6,2.5,24.5c1.7,7,4.9,12.4,9.8,16.2
		C472.6,304.6,479.7,306.6,489.1,306.6z"/>
	<path class="st1" d="M624.1,331.6V104.7h-52.9v-7.6c0-10.3,8.4-18.7,18.7-18.7H701v26.2h-41.6v226.8H624.1z"/>
	<path class="st1" d="M770.8,331.6V104.7H728V78.5h133.8v7.4c0,10.4-8.5,18.9-18.9,18.9h-36.8v226.8H770.8z"/>
	<path class="st1" d="M881.8,312.4v-234h98.1V85c0,10.9-8.8,19.7-19.7,19.7h-43.1v83.7H968v25h-50.9v92.8h63.4v25.3h-79.6
		C890.3,331.6,881.8,323,881.8,312.4z"/>
	<path class="st1" d="M1008.9,331.6V78.5h50.9c16.9,0,30.8,2.2,41.9,6.7c11,4.5,19.2,11.7,24.5,21.6c5.3,9.9,8,22.9,8,38.9
		c0,9.8-1,18.7-3.1,26.7c-2.1,8-5.4,14.8-10,20.3c-4.1,4.9-9.4,8.7-15.8,11.2c-1.2,0.5-1.6,1.9-0.9,2.9l82.1,124.8H1160
		c-11,0-21.1-9.6-25.5-16.3l-62.8-94h-27.5v110.3H1008.9z M1044.2,187.5h13.4c10,0,18.1-1.3,24.4-3.7c6.2-2.5,10.8-6.8,13.7-12.8
		c2.9-6,4.4-14.5,4.4-25.3c0-14.8-2.7-25.5-8.1-32c-5.4-6.6-16.1-9.8-32.2-9.8h-15.6V187.5z"/>
</g>
<g>
	<g>
		<path class="st2" d="M286.4,429.6c-3.7,0-6.7-0.8-9.1-2.3c-2.4-1.5-4.2-3.7-5.4-6.4c-1.2-2.7-2-5.9-2.2-9.6l5.6-1.7
			c0.3,2.8,0.8,5.3,1.5,7.5c0.7,2.2,1.9,4,3.4,5.3c1.5,1.3,3.7,2,6.4,2c3,0,5.3-0.8,7-2.3c1.7-1.5,2.5-4,2.5-7.4
			c0-2.9-0.7-5.5-2.2-7.7c-1.5-2.2-3.5-4.5-6-6.9l-11.9-11.4c-2.1-2-3.7-4.2-4.7-6.4c-1-2.2-1.5-4.6-1.5-7.2c0-4.7,1.4-8.2,4.2-10.7
			c2.8-2.5,6.5-3.7,11-3.7c2.4,0,4.5,0.3,6.4,0.9c1.9,0.6,3.5,1.6,4.9,2.9c1.4,1.4,2.4,3.1,3.2,5.3c0.8,2.2,1.3,4.8,1.6,7.9
			l-5.4,1.4c-0.2-2.8-0.7-5.2-1.4-7.3c-0.7-2-1.8-3.6-3.2-4.6c-1.5-1.1-3.5-1.6-6.1-1.6c-2.8,0-5,0.7-6.8,2.2
			c-1.8,1.4-2.7,3.7-2.7,6.7c0,1.8,0.3,3.5,1,5c0.7,1.5,1.9,3.1,3.7,4.8l11.9,11.2c2.7,2.5,5,5.3,6.9,8.3c1.9,3,2.9,6.5,2.9,10.3
			c0,3.4-0.7,6.2-2,8.5c-1.3,2.3-3.1,4-5.4,5.1C292.1,429,289.4,429.6,286.4,429.6z"/>
		<path class="st2" d="M316.9,428.7v-67.3H333c4,0,7.2,0.7,9.5,2.2c2.3,1.5,3.9,3.6,4.9,6.2c1,2.7,1.5,5.8,1.5,9.4
			c0,3.2-0.5,6.1-1.5,8.8c-1,2.7-2.7,4.8-5.1,6.4c-2.4,1.6-5.4,2.4-9.3,2.4h-9.9v31.8H316.9z M323.2,392.2h8.1
			c2.7,0,4.9-0.4,6.6-1.2c1.7-0.8,2.9-2.1,3.7-4c0.8-1.9,1.2-4.4,1.2-7.6c0-3.4-0.3-6.1-1-8s-1.8-3.2-3.4-4
			c-1.6-0.7-3.9-1.1-6.9-1.1h-8.1V392.2z"/>
		<path class="st2" d="M379.6,429.6c-4.4,0-7.9-0.9-10.4-2.6c-2.5-1.7-4.3-4.2-5.3-7.3c-1-3.1-1.5-6.7-1.5-10.8V381
			c0-4.1,0.5-7.7,1.6-10.7c1.1-3,2.9-5.4,5.4-7c2.5-1.7,5.9-2.5,10.3-2.5c4.4,0,7.8,0.8,10.3,2.5c2.5,1.7,4.3,4,5.4,7
			c1.1,3,1.6,6.6,1.6,10.7v28c0,4-0.5,7.6-1.5,10.7c-1,3.1-2.8,5.5-5.3,7.3C387.5,428.7,384,429.6,379.6,429.6z M379.6,424.5
			c3,0,5.3-0.6,6.8-1.8c1.5-1.2,2.6-2.9,3.2-5c0.6-2.1,0.9-4.6,0.9-7.4v-30.5c0-2.8-0.3-5.3-0.9-7.4c-0.6-2.1-1.6-3.7-3.2-4.9
			c-1.6-1.1-3.8-1.7-6.8-1.7c-2.9,0-5.2,0.6-6.8,1.7c-1.6,1.1-2.7,2.8-3.2,4.9c-0.6,2.1-0.9,4.6-0.9,7.4v30.5c0,2.8,0.3,5.3,0.9,7.4
			c0.6,2.1,1.7,3.8,3.2,5C374.4,423.9,376.6,424.5,379.6,424.5z"/>
		<path class="st2" d="M422.3,428.7v-62.4h-12.7v-4.9h31.3v4.9h-12.3v62.4H422.3z"/>
		<path class="st2" d="M454.1,428.7v-9.1h6.4v9.1H454.1z"/>
		<path class="st2" d="M514.5,429.6c-3.7,0-6.7-0.8-9.1-2.3c-2.4-1.5-4.2-3.7-5.4-6.4c-1.2-2.7-2-5.9-2.2-9.6l5.6-1.7
			c0.3,2.8,0.8,5.3,1.5,7.5c0.7,2.2,1.9,4,3.4,5.3c1.5,1.3,3.7,2,6.4,2c3,0,5.3-0.8,7-2.3c1.7-1.5,2.5-4,2.5-7.4
			c0-2.9-0.7-5.5-2.2-7.7c-1.5-2.2-3.5-4.5-6-6.9L504,388.8c-2.1-2-3.7-4.2-4.7-6.4c-1-2.2-1.5-4.6-1.5-7.2c0-4.7,1.4-8.2,4.2-10.7
			c2.8-2.5,6.5-3.7,11-3.7c2.4,0,4.5,0.3,6.4,0.9c1.9,0.6,3.5,1.6,4.9,2.9c1.4,1.4,2.4,3.1,3.2,5.3c0.8,2.2,1.3,4.8,1.6,7.9
			l-5.4,1.4c-0.2-2.8-0.7-5.2-1.4-7.3c-0.7-2-1.8-3.6-3.2-4.6c-1.5-1.1-3.5-1.6-6.1-1.6c-2.8,0-5,0.7-6.8,2.2
			c-1.8,1.4-2.7,3.7-2.7,6.7c0,1.8,0.3,3.5,1,5c0.7,1.5,1.9,3.1,3.7,4.8l11.9,11.2c2.7,2.5,5,5.3,6.9,8.3c1.9,3,2.9,6.5,2.9,10.3
			c0,3.4-0.7,6.2-2,8.5c-1.3,2.3-3.1,4-5.4,5.1C520.3,429,517.6,429.6,514.5,429.6z"/>
		<path class="st2" d="M553.5,428.7l-11.4-67.3h5.4l8.9,54.7l10.1-53.7h5.2l10.4,53.7l8.2-54.7h5.3l-10.9,67.3h-4.9l-10.7-55.5
			l-10.5,55.5H553.5z"/>
		<path class="st2" d="M611.1,428.7v-67.3h24.3v4.9h-17.9v25.3h14.6v4.7h-14.6V424h18.1v4.7H611.1z"/>
		<path class="st2" d="M647.2,428.7l14.2-67.3h6.6l14.3,67.3h-6.2l-3.3-18h-16l-3.4,18H647.2z M657.7,406.1h14.3l-7.2-36.3
			L657.7,406.1z"/>
		<path class="st2" d="M705.4,428.7v-62.4h-12.7v-4.9H724v4.9h-12.3v62.4H705.4z"/>
		<path class="st2" d="M737.2,428.7v-9.1h6.4v9.1H737.2z"/>
		<path class="st2" d="M783.4,428.7v-67.3h15.2c4.2,0,7.5,0.7,9.9,2c2.4,1.4,4.1,3.3,5.2,5.9c1.1,2.6,1.6,5.6,1.6,9.2
			c0,2.5-0.3,4.8-0.8,7.1c-0.6,2.2-1.5,4.1-2.8,5.6c-1.3,1.6-3.2,2.6-5.6,3.1l10.3,34.4h-6.1l-9.9-33.1h-10.5v33.1H783.4z
			 M789.7,391h8.6c2.8,0,5-0.5,6.6-1.4c1.5-0.9,2.7-2.3,3.3-4.2s1-4.1,1-6.9c0-4.2-0.7-7.3-2.2-9.3c-1.4-2-4.3-3.1-8.6-3.1h-8.7V391
			z"/>
		<path class="st2" d="M832.5,428.7v-67.3h24.3v4.9h-17.9v25.3h14.6v4.7h-14.6V424H857v4.7H832.5z"/>
		<path class="st2" d="M872.3,428.7v-67.3h16.1c4,0,7.2,0.7,9.5,2.2s3.9,3.6,4.9,6.2c1,2.7,1.5,5.8,1.5,9.4c0,3.2-0.5,6.1-1.5,8.8
			c-1,2.7-2.7,4.8-5.1,6.4c-2.4,1.6-5.4,2.4-9.3,2.4h-9.9v31.8H872.3z M878.6,392.2h8.1c2.7,0,4.9-0.4,6.6-1.2
			c1.7-0.8,2.9-2.1,3.7-4c0.8-1.9,1.2-4.4,1.2-7.6c0-3.4-0.3-6.1-1-8c-0.7-1.9-1.8-3.2-3.4-4c-1.6-0.7-3.9-1.1-6.9-1.1h-8.1V392.2z"
			/>
		<path class="st2" d="M919,428.7v-67.3h24.3v4.9h-17.9v25.3H940v4.7h-14.6V424h18.1v4.7H919z"/>
		<path class="st2" d="M955.1,428.7l14.2-67.3h6.6l14.3,67.3H984l-3.3-18h-16l-3.4,18H955.1z M965.6,406.1h14.3l-7.2-36.3
			L965.6,406.1z"/>
		<path class="st2" d="M1013.3,428.7v-62.4h-12.7v-4.9h31.3v4.9h-12.3v62.4H1013.3z"/>
		<path class="st2" d="M1045.1,428.7v-9.1h6.4v9.1H1045.1z"/>
	</g>
</g>
</svg>
