<?xml version="1.0" standalone="no"?>
<!DOCTYPE svg PUBLIC "-//W3C//DTD SVG 20010904//EN"
 "http://www.w3.org/TR/2001/REC-SVG-20010904/DTD/svg10.dtd">
<svg version="1.0" xmlns="http://www.w3.org/2000/svg"
 width="500.000000pt" height="256.000000pt" viewBox="0 0 500.000000 256.000000"
 preserveAspectRatio="xMidYMid meet">
<metadata>
Created by potrace 1.16, written by Peter Selinger 2001-2019
</metadata>
<g transform="translate(0.000000,256.000000) scale(0.100000,-0.100000)"
fill="#000000" stroke="none">
<path d="M4985 2460 c-3 -5 -13 -10 -21 -10 -9 0 -41 -15 -73 -34 -48 -28
-147 -64 -296 -107 -16 -4 -45 -13 -64 -19 -22 -6 -38 -7 -46 0 -6 5 -14 7
-18 4 -3 -3 -15 -1 -26 6 -16 8 -31 7 -64 -4 -50 -17 -57 -14 -57 24 0 60 -25
50 -133 -54 -38 -36 -81 -72 -95 -79 -15 -6 -36 -31 -47 -54 -18 -39 -56 -72
-138 -121 -15 -9 -29 -24 -32 -33 -3 -8 -21 -21 -40 -29 -22 -9 -38 -23 -44
-42 -6 -15 -18 -31 -28 -35 -32 -12 -143 -137 -143 -161 0 -38 -93 -118 -241
-207 -9 -5 -45 -30 -80 -55 -77 -54 -96 -64 -174 -95 -226 -89 -251 -96 -413
-111 -86 -8 -184 -19 -217 -25 -66 -11 -88 -12 -125 -5 -14 2 -31 5 -38 5 -7
1 -11 5 -8 10 4 5 -4 7 -15 4 -14 -4 -25 0 -30 10 -5 9 -21 15 -37 15 -15 -1
-43 4 -62 10 -19 6 -55 16 -80 22 -64 15 -118 40 -170 75 -25 17 -64 42 -88
55 -23 13 -42 27 -42 32 0 4 -7 8 -16 8 -34 0 -71 32 -70 60 1 18 5 26 14 23
6 -3 12 -9 12 -14 0 -5 5 -9 10 -9 12 0 14 27 3 32 -5 2 -27 26 -50 54 -24 29
-58 59 -76 67 -18 9 -41 25 -52 37 -18 20 -18 20 3 20 12 0 22 5 22 10 0 7
-13 9 -33 5 -30 -6 -38 -2 -78 40 -53 56 -79 70 -142 78 -39 6 -56 3 -86 -15
l-38 -21 -56 32 c-55 31 -60 32 -130 26 -42 -4 -89 -3 -110 3 -24 7 -48 7 -74
0 -21 -6 -66 -13 -99 -15 -54 -4 -69 -1 -122 26 -65 33 -141 85 -206 141 -36
32 -166 127 -236 172 -14 9 -41 31 -60 49 -40 36 -105 79 -120 79 -7 0 -10
-381 -10 -1170 l0 -1170 2500 0 2500 0 0 1235 c0 679 -2 1235 -4 1235 -3 0 -8
-4 -11 -10z m-2585 -1268 c0 -8 132 -31 220 -38 175 -14 280 -29 314 -45 21
-9 45 -15 52 -12 23 8 25 -16 8 -99 -19 -97 -29 -113 -38 -64 -4 20 -11 36
-16 36 -6 0 -13 0 -17 0 -5 -1 -7 -12 -5 -25 2 -14 -1 -25 -7 -25 -6 0 -11 18
-11 40 0 22 -4 40 -10 40 -5 0 -10 -20 -10 -44 0 -25 -4 -48 -10 -51 -5 -3
-10 1 -10 9 0 21 -18 30 -35 16 -16 -13 -17 -12 -20 40 -3 50 -16 100 -26 100
-5 0 -9 -6 -10 -12 0 -10 -2 -10 -6 0 -8 21 -21 13 -33 -23 -6 -19 -16 -35
-21 -35 -6 0 -9 -8 -8 -17 2 -10 -2 -28 -9 -39 -6 -12 -9 -24 -6 -27 3 -3 1
-8 -5 -12 -7 -4 -11 7 -11 30 0 22 -4 34 -10 30 -5 -3 -10 -17 -10 -30 0 -13
-10 -39 -22 -59 -23 -35 -38 -45 -38 -26 0 20 -66 78 -80 70 -7 -4 -10 -15 -7
-24 3 -8 2 -18 -3 -21 -6 -4 -10 -1 -10 4 0 23 -18 10 -23 -16 -3 -16 -13 -37
-21 -48 -15 -20 -15 -20 -16 2 0 12 5 25 10 28 6 4 7 13 1 24 -5 9 -9 23 -9
31 4 61 -15 80 -32 35 -6 -15 -17 -25 -30 -25 -11 0 -20 -4 -20 -10 0 -5 5
-10 12 -10 6 0 2 -9 -10 -20 -21 -20 -26 -32 -23 -57 1 -8 -5 -10 -14 -7 -9 4
-14 13 -11 21 8 19 -4 63 -16 63 -5 0 -6 -4 -3 -10 9 -15 -2 -12 -31 6 -15 10
-23 23 -19 33 2 9 0 23 -5 31 -8 13 -10 12 -10 -2 0 -10 -4 -18 -10 -18 -6 0
-6 -9 0 -26 13 -33 14 -31 -16 -38 -23 -6 -26 -11 -22 -43 4 -30 2 -33 -6 -19
-6 10 -19 28 -29 40 -16 20 -18 20 -27 4 -13 -22 -45 -24 -37 -3 4 8 2 17 -3
20 -4 3 -11 -1 -13 -7 -3 -7 -6 -3 -6 9 -1 27 -19 40 -27 18 -6 -14 -8 -14
-20 2 -12 15 -15 16 -23 4 -7 -11 -11 -5 -16 25 -4 21 -9 45 -11 53 -5 15 -18
7 -20 -12 0 -7 -2 -25 -4 -42 l-2 -30 -11 28 c-13 33 -20 34 -37 2 -7 -14 -17
-25 -22 -25 -4 0 -8 -8 -9 -17 0 -14 -3 -13 -11 5 -13 26 -28 29 -28 5 0 -10
-9 0 -20 22 -24 47 -25 51 -5 35 12 -10 15 -10 16 1 1 8 2 19 4 24 1 6 3 15 4
20 1 6 19 30 41 55 25 28 39 52 36 63 -3 12 8 25 35 42 45 29 49 30 49 11 0
-15 80 -33 97 -23 5 3 35 7 66 8 31 1 57 6 57 11 0 4 4 8 8 8 18 0 4 -44 -16
-53 -28 -13 -28 -27 -2 -27 11 0 23 -7 26 -15 5 -12 9 -11 27 5 11 11 25 20
31 20 6 0 0 7 -12 16 -12 8 -19 20 -16 26 4 6 1 14 -6 18 -7 4 7 12 35 19 25
6 51 8 57 5 6 -4 8 -3 4 4 -4 7 6 12 26 15 18 2 36 5 41 5 4 1 7 -2 7 -6z"/>
</g>
</svg>
