<?xml version="1.0" standalone="no"?>
<!DOCTYPE svg PUBLIC "-//W3C//DTD SVG 20010904//EN"
 "http://www.w3.org/TR/2001/REC-SVG-20010904/DTD/svg10.dtd">
<svg version="1.0" xmlns="http://www.w3.org/2000/svg"
 width="300.000000pt" height="154.000000pt" viewBox="0 0 300.000000 154.000000"
 preserveAspectRatio="xMidYMid meet">
<metadata>
Created by potrace 1.10, written by Peter Selinger 2001-2011
</metadata>
<g transform="translate(0.000000,154.000000) scale(0.100000,-0.100000)"
fill="#000000" stroke="none">
<path d="M350 1529 c0 -5 5 -7 10 -4 6 3 23 -3 39 -14 33 -24 49 -27 32 -8 -6
8 -8 16 -5 20 3 3 -3 3 -14 0 -11 -2 -23 0 -26 6 -9 14 -36 14 -36 0z"/>
<path d="M691 1537 c2 -1 13 -9 24 -17 19 -14 19 -14 6 3 -7 9 -18 17 -24 17
-6 0 -8 -1 -6 -3z"/>
<path d="M1168 1533 c6 -2 18 -2 25 0 6 3 1 5 -13 5 -14 0 -19 -2 -12 -5z"/>
<path d="M1273 1524 c0 -17 29 -18 46 -1 11 10 14 10 18 0 6 -18 31 -16 50 2
13 14 8 15 -49 14 -48 -1 -65 -5 -65 -15z"/>
<path d="M1434 1531 c4 -6 2 -11 -3 -11 -6 0 -11 -4 -11 -10 0 -5 9 -10 21
-10 23 0 23 30 0 38 -8 3 -11 0 -7 -7z"/>
<path d="M1480 1530 c0 -6 11 -8 28 -4 39 10 40 14 4 14 -18 0 -32 -5 -32 -10z"/>
<path d="M1563 1533 c9 -2 25 -2 35 0 9 3 1 5 -18 5 -19 0 -27 -2 -17 -5z"/>
<path d="M1623 1521 c-3 -12 -11 -17 -19 -14 -18 7 -18 -5 1 -23 12 -13 17
-12 35 3 19 16 19 18 3 24 -16 6 -15 8 7 17 l25 11 -23 0 c-16 1 -26 -6 -29
-18z"/>
<path d="M1703 1533 c9 -2 23 -2 30 0 6 3 -1 5 -18 5 -16 0 -22 -2 -12 -5z"/>
<path d="M1789 1531 c-6 -2 2 -9 16 -17 28 -14 53 -19 42 -7 -4 3 -2 12 4 19
9 11 4 13 -20 11 -17 -1 -36 -4 -42 -6z"/>
<path d="M1926 1503 c-4 -24 -11 -43 -15 -43 -10 0 -34 -51 -27 -57 7 -7 46
16 46 27 0 6 7 10 15 10 8 0 15 9 15 19 0 11 5 23 10 26 6 3 10 15 10 25 0 10
8 21 18 23 14 4 13 5 -3 6 -26 1 -45 -16 -46 -43 -1 -12 -5 -5 -8 14 l-7 35
-8 -42z"/>
<path d="M2080 1536 c0 -9 37 -12 55 -5 15 6 11 8 -17 8 -21 1 -38 -1 -38 -3z"/>
<path d="M2213 1533 c-13 -2 -23 -10 -23 -18 0 -15 28 -10 70 12 l25 13 -25
-1 c-14 -1 -35 -4 -47 -6z"/>
<path d="M2323 1533 c-15 -5 -17 -23 -4 -23 5 0 11 7 15 15 3 8 4 15 3 14 -1
0 -8 -3 -14 -6z"/>
<path d="M2445 1529 c-12 -19 5 -23 22 -6 16 16 16 17 1 17 -9 0 -20 -5 -23
-11z"/>
<path d="M648 1518 c5 -5 16 -8 23 -6 8 3 3 7 -10 11 -17 4 -21 3 -13 -5z"/>
<path d="M1890 1523 c-8 -3 -23 -14 -33 -24 -17 -18 -17 -19 5 -16 13 1 31 11
41 21 24 27 21 32 -13 19z"/>
<path d="M2361 1514 c-11 -13 -10 -16 9 -21 14 -4 19 -11 15 -22 -5 -12 -4
-13 6 -4 10 10 9 15 -1 28 -10 12 -10 15 4 15 9 0 16 5 16 10 0 15 -33 11 -49
-6z"/>
<path d="M1228 1513 c6 -2 18 -2 25 0 6 3 1 5 -13 5 -14 0 -19 -2 -12 -5z"/>
<path d="M1685 1510 c-3 -5 1 -10 10 -10 9 0 13 5 10 10 -3 6 -8 10 -10 10 -2
0 -7 -4 -10 -10z"/>
<path d="M2495 1503 c-19 -11 -25 -18 -16 -21 7 -2 17 1 21 7 3 7 20 16 36 21
20 6 23 8 9 9 -11 0 -33 -7 -50 -16z"/>
<path d="M1765 1481 c-13 -26 -13 -31 -1 -31 7 0 16 12 19 28 7 38 1 39 -18 3z"/>
<path d="M2242 1492 c-23 -10 -49 -28 -58 -40 -20 -29 -9 -28 32 3 18 14 37
25 41 24 13 -3 43 12 43 22 0 12 -8 11 -58 -9z"/>
<path d="M2724 1500 c-12 -5 -25 -13 -28 -19 -5 -8 49 14 63 26 8 6 -14 2 -35
-7z"/>
<path d="M2825 1495 c-22 -8 -41 -15 -42 -15 -2 0 -3 -5 -3 -11 0 -6 11 -5 28
4 15 8 38 20 52 25 38 16 11 13 -35 -3z"/>
<path d="M2012 1475 c-1 -17 3 -25 14 -25 10 0 14 7 12 22 -4 31 -23 33 -26 3z"/>
<path d="M2425 1490 c-3 -5 -2 -10 4 -10 5 0 13 5 16 10 3 6 2 10 -4 10 -5 0
-13 -4 -16 -10z"/>
<path d="M2544 1485 c-10 -8 -14 -14 -9 -15 15 0 40 18 34 24 -3 3 -14 -1 -25
-9z"/>
<path d="M1380 1482 c0 -4 9 -8 20 -9 11 -1 18 2 15 8 -7 11 -35 12 -35 1z"/>
<path d="M1704 1484 c-13 -5 -6 -64 8 -64 5 0 6 -4 3 -10 -3 -5 -1 -10 5 -10
8 0 9 6 4 18 -4 9 -7 29 -6 45 1 15 0 27 -1 26 -1 0 -7 -3 -13 -5z"/>
<path d="M2153 1478 c2 -7 10 -13 17 -13 7 0 15 6 18 13 2 7 -5 12 -18 12 -13
0 -20 -5 -17 -12z"/>
<path d="M2620 1475 c-7 -8 -18 -15 -25 -15 -7 0 -16 -7 -19 -15 -5 -14 -1
-13 24 1 16 10 32 24 34 31 7 17 1 16 -14 -2z"/>
<path d="M450 1474 c0 -9 32 -33 44 -34 5 0 -1 9 -14 20 -25 21 -30 24 -30 14z"/>
<path d="M1437 1473 c-12 -12 -7 -21 14 -26 17 -5 18 -3 7 11 -7 9 -13 18 -14
20 0 1 -4 -1 -7 -5z"/>
<path d="M2320 1465 c-14 -16 -3 -20 19 -6 8 5 9 11 3 15 -5 3 -15 -1 -22 -9z"/>
<path d="M2925 1450 c-98 -47 -222 -82 -246 -69 -15 7 -29 7 -51 0 -40 -14
-38 -15 -38 14 0 14 -4 25 -8 25 -10 0 -97 -78 -192 -175 -19 -19 -40 -35 -45
-35 -6 0 -16 -9 -23 -20 -7 -11 -19 -20 -27 -20 -8 0 -15 -4 -15 -9 0 -5 -22
-31 -50 -57 -27 -26 -52 -56 -56 -68 -3 -12 -14 -29 -23 -40 -22 -25 -217
-155 -261 -174 -105 -44 -202 -70 -282 -77 -48 -3 -102 -10 -120 -16 -42 -12
-51 -11 -43 1 7 12 -2 12 -30 0 -14 -6 -15 -9 -5 -10 8 -1 38 -5 65 -11 41 -8
175 -26 295 -41 35 -4 38 -11 27 -73 -11 -56 -27 -75 -27 -30 0 14 -4 25 -10
25 -5 0 -10 -19 -10 -42 0 -31 3 -39 10 -28 7 12 13 13 28 4 14 -9 18 -8 18 5
0 9 4 44 7 78 l7 62 -53 15 c-47 13 -151 27 -201 27 -10 0 -15 3 -11 7 3 4 39
8 78 9 77 3 137 18 137 35 0 6 9 8 20 5 11 -3 20 -2 20 2 0 4 29 18 65 30 36
13 68 27 71 32 3 5 10 6 16 3 6 -4 8 -2 5 3 -4 6 4 14 18 17 13 3 29 15 35 26
6 11 16 18 21 14 6 -3 19 2 29 11 10 9 24 14 31 9 8 -4 10 -3 5 5 -4 7 4 18
22 28 29 17 69 70 64 86 -1 4 3 7 8 7 6 0 10 5 10 11 0 15 26 39 35 31 4 -4 5
-2 3 4 -1 7 1 12 6 12 5 0 16 12 26 27 10 15 21 25 24 23 4 -2 12 5 17 15 6 9
16 14 22 11 7 -4 9 -4 5 1 -4 4 12 20 37 36 24 15 51 42 60 58 8 17 19 31 24
31 4 0 29 20 55 45 36 35 48 42 52 30 3 -8 12 -15 20 -15 8 0 14 -6 14 -12 0
-9 4 -8 10 2 5 8 10 11 10 6 0 -6 5 -5 12 2 14 14 32 16 24 4 -3 -5 7 -8 22
-6 15 1 27 3 27 4 0 1 11 3 25 4 14 2 35 8 48 15 12 7 36 14 52 16 35 4 160
64 160 76 0 14 -11 11 -75 -21z"/>
<path d="M2465 1460 c3 -5 14 -10 23 -10 15 0 15 2 2 10 -20 13 -33 13 -25 0z"/>
<path d="M1187 1450 c13 -5 20 -15 18 -23 -6 -15 38 -18 52 -3 5 5 3 6 -4 2
-7 -4 -22 2 -35 13 -12 12 -29 21 -37 20 -10 0 -8 -4 6 -9z"/>
<path d="M1828 1453 c7 -3 16 -2 19 1 4 3 -2 6 -13 5 -11 0 -14 -3 -6 -6z"/>
<path d="M1568 1443 c7 -3 16 -2 19 1 4 3 -2 6 -13 5 -11 0 -14 -3 -6 -6z"/>
<path d="M1610 1446 c0 -2 7 -7 16 -10 8 -3 12 -2 9 4 -6 10 -25 14 -25 6z"/>
<path d="M1730 1441 c0 -6 4 -13 10 -16 6 -3 7 1 4 9 -7 18 -14 21 -14 7z"/>
<path d="M2670 1431 c0 -12 3 -12 12 -3 14 14 32 16 24 3 -4 -5 3 -7 14 -4 32
9 23 21 -15 20 -24 -1 -35 -6 -35 -16z"/>
<path d="M521 1424 c0 -11 3 -14 6 -6 3 7 2 16 -1 19 -3 4 -6 -2 -5 -13z"/>
<path d="M1400 1430 c-8 -5 -10 -10 -5 -10 6 0 17 5 25 10 8 5 11 10 5 10 -5
0 -17 -5 -25 -10z"/>
<path d="M1804 1426 c-3 -8 -3 -19 0 -25 3 -5 0 -16 -8 -24 -8 -8 -12 -23 -10
-35 3 -11 1 -23 -5 -26 -12 -8 -3 -36 11 -36 6 0 8 7 4 15 -3 8 1 21 9 29 11
11 12 16 2 20 -6 4 -2 4 10 2 15 -3 20 0 16 10 -3 8 -8 12 -12 10 -10 -6 -7
48 3 55 4 4 3 10 -3 13 -6 4 -14 0 -17 -8z"/>
<path d="M2250 1429 c-12 -9 -11 -10 8 -6 12 3 22 1 22 -4 0 -15 17 -10 24 6
7 18 -31 21 -54 4z"/>
<path d="M2490 1429 c0 -5 5 -7 10 -4 6 3 10 8 10 11 0 2 -4 4 -10 4 -5 0 -10
-5 -10 -11z"/>
<path d="M2530 1430 c-12 -7 -10 -9 7 -7 12 0 19 5 17 9 -6 10 -6 10 -24 -2z"/>
<path d="M2340 1420 c0 -6 7 -10 15 -10 8 0 15 2 15 4 0 2 -7 6 -15 10 -8 3
-15 1 -15 -4z"/>
<path d="M2457 1421 c-17 -6 -16 -8 7 -19 26 -12 32 -7 18 14 -4 6 -15 8 -25
5z"/>
<path d="M2620 1420 c-12 -8 -10 -10 8 -10 13 0 20 4 17 10 -7 12 -6 12 -25 0z"/>
<path d="M1320 1409 c0 -5 5 -7 10 -4 6 3 10 8 10 11 0 2 -4 4 -10 4 -5 0 -10
-5 -10 -11z"/>
<path d="M2393 1406 c-6 -7 -8 -18 -4 -25 5 -8 11 -3 19 14 12 27 5 33 -15 11z"/>
<path d="M0 1394 c0 -8 5 -14 10 -14 6 0 29 -18 50 -39 22 -22 40 -37 40 -35
0 2 11 -3 25 -12 14 -9 22 -20 19 -25 -3 -5 -2 -9 3 -8 20 3 54 -15 49 -27 -3
-9 0 -11 11 -7 9 3 21 0 27 -8 6 -8 28 -25 48 -39 21 -14 38 -28 38 -32 0 -9
56 -39 67 -36 4 1 26 -6 47 -15 22 -10 44 -16 50 -13 6 2 0 8 -14 14 l-25 11
30 2 c100 7 193 3 222 -10 28 -12 31 -17 22 -35 -9 -18 -8 -19 3 -6 48 57 103
56 162 -4 20 -19 49 -43 64 -51 15 -8 38 -23 52 -32 21 -13 20 -12 -4 10 -16
15 -37 29 -47 32 -11 4 -19 12 -20 18 -1 21 -77 79 -113 87 -25 6 -41 3 -57
-8 -20 -14 -25 -13 -56 4 -40 21 -137 26 -224 12 -49 -9 -61 -7 -99 12 -40 20
-195 133 -295 213 -57 46 -85 60 -85 41z"/>
<path d="M1757 1403 c-4 -3 -7 -13 -7 -22 1 -13 3 -13 11 2 11 19 8 33 -4 20z"/>
<path d="M1852 1403 c-10 -4 -10 -8 -1 -19 15 -18 29 -18 29 0 0 18 -11 25
-28 19z"/>
<path d="M470 1389 c0 -5 5 -7 10 -4 6 3 10 8 10 11 0 2 -4 4 -10 4 -5 0 -10
-5 -10 -11z"/>
<path d="M1263 1390 c-32 -13 -29 -17 7 -12 16 2 27 8 24 13 -3 5 -6 9 -7 8
-1 0 -12 -4 -24 -9z"/>
<path d="M1910 1380 c-9 -16 -8 -20 5 -20 8 0 15 6 15 14 0 8 6 17 13 19 7 3
5 6 -5 6 -10 1 -22 -8 -28 -19z"/>
<path d="M2188 1389 c-10 -5 -23 -19 -29 -31 -10 -18 -6 -17 25 7 20 15 36 29
36 31 0 7 -14 4 -32 -7z"/>
<path d="M2256 1384 c-20 -20 -21 -19 9 -20 20 -2 23 1 15 11 -8 10 -7 14 7
18 15 4 16 5 1 6 -9 0 -24 -6 -32 -15z"/>
<path d="M1333 1360 c14 -11 29 -20 33 -20 4 0 -1 9 -11 20 -10 11 -25 20 -33
20 -9 0 -6 -7 11 -20z"/>
<path d="M868 1363 c7 -3 16 -2 19 1 4 3 -2 6 -13 5 -11 0 -14 -3 -6 -6z"/>
<path d="M1655 1354 c-32 -15 -23 -14 50 6 28 7 28 8 5 9 -14 0 -38 -6 -55
-15z"/>
<path d="M1850 1350 c0 -5 5 -10 11 -10 5 0 7 5 4 10 -3 6 -8 10 -11 10 -2 0
-4 -4 -4 -10z"/>
<path d="M2100 1349 c0 -5 5 -7 10 -4 6 3 10 8 10 11 0 2 -4 4 -10 4 -5 0 -10
-5 -10 -11z"/>
<path d="M1287 1337 c-3 -8 3 -13 14 -13 11 0 19 6 19 13 0 7 -6 13 -14 13 -8
0 -16 -6 -19 -13z"/>
<path d="M1873 1320 c-18 -11 -33 -22 -33 -25 0 -7 53 18 68 32 20 19 1 15
-35 -7z"/>
<path d="M1398 1323 c7 -3 16 -2 19 1 4 3 -2 6 -13 5 -11 0 -14 -3 -6 -6z"/>
<path d="M1490 1321 c0 -7 -4 -9 -10 -6 -5 3 -10 2 -10 -4 0 -5 4 -12 9 -15
10 -6 25 24 16 32 -3 3 -5 0 -5 -7z"/>
<path d="M1930 1320 c-9 -6 -10 -10 -3 -10 6 0 15 5 18 10 8 12 4 12 -15 0z"/>
<path d="M2210 1320 c-8 -5 -12 -11 -9 -14 3 -3 14 1 25 9 21 16 8 20 -16 5z"/>
<path d="M2016 1312 c-3 -5 1 -9 9 -9 8 0 12 4 9 9 -3 4 -7 8 -9 8 -2 0 -6 -4
-9 -8z"/>
<path d="M1336 1293 c-4 -9 -4 -18 -1 -21 3 -3 5 0 5 6 0 6 8 12 18 14 15 3
16 4 0 10 -10 4 -19 1 -22 -9z"/>
<path d="M2240 1300 c-12 -8 -11 -10 5 -9 11 1 31 5 45 9 24 8 24 8 -5 9 -16
0 -37 -4 -45 -9z"/>
<path d="M2095 1290 c-3 -5 -1 -10 4 -10 6 0 11 5 11 10 0 6 -2 10 -4 10 -3 0
-8 -4 -11 -10z"/>
<path d="M2365 1280 c-3 -5 -1 -10 4 -10 6 0 11 5 11 10 0 6 -2 10 -4 10 -3 0
-8 -4 -11 -10z"/>
<path d="M1486 1272 c-2 -4 4 -9 15 -9 10 -1 19 2 19 8 0 11 -27 12 -34 1z"/>
<path d="M1939 1253 c-13 -15 -12 -15 9 -4 23 12 28 21 13 21 -5 0 -15 -7 -22
-17z"/>
<path d="M2235 1260 c-7 -12 2 -12 30 0 19 8 19 9 -2 9 -12 1 -25 -3 -28 -9z"/>
<path d="M2320 1253 c-13 -15 -12 -16 4 -10 10 4 22 7 27 7 6 0 7 5 4 10 -9
14 -18 12 -35 -7z"/>
<path d="M1803 1245 c0 -18 19 -15 25 3 2 7 -3 12 -10 12 -8 0 -15 -7 -15 -15z"/>
<path d="M2983 1253 c-17 -6 -17 -23 0 -23 8 0 14 7 14 15 0 8 -1 15 -1 14 -1
0 -7 -3 -13 -6z"/>
<path d="M1650 1246 c0 -2 7 -7 16 -10 8 -3 12 -2 9 4 -6 10 -25 14 -25 6z"/>
<path d="M2974 1210 c-26 -10 -40 -30 -22 -30 17 0 55 26 48 33 -3 3 -15 1
-26 -3z"/>
<path d="M1790 1179 c0 -5 5 -7 10 -4 6 3 10 8 10 11 0 2 -4 4 -10 4 -5 0 -10
-5 -10 -11z"/>
<path d="M1810 1150 c0 -5 5 -10 10 -10 6 0 10 5 10 10 0 6 -4 10 -10 10 -5 0
-10 -4 -10 -10z"/>
<path d="M2985 1131 c-3 -5 -1 -12 5 -16 5 -3 10 1 10 9 0 18 -6 21 -15 7z"/>
<path d="M1735 1110 c-3 -6 1 -7 9 -4 18 7 21 14 7 14 -6 0 -13 -4 -16 -10z"/>
<path d="M2930 1100 c0 -21 6 -25 37 -28 26 -3 33 1 33 13 0 12 -6 16 -19 12
-10 -2 -26 0 -35 5 -10 6 -16 5 -16 -2z"/>
<path d="M515 1068 c11 -6 28 -18 38 -26 10 -9 17 -11 17 -4 0 6 -13 18 -30
27 -33 17 -56 20 -25 3z"/>
<path d="M947 1063 c-14 -14 -6 -24 14 -18 25 8 101 -14 93 -26 -3 -5 2 -9 10
-9 9 0 16 -4 16 -10 0 -10 77 -35 97 -32 12 3 38 -28 65 -77 9 -17 25 -31 34
-31 16 0 16 1 2 13 -9 6 -26 31 -38 55 -26 50 -58 76 -75 62 -7 -5 -15 -6 -19
-2 -8 7 -12 8 -40 11 -7 0 -16 9 -19 20 -3 12 -17 21 -41 25 -20 4 -36 11 -36
16 0 11 -53 14 -63 3z"/>
<path d="M2973 1035 c0 -14 5 -25 12 -25 8 0 10 9 7 25 -2 14 -8 25 -12 25 -4
0 -7 -11 -7 -25z"/>
<path d="M580 1009 c0 -5 5 -7 10 -4 6 3 10 8 10 11 0 2 -4 4 -10 4 -5 0 -10
-5 -10 -11z"/>
<path d="M160 996 c0 -2 7 -7 16 -10 8 -3 12 -2 9 4 -6 10 -25 14 -25 6z"/>
<path d="M2980 970 c0 -5 5 -10 11 -10 5 0 7 5 4 10 -3 6 -8 10 -11 10 -2 0
-4 -4 -4 -10z"/>
<path d="M2930 961 c0 -8 45 -31 60 -31 23 0 7 18 -25 27 -19 6 -35 8 -35 4z"/>
<path d="M2880 950 c0 -5 7 -10 16 -10 8 0 12 5 9 10 -3 6 -10 10 -16 10 -5 0
-9 -4 -9 -10z"/>
<path d="M2920 935 c0 -3 7 -14 16 -23 15 -14 16 -14 13 3 -4 17 -29 35 -29
20z"/>
<path d="M2265 920 c-3 -6 1 -7 9 -4 18 7 21 14 7 14 -6 0 -13 -4 -16 -10z"/>
<path d="M2840 920 c0 -5 5 -10 12 -10 6 0 8 -3 4 -7 -4 -4 -15 -8 -23 -8 -9
0 -19 -7 -21 -15 -5 -13 -3 -13 11 -1 10 7 17 10 17 6 0 -4 6 -2 13 4 8 6 16
8 19 5 3 -2 8 2 12 11 3 9 2 13 -3 10 -5 -3 -12 -1 -16 5 -8 13 -25 13 -25 0z"/>
<path d="M1313 908 c-13 -6 -23 -15 -23 -20 0 -5 13 -2 30 7 38 20 130 3 130
-23 0 -20 57 -84 89 -102 41 -21 31 -4 -19 34 -36 28 -51 47 -56 71 -5 28 -11
33 -42 39 -51 8 -83 6 -109 -6z"/>
<path d="M2910 895 c-1 -5 -2 -13 -1 -17 0 -5 -11 -8 -26 -8 -21 0 -24 -3 -13
-10 8 -5 20 -5 28 -1 22 12 61 1 67 -20 6 -17 35 -16 35 2 0 4 -7 6 -15 3 -8
-4 -15 -1 -15 4 0 6 8 13 18 16 14 4 14 5 -3 4 -44 -1 -56 2 -49 14 4 6 3 8
-4 4 -5 -3 -13 0 -15 6 -3 7 -6 9 -7 3z"/>
<path d="M1026 881 c-3 -5 1 -11 9 -14 9 -4 12 -1 8 9 -6 16 -10 17 -17 5z"/>
<path d="M2700 880 c0 -5 -11 -12 -25 -16 -14 -3 -25 -10 -25 -14 0 -13 54
-19 65 -8 7 8 6 9 -3 4 -10 -6 -11 -1 -6 18 3 14 3 26 0 26 -3 0 -6 -4 -6 -10z"/>
<path d="M1070 860 c0 -10 70 -43 76 -37 3 2 -13 13 -36 24 -22 11 -40 17 -40
13z"/>
<path d="M2827 864 c-13 -13 -7 -24 13 -24 21 0 45 -34 35 -50 -7 -11 22 -26
32 -16 3 3 -2 15 -12 26 -18 20 -18 20 11 18 16 -1 35 -6 42 -11 7 -6 15 -7
19 -3 3 3 1 6 -5 6 -7 0 -12 7 -12 16 0 11 -6 14 -21 9 -15 -5 -19 -4 -14 5 6
9 2 9 -16 0 -17 -10 -24 -10 -27 -1 -2 6 -10 11 -17 11 -7 0 -15 5 -17 11 -2
5 -7 7 -11 3z"/>
<path d="M1680 838 c-12 -22 -12 -22 6 -6 10 10 15 20 12 24 -4 3 -12 -5 -18
-18z"/>
<path d="M2750 838 c0 -19 2 -20 10 -8 13 19 13 30 0 30 -5 0 -10 -10 -10 -22z"/>
<path d="M40 840 c-13 -8 -12 -10 3 -10 9 0 17 5 17 10 0 12 -1 12 -20 0z"/>
<path d="M2410 840 c-8 -5 -10 -10 -5 -10 6 0 17 5 25 10 8 5 11 10 5 10 -5 0
-17 -5 -25 -10z"/>
<path d="M1310 836 c0 -3 9 -10 20 -16 11 -6 20 -8 20 -6 0 3 -9 10 -20 16
-11 6 -20 8 -20 6z"/>
<path d="M2777 822 c-10 -10 -17 -25 -16 -33 0 -8 4 -6 9 6 5 11 9 15 9 9 1
-14 39 -25 46 -14 7 11 -20 32 -29 23 -4 -4 -4 0 0 10 8 22 1 22 -19 -1z"/>
<path d="M2658 823 c-9 -2 -20 -13 -23 -24 -4 -10 -13 -26 -21 -34 -9 -8 -14
-23 -11 -33 3 -13 6 -11 15 11 10 23 16 27 33 22 15 -5 19 -4 15 4 -5 7 3 11
23 11 36 0 61 9 61 22 0 7 -4 7 -12 1 -14 -11 -63 9 -51 20 7 7 -2 7 -29 0z
m27 -23 c17 -7 14 -9 -13 -9 -20 -1 -31 3 -27 9 7 12 13 12 40 0z"/>
<path d="M15 810 c11 -5 27 -9 35 -9 9 0 8 4 -5 9 -11 5 -27 9 -35 9 -9 0 -8
-4 5 -9z"/>
<path d="M1160 810 c0 -5 5 -10 10 -10 6 0 10 5 10 10 0 6 -4 10 -10 10 -5 0
-10 -4 -10 -10z"/>
<path d="M2430 790 c0 -16 -5 -30 -11 -30 -5 0 -7 -5 -4 -10 5 -8 11 -7 21 1
16 13 19 69 4 69 -5 0 -10 -13 -10 -30z"/>
<path d="M2500 786 c0 -8 -4 -18 -10 -21 -6 -4 -7 1 -3 11 4 11 2 15 -7 12
-24 -8 -21 -24 5 -36 34 -16 32 -17 33 18 0 17 -4 30 -9 30 -5 0 -9 -6 -9 -14z"/>
<path d="M1 774 c0 -11 3 -14 6 -6 3 7 2 16 -1 19 -3 4 -6 -2 -5 -13z"/>
<path d="M2391 782 c-1 -7 -5 -11 -10 -8 -11 7 -41 -26 -46 -53 -2 -11 -2 -21
1 -21 9 0 36 30 27 30 -4 1 3 9 15 20 13 11 21 25 19 32 -4 10 -6 10 -6 0z"/>
<path d="M28 773 c6 -2 18 -2 25 0 6 3 1 5 -13 5 -14 0 -19 -2 -12 -5z"/>
<path d="M215 770 c3 -5 11 -10 16 -10 6 0 7 5 4 10 -3 6 -11 10 -16 10 -6 0
-7 -4 -4 -10z"/>
<path d="M1960 776 c0 -2 7 -7 16 -10 8 -3 12 -2 9 4 -6 10 -25 14 -25 6z"/>
<path d="M2253 762 c-4 -9 -9 -19 -12 -22 -6 -5 -41 -78 -41 -85 0 -3 7 -5 16
-5 11 0 15 6 11 20 -3 11 -1 20 4 20 5 0 9 8 9 18 1 14 4 13 20 -7 19 -22 20
-22 20 -3 0 12 -4 24 -10 27 -5 3 -10 15 -10 26 0 16 5 19 20 14 11 -3 20 -3
20 2 0 16 -41 12 -47 -5z"/>
<path d="M2563 773 c-7 -2 -13 -11 -13 -19 0 -12 4 -12 20 -4 32 17 26 37 -7
23z"/>
<path d="M2937 760 c3 -11 9 -20 15 -20 5 0 4 9 -2 20 -6 11 -12 20 -14 20 -2
0 -2 -9 1 -20z"/>
<path d="M176 762 c-2 -4 4 -8 14 -8 10 0 16 4 14 8 -3 4 -9 8 -14 8 -5 0 -11
-4 -14 -8z"/>
<path d="M2170 759 c0 -5 -4 -7 -10 -4 -5 3 -10 1 -10 -4 0 -6 -5 -11 -11 -11
-20 0 -56 -35 -51 -49 3 -8 -3 -20 -12 -26 -9 -7 -18 -27 -21 -46 l-5 -34 15
33 c8 17 23 32 32 32 12 0 14 -3 6 -11 -11 -11 -6 -52 6 -44 8 4 6 53 -3 91
-6 21 -1 27 31 42 21 9 40 20 43 23 3 3 12 9 20 12 10 4 8 6 -7 6 -13 1 -23
-4 -23 -10z"/>
<path d="M2310 744 c0 -14 4 -23 10 -19 6 3 10 15 10 26 0 10 -4 19 -10 19 -5
0 -10 -12 -10 -26z"/>
<path d="M2692 753 c-29 -12 -45 -43 -22 -43 5 0 7 7 4 15 -4 10 0 15 12 15
11 1 33 7 49 14 40 19 2 17 -43 -1z"/>
<path d="M250 752 c0 -6 9 -12 20 -15 11 -3 20 -3 20 -1 0 2 -9 8 -20 14 -11
6 -20 7 -20 2z"/>
<path d="M480 756 c0 -2 9 -6 20 -9 11 -3 18 -1 14 4 -5 9 -34 13 -34 5z"/>
<path d="M1358 753 c7 -3 16 -2 19 1 4 3 -2 6 -13 5 -11 0 -14 -3 -6 -6z"/>
<path d="M2831 746 c-9 -10 -8 -15 4 -20 8 -3 15 -1 15 5 0 6 5 7 10 4 6 -4 8
-11 5 -16 -6 -8 -1 -10 38 -13 6 -1 11 7 9 17 -2 9 3 17 9 17 7 0 10 3 7 6 -4
3 -15 1 -26 -5 -14 -7 -24 -6 -39 4 -18 12 -23 12 -32 1z"/>
<path d="M460 730 c6 -11 16 -20 22 -20 6 0 3 9 -7 20 -10 11 -20 20 -22 20
-2 0 1 -9 7 -20z"/>
<path d="M538 738 c5 -5 16 -8 23 -6 8 3 3 7 -10 11 -17 4 -21 3 -13 -5z"/>
<path d="M991 746 c2 -2 18 -7 34 -10 113 -22 117 -24 65 -38 -7 -3 -10 -7 -5
-10 16 -8 77 12 73 24 -3 7 -31 17 -64 24 -59 13 -111 18 -103 10z"/>
<path d="M2755 740 c-3 -6 1 -7 9 -4 18 7 21 14 7 14 -6 0 -13 -4 -16 -10z"/>
<path d="M227 729 c7 -7 15 -10 18 -7 3 3 -2 9 -12 12 -14 6 -15 5 -6 -5z"/>
<path d="M330 736 c0 -2 12 -11 26 -21 17 -11 25 -12 22 -4 -4 11 -48 34 -48
25z"/>
<path d="M175 717 c-10 -7 -25 -17 -32 -23 -6 -6 -30 -10 -53 -9 -45 2 -62
-10 -28 -21 13 -4 24 -2 26 5 2 6 8 11 13 11 4 0 6 -7 3 -15 -5 -12 3 -15 41
-15 28 0 44 -4 40 -10 -3 -5 -1 -10 5 -10 6 0 9 -3 6 -8 -2 -4 2 -18 9 -32 13
-24 13 -24 10 14 -4 42 -17 56 -52 56 -12 0 -25 5 -29 11 -5 9 2 10 22 6 16
-3 23 -4 16 -1 -9 4 -4 13 15 30 29 25 22 32 -12 11z"/>
<path d="M420 705 c-7 -14 -16 -25 -20 -25 -3 0 -7 -14 -8 -31 -3 -31 12 -59
30 -59 6 0 6 6 -1 14 -14 17 -2 78 14 74 6 -2 9 -9 8 -16 -1 -9 6 -12 18 -9
10 3 19 1 19 -4 0 -5 5 -9 10 -9 21 0 9 20 -21 36 -23 11 -30 21 -26 35 7 27
-7 24 -23 -6z"/>
<path d="M620 720 c8 -5 20 -10 25 -10 6 0 3 5 -5 10 -8 5 -19 10 -25 10 -5 0
-3 -5 5 -10z"/>
<path d="M685 721 c-3 -6 -3 -11 2 -11 4 0 13 -11 19 -24 9 -20 9 -26 -2 -30
-9 -3 -14 2 -14 14 0 11 -4 20 -9 20 -5 0 -16 3 -25 6 -9 3 -16 1 -16 -5 0 -6
6 -11 14 -11 8 0 17 -7 20 -16 11 -28 7 -37 -11 -23 -15 12 -16 12 -10 -4 4
-10 7 -20 7 -23 0 -2 6 -1 13 2 8 3 13 -4 14 -17 2 -27 27 -45 31 -24 2 8 8
15 13 15 6 0 7 -6 3 -12 -5 -9 -2 -9 9 1 9 7 17 21 17 30 1 14 2 14 11 -2 13
-22 29 -13 22 13 -8 31 -43 26 -43 -6 0 -15 -4 -23 -10 -19 -6 4 -17 2 -24 -4
-19 -16 -27 30 -9 47 7 7 13 9 13 5 0 -4 5 -1 10 7 12 19 13 53 1 45 -5 -3
-16 4 -24 16 -9 13 -17 16 -22 10z"/>
<path d="M1985 720 c3 -5 11 -10 16 -10 6 0 7 5 4 10 -3 6 -11 10 -16 10 -6 0
-7 -4 -4 -10z"/>
<path d="M260 709 c0 -5 5 -7 10 -4 6 3 10 8 10 11 0 2 -4 4 -10 4 -5 0 -10
-5 -10 -11z"/>
<path d="M2560 700 c0 -11 5 -20 11 -20 6 0 7 6 2 13 -4 6 5 4 19 -5 17 -11
29 -14 33 -8 3 6 0 10 -8 10 -8 0 -20 7 -27 15 -17 21 -30 19 -30 -5z"/>
<path d="M2759 715 c-5 -4 -40 -12 -63 -14 -5 -1 -3 -7 3 -14 6 -8 8 -17 4
-20 -3 -4 -1 -7 5 -7 6 0 14 9 17 20 6 17 29 26 58 21 5 -1 6 3 2 9 -7 11 -19
13 -26 5z"/>
<path d="M2810 705 c0 -8 4 -15 8 -15 5 0 9 7 9 15 0 8 -4 15 -9 15 -4 0 -8
-7 -8 -15z"/>
<path d="M2943 709 c10 -6 23 -6 33 -1 12 7 8 9 -18 10 -26 1 -30 -1 -15 -9z"/>
<path d="M28 703 c7 -3 16 -2 19 1 4 3 -2 6 -13 5 -11 0 -14 -3 -6 -6z"/>
<path d="M303 703 c9 -2 23 -2 30 0 6 3 -1 5 -18 5 -16 0 -22 -2 -12 -5z"/>
<path d="M1285 701 c3 -6 -14 -12 -37 -14 l-43 -4 48 -1 c36 -2 47 2 47 13 0
8 -5 15 -11 15 -5 0 -8 -4 -4 -9z"/>
<path d="M1385 700 c-3 -6 1 -7 9 -4 18 7 21 14 7 14 -6 0 -13 -4 -16 -10z"/>
<path d="M2056 694 c-4 -9 -4 -19 -1 -22 2 -3 7 3 11 12 4 9 4 19 1 22 -2 3
-7 -3 -11 -12z"/>
<path d="M2132 668 c1 -24 8 -50 16 -58 14 -13 15 -12 10 12 -3 15 -1 25 3 22
12 -7 11 9 -1 40 -15 40 -30 31 -28 -16z m15 0 c-3 -7 -5 -2 -5 12 0 14 2 19
5 13 2 -7 2 -19 0 -25z"/>
<path d="M2516 694 c-8 -22 -4 -25 11 -9 7 8 9 16 4 19 -5 3 -12 -1 -15 -10z"/>
<path d="M2640 701 c0 -5 5 -13 10 -16 6 -3 10 -2 10 4 0 5 -4 13 -10 16 -5 3
-10 2 -10 -4z"/>
<path d="M2843 694 c0 -6 6 -10 13 -7 6 2 15 0 19 -6 7 -13 25 -15 25 -3 0 4
-13 12 -28 18 -22 9 -29 8 -29 -2z"/>
<path d="M1045 690 c-16 -7 -17 -9 -3 -9 9 -1 20 4 23 9 7 11 7 11 -20 0z"/>
<path d="M2425 691 c-3 -5 -1 -12 5 -16 5 -3 10 1 10 9 0 18 -6 21 -15 7z"/>
<path d="M2668 678 c-3 -17 -1 -25 5 -21 6 4 8 0 4 -10 -3 -10 -3 -17 2 -17
14 0 21 13 12 24 -5 6 -11 20 -13 31 -3 17 -5 15 -10 -7z"/>
<path d="M575 680 c-3 -6 1 -7 9 -4 18 7 21 14 7 14 -6 0 -13 -4 -16 -10z"/>
<path d="M1325 680 c3 -6 -4 -14 -17 -19 -17 -7 -19 -10 -5 -10 9 -1 17 -5 17
-10 0 -5 10 -4 23 2 22 10 23 11 5 29 -19 19 -33 24 -23 8z"/>
<path d="M253 673 c9 -2 25 -2 35 0 9 3 1 5 -18 5 -19 0 -27 -2 -17 -5z"/>
<path d="M318 673 c7 -3 16 -2 19 1 4 3 -2 6 -13 5 -11 0 -14 -3 -6 -6z"/>
<path d="M803 666 c-6 -8 -9 -17 -6 -20 11 -11 21 -6 26 14 6 23 -3 25 -20 6z"/>
<path d="M2575 670 c-3 -5 1 -10 10 -10 9 0 13 5 10 10 -3 6 -8 10 -10 10 -2
0 -7 -4 -10 -10z"/>
<path d="M2910 665 c0 -8 9 -15 20 -15 11 0 20 2 20 5 0 2 -9 9 -20 15 -16 9
-20 8 -20 -5z"/>
<path d="M2950 676 c0 -2 7 -7 16 -10 8 -3 12 -2 9 4 -6 10 -25 14 -25 6z"/>
<path d="M20 659 c0 -5 10 -9 23 -9 18 0 19 -2 7 -10 -17 -11 -5 -40 21 -49 9
-3 7 2 -4 14 -14 13 -15 20 -6 25 6 4 9 12 5 18 -8 13 -46 22 -46 11z"/>
<path d="M1175 660 c-3 -5 -1 -10 4 -10 6 0 11 5 11 10 0 6 -2 10 -4 10 -3 0
-8 -4 -11 -10z"/>
<path d="M1208 663 c7 -3 16 -2 19 1 4 3 -2 6 -13 5 -11 0 -14 -3 -6 -6z"/>
<path d="M1476 662 c-3 -5 1 -9 9 -9 8 0 12 4 9 9 -3 4 -7 8 -9 8 -2 0 -6 -4
-9 -8z"/>
<path d="M1835 660 c-3 -5 -1 -10 4 -10 6 0 11 5 11 10 0 6 -2 10 -4 10 -3 0
-8 -4 -11 -10z"/>
<path d="M1860 652 c0 -11 -7 -23 -16 -26 -9 -3 -14 -13 -11 -20 3 -8 1 -16
-6 -19 -9 -3 -9 -9 0 -28 l12 -24 0 28 c1 15 6 27 12 27 8 0 10 -13 6 -37 -5
-36 2 -28 17 19 6 20 36 14 36 -8 0 -8 5 -14 11 -14 6 0 9 6 6 14 -3 8 -1 16
4 18 6 2 4 17 -5 38 -12 29 -16 32 -21 17 -4 -9 -1 -25 6 -35 7 -9 1 -6 -14 8
-15 13 -25 30 -23 37 3 7 1 15 -4 18 -6 4 -10 -3 -10 -13z m-5 -42 c3 -5 1
-10 -4 -10 -6 0 -11 5 -11 10 0 6 2 10 4 10 3 0 8 -4 11 -10z"/>
<path d="M2001 657 c0 -10 -12 -29 -26 -41 -15 -14 -27 -38 -30 -57 -4 -32 -3
-33 11 -14 8 11 12 25 10 32 -3 7 1 10 10 6 10 -4 12 0 8 11 -4 10 -1 16 9 16
17 0 30 -32 29 -75 -1 -25 1 -27 9 -12 12 21 1 136 -11 116 -6 -8 -10 -5 -13
12 -3 15 -5 17 -6 6z"/>
<path d="M2766 653 c-6 -14 -5 -15 5 -6 7 7 10 15 7 18 -3 3 -9 -2 -12 -12z"/>
<path d="M2846 662 c-2 -4 7 -12 20 -19 13 -6 24 -8 24 -4 0 10 -39 31 -44 23z"/>
<path d="M853 653 c-7 -2 -13 -11 -13 -19 0 -8 -6 -11 -17 -7 -13 5 -15 2 -11
-15 4 -12 2 -22 -3 -22 -4 0 -5 -8 -2 -17 6 -16 5 -16 -10 -4 -19 15 -22 5 -7
-19 8 -13 11 -12 24 5 35 50 55 70 56 55 0 -9 -5 -21 -12 -28 -10 -10 -5 -19
21 -43 18 -16 36 -27 39 -24 3 3 -3 11 -13 19 -16 12 -17 16 -6 30 12 14 11
19 -4 36 -15 16 -15 22 -5 35 15 18 -1 20 -19 3 -10 -11 -11 -10 -6 5 8 18 7
18 -12 10z m37 -79 c0 -8 -4 -12 -10 -9 -5 3 -10 10 -10 16 0 5 5 9 10 9 6 0
10 -7 10 -16z"/>
<path d="M2787 645 c-4 -8 -1 -17 5 -21 7 -4 8 -3 4 4 -4 7 -3 12 3 12 5 0 13
-5 16 -10 4 -6 12 -10 18 -9 7 1 26 -2 43 -6 33 -7 43 -35 12 -35 -11 0 -17
-4 -13 -9 3 -5 1 -12 -5 -16 -5 -3 -10 -10 -10 -15 0 -5 12 3 27 18 32 31 38
69 11 64 -10 -1 -35 6 -57 18 -48 24 -47 24 -54 5z"/>
<path d="M80 641 c0 -5 7 -11 15 -15 8 -3 15 -1 15 3 0 5 -7 11 -15 15 -8 3
-15 1 -15 -3z"/>
<path d="M2395 630 c-4 -12 -5 -24 -2 -27 3 -2 8 5 12 17 4 12 5 24 2 27 -3 2
-8 -5 -12 -17z"/>
<path d="M2558 643 c7 -3 16 -2 19 1 4 3 -2 6 -13 5 -11 0 -14 -3 -6 -6z"/>
<path d="M420 629 c0 -5 5 -7 10 -4 6 3 10 8 10 11 0 2 -4 4 -10 4 -5 0 -10
-5 -10 -11z"/>
<path d="M1636 624 c-3 -9 -3 -21 1 -26 3 -7 1 -8 -5 -4 -7 4 -12 1 -12 -8 0
-8 5 -18 10 -21 15 -9 12 -25 -5 -25 -8 0 -15 -9 -15 -19 0 -11 -3 -22 -7 -24
-5 -3 -7 18 -6 46 1 29 0 43 -3 32 -3 -11 -10 -30 -16 -43 -9 -17 -9 -25 0
-34 17 -17 42 -18 42 -2 0 27 1 29 21 36 13 5 18 13 13 20 -4 7 6 2 22 -12 16
-14 30 -28 32 -33 2 -4 7 -5 11 -3 7 5 5 -70 -3 -107 -3 -11 0 -17 7 -14 8 2
12 40 13 118 1 63 -1 93 -3 67 -2 -27 -8 -48 -14 -48 -5 0 -8 3 -8 8 4 22 -3
34 -16 28 -9 -3 -15 -1 -14 7 1 6 1 27 0 45 -1 24 -5 32 -20 32 -10 0 -22 -7
-25 -16z"/>
<path d="M2190 625 c0 -8 5 -15 10 -15 6 0 10 -13 10 -29 0 -34 16 -49 33 -31
9 10 8 12 -5 7 -15 -5 -17 -1 -13 28 3 24 0 34 -8 32 -7 -1 -11 4 -9 11 1 6
-2 12 -8 12 -5 0 -10 -7 -10 -15z"/>
<path d="M2955 630 c3 -5 11 -10 16 -10 6 0 7 5 4 10 -3 6 -11 10 -16 10 -6 0
-7 -4 -4 -10z"/>
<path d="M475 621 c-9 -16 9 -20 23 -5 10 12 10 14 -2 14 -8 0 -17 -4 -21 -9z"/>
<path d="M2550 620 c0 -5 5 -10 11 -10 5 0 7 5 4 10 -3 6 -8 10 -11 10 -2 0
-4 -4 -4 -10z"/>
<path d="M2933 615 c0 -8 4 -12 9 -9 5 3 6 10 3 15 -9 13 -12 11 -12 -6z"/>
<path d="M325 597 c-4 -15 -5 -31 -1 -34 3 -4 6 1 6 11 0 9 4 15 9 12 5 -3 7
-15 4 -25 -3 -10 0 -22 6 -25 12 -8 7 45 -7 71 -9 16 -11 15 -17 -10z"/>
<path d="M2453 579 c-1 -23 1 -38 4 -35 10 9 12 49 4 63 -4 7 -7 -6 -8 -28z"/>
<path d="M2616 604 c-5 -14 -4 -15 9 -4 17 14 19 20 6 20 -5 0 -12 -7 -15 -16z"/>
<path d="M2735 610 c3 -5 8 -10 11 -10 2 0 4 5 4 10 0 6 -5 10 -11 10 -5 0 -7
-4 -4 -10z"/>
<path d="M19 597 c6 -8 8 -16 5 -19 -2 -3 2 -8 10 -11 13 -5 13 -2 4 18 -6 14
-16 25 -21 25 -5 0 -5 -6 2 -13z"/>
<path d="M120 599 c0 -5 -4 -8 -10 -4 -5 3 -5 -7 1 -25 6 -16 15 -27 20 -24 5
3 5 12 0 22 -4 9 -6 23 -4 30 3 6 2 12 -1 12 -3 0 -6 -5 -6 -11z"/>
<path d="M220 605 c0 -18 19 -40 26 -32 4 4 0 15 -9 24 -9 10 -17 13 -17 8z"/>
<path d="M275 593 c-3 -10 -2 -19 4 -21 5 -2 7 -11 4 -20 -3 -9 -2 -13 2 -9
11 10 15 67 5 67 -4 0 -11 -8 -15 -17z"/>
<path d="M557 596 c-3 -8 1 -17 9 -20 9 -4 14 1 14 14 0 23 -15 27 -23 6z"/>
<path d="M2770 600 c-13 -8 -12 -10 3 -10 9 0 17 5 17 10 0 12 -1 12 -20 0z"/>
<path d="M170 585 c0 -8 4 -15 8 -15 5 0 9 7 9 15 0 8 -4 15 -9 15 -4 0 -8 -7
-8 -15z"/>
<path d="M450 585 c0 -8 2 -15 4 -15 2 0 6 7 10 15 3 8 1 15 -4 15 -6 0 -10
-7 -10 -15z"/>
<path d="M2170 576 c-15 -42 -11 -55 6 -17 8 19 12 36 9 39 -2 3 -9 -7 -15
-22z"/>
<path d="M2514 588 c-4 -7 24 -13 48 -10 3 1 12 -5 18 -13 14 -17 30 -20 30
-6 0 5 -9 11 -21 14 -12 3 -19 10 -15 15 3 5 -8 9 -25 9 -16 0 -32 -4 -35 -9z"/>
<path d="M2672 592 c-12 -2 -20 -7 -17 -12 3 -5 12 -7 20 -4 7 3 23 1 34 -6
26 -13 27 -9 4 10 -10 8 -28 14 -41 12z"/>
<path d="M2955 590 c-28 -13 -75 -52 -52 -44 10 4 17 2 15 -4 -2 -5 2 -10 7
-11 6 0 10 9 10 22 0 14 6 22 17 22 10 0 23 6 30 13 14 14 2 15 -27 2z"/>
<path d="M506 581 c-4 -5 3 -7 14 -4 23 6 26 13 6 13 -8 0 -17 -4 -20 -9z"/>
<path d="M1163 558 c2 -21 -1 -38 -5 -38 -4 0 -8 9 -8 20 0 25 -15 26 -24 3
-3 -10 -8 -23 -11 -29 -3 -6 6 -16 20 -22 31 -14 46 -16 25 -2 -8 5 -11 12 -7
16 10 10 39 -17 33 -32 -3 -7 2 -15 10 -18 8 -3 13 -11 12 -18 -2 -7 3 -13 10
-12 6 1 25 2 41 3 33 1 45 29 30 69 -7 18 -13 22 -20 15 -8 -8 -8 -17 -1 -30
6 -10 8 -23 4 -29 -8 -11 -47 -12 -58 -1 -13 13 -11 47 3 58 7 6 13 17 13 23
0 6 -5 4 -10 -4 -9 -13 -11 -13 -20 0 -8 13 -10 12 -10 -2 0 -10 -4 -18 -9
-18 -5 0 -7 8 -5 18 3 9 0 28 -6 42 -9 23 -10 22 -7 -12z"/>
<path d="M2071 572 c-7 -13 -11 -26 -8 -28 8 -8 29 25 25 38 -3 8 -9 4 -17
-10z"/>
<path d="M2800 570 c-6 -11 -21 -20 -33 -21 -21 0 -21 -1 -2 -9 38 -16 50 -12
50 20 0 35 -1 36 -15 10z"/>
<path d="M382 573 c-10 -4 -10 -8 -1 -19 6 -7 9 -21 5 -29 -3 -8 0 -15 7 -15
7 0 12 14 12 35 1 36 -1 37 -23 28z"/>
<path d="M475 571 c4 -8 2 -17 -6 -23 -10 -6 -7 -7 10 -3 18 6 22 4 15 -6 -14
-23 -13 -39 2 -39 8 0 14 5 14 10 0 6 -5 10 -12 10 -9 0 -9 3 0 12 9 9 15 8
26 -8 12 -15 17 -16 27 -7 10 10 6 15 -17 23 -16 6 -38 19 -48 28 -11 10 -16
11 -11 3z"/>
<path d="M593 565 c-18 -20 9 -40 34 -26 11 5 37 7 60 4 24 -3 43 -1 47 6 5 7
1 9 -8 5 -9 -3 -24 -3 -33 1 -10 4 -33 7 -52 6 -22 -2 -31 1 -27 8 10 16 -7
13 -21 -4z"/>
<path d="M1030 567 c0 -8 -7 -20 -15 -27 -11 -9 -15 -9 -15 -1 0 7 -4 10 -10
6 -5 -3 -7 -12 -3 -20 3 -9 -1 -15 -11 -15 -19 0 -21 -16 -4 -26 7 -4 8 -3 4
4 -9 16 7 15 22 0 9 -9 11 -7 8 9 -4 17 1 20 30 20 38 0 49 6 39 23 -6 9 -10
9 -16 -1 -6 -10 -9 -8 -9 8 0 12 -4 25 -10 28 -5 3 -10 0 -10 -8z"/>
<path d="M1235 569 c-4 -6 -5 -13 -2 -16 7 -7 27 6 27 18 0 12 -17 12 -25 -2z"/>
<path d="M1327 566 c-3 -8 -1 -30 5 -50 9 -28 9 -39 -1 -49 -10 -10 -12 -6 -9
17 1 16 -2 31 -8 33 -6 2 -10 -11 -10 -32 1 -19 5 -35 9 -35 5 0 5 -4 2 -10
-3 -5 -2 -10 3 -10 17 0 35 29 35 56 0 17 4 24 13 20 18 -7 25 6 13 24 -5 10
-9 11 -9 3 0 -7 -7 -10 -16 -6 -9 3 -14 13 -11 24 6 22 -8 35 -16 15z"/>
<path d="M1440 565 c0 -8 -7 -15 -15 -15 -13 0 -14 -4 -5 -20 9 -16 8 -19 -6
-13 -15 6 -17 0 -12 -53 4 -32 3 -50 -1 -40 -7 19 -8 19 -13 -2 -7 -24 -4 -25
77 -37 26 -4 35 -2 26 3 -8 6 -11 17 -6 31 8 25 -27 63 -49 55 -7 -3 -13 2
-13 11 0 8 12 18 26 22 23 6 24 7 6 14 -11 4 -14 8 -7 8 14 1 17 51 2 51 -5 0
-10 -7 -10 -15z m20 -119 c0 -8 3 -21 6 -29 4 -11 -1 -13 -20 -10 -33 7 -38
53 -6 53 11 0 20 -6 20 -14z"/>
<path d="M2133 540 c0 -25 2 -35 4 -22 2 12 2 32 0 45 -2 12 -4 2 -4 -23z"/>
<path d="M2986 565 c-3 -8 -1 -15 4 -15 6 0 10 7 10 15 0 8 -2 15 -4 15 -2 0
-6 -7 -10 -15z"/>
<path d="M530 559 c0 -5 5 -7 10 -4 6 3 10 8 10 11 0 2 -4 4 -10 4 -5 0 -10
-5 -10 -11z"/>
<path d="M750 551 c0 -25 6 -27 13 -6 4 8 2 17 -3 20 -6 4 -10 -3 -10 -14z"/>
<path d="M1610 560 c0 -5 5 -10 11 -10 5 0 7 5 4 10 -3 6 -8 10 -11 10 -2 0
-4 -4 -4 -10z"/>
<path d="M2636 552 c4 -14 0 -22 -13 -25 -17 -4 -17 -5 0 -6 21 -1 34 26 19
41 -8 8 -9 5 -6 -10z"/>
<path d="M1503 531 c0 -17 3 -29 6 -29 12 2 41 -14 41 -24 0 -5 -6 -5 -17 1
-12 6 -20 5 -29 -7 -10 -14 -12 -14 -11 3 0 11 -1 29 -2 40 -2 16 -5 15 -13
-8 -8 -23 -7 -32 6 -45 14 -14 18 -15 25 -3 5 7 14 10 20 7 6 -4 9 -12 6 -17
-4 -5 -1 -9 5 -9 6 0 8 -5 5 -10 -3 -6 -3 -19 0 -30 5 -15 15 -20 38 -19 22 1
26 3 12 6 -24 6 -37 23 -30 41 2 6 0 12 -4 12 -5 0 -7 14 -5 30 3 18 1 30 -6
30 -6 0 -8 5 -5 11 6 9 -25 49 -38 49 -2 0 -4 -13 -4 -29z"/>
<path d="M2507 553 c-4 -3 -7 -16 -6 -27 0 -12 3 -15 6 -9 2 7 4 15 3 19 -1 4
4 11 12 15 7 5 8 9 2 9 -6 0 -14 -3 -17 -7z"/>
<path d="M6 535 c4 -8 12 -15 20 -15 20 0 17 7 -6 20 -16 9 -18 8 -14 -5z"/>
<path d="M420 546 c0 -2 7 -6 15 -10 8 -3 15 -1 15 4 0 6 -7 10 -15 10 -8 0
-15 -2 -15 -4z"/>
<path d="M935 515 c-11 -19 -21 -32 -23 -30 -9 9 -42 -16 -36 -27 5 -7 12 -4
21 8 14 20 19 20 41 2 13 -11 17 -49 5 -47 -17 3 -33 -1 -32 -8 3 -20 -2 -27
-11 -13 -7 12 -9 10 -7 -8 2 -27 1 -28 37 5 33 29 36 43 18 73 -10 15 -9 24 2
44 7 14 11 28 8 31 -3 3 -13 -10 -23 -30z"/>
<path d="M2284 535 c-18 -14 -18 -14 4 -8 12 3 22 9 22 14 0 12 -3 11 -26 -6z"/>
<path d="M2405 540 c-3 -6 1 -7 9 -4 18 7 21 14 7 14 -6 0 -13 -4 -16 -10z"/>
<path d="M1082 515 c-15 -32 -15 -32 2 -32 8 0 13 12 14 29 1 35 -2 35 -16 3z"/>
<path d="M2091 524 c0 -11 3 -14 6 -6 3 7 2 16 -1 19 -3 4 -6 -2 -5 -13z"/>
<path d="M2964 529 c-3 -6 -1 -16 5 -22 6 -6 11 -18 11 -26 0 -10 -6 -7 -18
10 -13 20 -22 24 -37 18 -19 -7 -19 -8 2 -8 13 -1 28 -11 36 -27 l13 -25 13
27 c10 22 10 29 -1 35 -10 7 -10 9 0 9 6 0 12 5 12 10 0 13 -27 13 -36 -1z"/>
<path d="M105 520 c-16 -7 -17 -9 -3 -9 9 -1 20 4 23 9 7 11 7 11 -20 0z"/>
<path d="M579 517 c9 -11 10 -17 2 -17 -6 0 -11 -4 -11 -10 0 -5 12 -10 28 -9
15 0 21 3 14 6 -6 2 -10 9 -7 13 3 5 -5 14 -17 21 -21 11 -22 11 -9 -4z"/>
<path d="M625 520 c-9 -14 1 -27 25 -33 17 -4 18 -2 10 13 -13 25 -27 33 -35
20z"/>
<path d="M685 520 c3 -5 8 -10 11 -10 2 0 4 5 4 10 0 6 -5 10 -11 10 -5 0 -7
-4 -4 -10z"/>
<path d="M799 503 c4 -15 13 -28 19 -29 7 -1 8 0 2 3 -5 2 -10 13 -10 23 0 10
-4 21 -9 24 -5 4 -6 -5 -2 -21z"/>
<path d="M847 524 c-8 -8 1 -24 13 -24 4 0 10 7 14 15 5 15 -14 21 -27 9z"/>
<path d="M2185 520 l-30 -8 27 -1 c15 0 30 4 33 9 3 6 5 9 3 9 -2 -1 -16 -5
-33 -9z"/>
<path d="M2375 521 c-3 -5 -1 -12 5 -16 5 -3 10 1 10 9 0 18 -6 21 -15 7z"/>
<path d="M2416 514 c-8 -21 -8 -21 7 -21 7 0 13 9 13 19 0 22 -12 24 -20 2z"/>
<path d="M2665 520 c4 -6 11 -8 16 -5 14 9 11 15 -7 15 -8 0 -12 -5 -9 -10z"/>
<path d="M2885 520 c3 -5 8 -10 11 -10 2 0 4 5 4 10 0 6 -5 10 -11 10 -5 0 -7
-4 -4 -10z"/>
<path d="M147 509 c7 -7 15 -10 18 -7 3 3 -2 9 -12 12 -14 6 -15 5 -6 -5z"/>
<path d="M1230 505 c-7 -9 -10 -18 -6 -22 3 -3 6 -1 6 6 0 7 4 10 8 7 5 -3 9
1 9 9 0 19 -2 19 -17 0z"/>
<path d="M1916 511 c-3 -4 6 -6 19 -3 14 2 25 6 25 8 0 8 -39 4 -44 -5z"/>
<path d="M2331 510 c0 -8 4 -22 9 -30 12 -18 12 -2 0 25 -6 13 -9 15 -9 5z"/>
<path d="M2575 509 c-4 -6 -5 -12 -2 -15 2 -3 7 2 10 11 7 17 1 20 -8 4z"/>
<path d="M2760 509 c0 -5 9 -9 20 -9 11 0 20 2 20 4 0 2 -9 6 -20 9 -11 3 -20
1 -20 -4z"/>
<path d="M2840 515 c0 -2 9 -9 20 -15 16 -9 18 -8 14 5 -5 13 -34 22 -34 10z"/>
<path d="M361 494 c0 -11 3 -14 6 -6 3 7 2 16 -1 19 -3 4 -6 -2 -5 -13z"/>
<path d="M696 501 c-12 -5 -15 -10 -9 -14 6 -4 16 0 23 8 14 17 13 17 -14 6z"/>
<path d="M770 501 c0 -6 4 -13 10 -16 6 -3 7 1 4 9 -7 18 -14 21 -14 7z"/>
<path d="M2283 495 c0 -8 4 -15 9 -15 4 0 8 4 8 9 0 6 -4 12 -8 15 -5 3 -9 -1
-9 -9z"/>
<path d="M2480 500 c0 -6 7 -10 15 -10 8 0 15 2 15 4 0 2 -7 6 -15 10 -8 3
-15 1 -15 -4z"/>
<path d="M2535 500 c-3 -6 1 -7 9 -4 18 7 21 14 7 14 -6 0 -13 -4 -16 -10z"/>
<path d="M2633 495 c2 -11 -4 -26 -13 -33 -12 -10 -10 -10 13 0 15 6 24 14 19
17 -5 3 -12 13 -15 21 -5 10 -6 8 -4 -5z"/>
<path d="M120 496 c0 -2 7 -7 16 -10 8 -3 12 -2 9 4 -6 10 -25 14 -25 6z"/>
<path d="M527 493 c-17 -4 -16 -8 9 -34 29 -30 54 -38 54 -17 0 6 -3 8 -6 5
-4 -3 -16 -1 -27 4 -16 9 -17 13 -6 20 12 7 11 9 -1 9 -13 0 -13 1 0 10 16 10
8 11 -23 3z"/>
<path d="M1793 485 c0 -8 4 -12 9 -9 5 3 6 10 3 15 -9 13 -12 11 -12 -6z"/>
<path d="M1860 484 c0 -8 5 -12 10 -9 6 4 8 11 5 16 -9 14 -15 11 -15 -7z"/>
<path d="M2595 490 c3 -5 8 -10 11 -10 2 0 4 5 4 10 0 6 -5 10 -11 10 -5 0 -7
-4 -4 -10z"/>
<path d="M2825 490 c-3 -5 -1 -10 4 -10 6 0 11 5 11 10 0 6 -2 10 -4 10 -3 0
-8 -4 -11 -10z"/>
<path d="M35 480 c-3 -5 1 -10 9 -10 9 0 16 5 16 10 0 6 -4 10 -9 10 -6 0 -13
-4 -16 -10z"/>
<path d="M280 486 c0 -2 7 -7 16 -10 8 -3 12 -2 9 4 -6 10 -25 14 -25 6z"/>
<path d="M1369 485 c-1 -6 0 -22 1 -36 1 -26 -4 -29 -60 -30 l-25 0 23 -11
c32 -16 68 3 75 39 3 15 1 32 -4 38 -6 6 -9 6 -10 0z"/>
<path d="M2210 478 c0 -10 -5 -18 -12 -18 -6 0 -9 -3 -5 -6 3 -3 12 -2 21 3
10 6 12 13 6 23 -8 13 -10 12 -10 -2z"/>
<path d="M2379 488 c0 -2 -3 -14 -5 -27 -2 -14 -12 -33 -21 -43 -9 -10 -12
-18 -7 -18 16 0 34 22 34 41 0 10 6 20 13 22 9 4 9 6 -1 6 -7 1 -10 6 -7 11 3
6 4 10 1 10 -3 0 -6 -1 -7 -2z"/>
<path d="M435 469 c-9 -13 -7 -15 28 -23 26 -6 27 -6 10 14 -20 23 -29 25 -38
9z"/>
<path d="M1950 470 c0 -5 5 -10 11 -10 5 0 7 5 4 10 -3 6 -8 10 -11 10 -2 0
-4 -4 -4 -10z"/>
<path d="M1979 458 c-18 -16 -19 -19 -6 -15 10 4 22 7 26 7 4 0 8 7 8 15 0 19
1 19 -28 -7z"/>
<path d="M2059 463 c-13 -16 -12 -17 4 -4 16 13 21 21 13 21 -2 0 -10 -8 -17
-17z"/>
<path d="M2920 470 c0 -5 -7 -10 -15 -10 -18 0 -20 -16 -3 -26 7 -5 8 -3 3 6
-5 8 -3 11 6 8 8 -3 13 -11 12 -17 -2 -6 2 -11 8 -11 7 0 6 -9 -4 -23 -10 -15
-12 -29 -6 -38 8 -13 13 -6 10 14 -1 4 3 16 8 25 6 11 6 24 1 33 -6 9 -5 16 5
19 12 4 11 8 -5 18 -12 7 -20 8 -20 2z"/>
<path d="M586 461 c5 -5 29 -5 54 -1 l45 7 -54 2 c-33 0 -51 -3 -45 -8z"/>
<path d="M1224 461 c3 -5 15 -7 26 -4 28 7 25 13 -6 13 -14 0 -23 -4 -20 -9z"/>
<path d="M2470 466 c0 -2 9 -6 20 -9 11 -3 18 -1 14 4 -5 9 -34 13 -34 5z"/>
<path d="M510 440 c0 -11 4 -20 9 -20 5 0 7 9 4 20 -3 11 -7 20 -9 20 -2 0 -4
-9 -4 -20z"/>
<path d="M1048 453 c15 -3 22 -10 18 -19 -3 -7 0 -13 6 -11 20 4 19 -21 -1
-28 -12 -3 -21 -10 -21 -15 0 -5 -10 -11 -22 -13 -20 -4 -19 -4 5 -6 15 0 27
4 27 9 0 6 19 10 43 10 31 0 38 3 27 10 -8 5 -11 10 -6 10 5 0 -7 13 -25 30
-19 16 -43 29 -54 28 -16 -1 -16 -2 3 -5z"/>
<path d="M1127 453 c-23 -6 -12 -23 16 -23 16 0 18 3 8 9 -11 7 -11 9 0 14 17
6 1 7 -24 0z"/>
<path d="M1867 445 c-4 -8 -3 -16 1 -19 4 -3 9 4 9 15 2 23 -3 25 -10 4z"/>
<path d="M1910 452 c0 -4 9 -8 19 -8 11 0 17 4 15 8 -3 4 -12 8 -20 8 -8 0
-14 -4 -14 -8z"/>
<path d="M2260 449 c0 -5 18 -8 39 -7 47 4 44 12 -5 15 -19 1 -34 -2 -34 -8z"/>
<path d="M2670 452 c0 -14 56 -29 78 -21 12 5 24 4 27 -2 7 -10 25 -3 25 10 0
5 -21 7 -46 5 -29 -3 -43 -1 -39 6 4 6 -5 10 -19 10 -14 0 -26 -4 -26 -8z"/>
<path d="M2816 453 c-10 -10 -7 -23 5 -23 5 0 7 5 3 12 -5 8 -2 9 10 5 10 -4
19 -7 22 -7 2 0 1 -8 -3 -17 -4 -14 -3 -15 6 -7 6 6 9 17 6 25 -6 15 -38 23
-49 12z"/>
<path d="M2988 430 c-3 -16 -1 -30 4 -30 4 0 8 14 8 30 0 17 -2 30 -4 30 -2 0
-6 -13 -8 -30z"/>
<path d="M18 443 c12 -2 20 -9 17 -14 -3 -5 1 -6 10 -2 13 5 14 7 3 14 -7 5
-22 8 -33 7 -17 -1 -17 -1 3 -5z"/>
<path d="M395 440 c3 -5 14 -10 23 -10 15 0 15 2 2 10 -20 13 -33 13 -25 0z"/>
<path d="M612 441 c-11 -7 -11 -9 0 -14 9 -3 15 1 15 9 0 8 -1 14 -1 14 -1 0
-7 -4 -14 -9z"/>
<path d="M789 448 c-6 -21 -5 -38 1 -38 5 0 8 9 7 20 -1 17 -5 26 -8 18z"/>
<path d="M838 443 c6 -2 18 -2 25 0 6 3 1 5 -13 5 -14 0 -19 -2 -12 -5z"/>
<path d="M900 440 c-8 -5 -10 -10 -5 -10 6 0 17 5 25 10 8 5 11 10 5 10 -5 0
-17 -5 -25 -10z"/>
<path d="M1173 445 c4 -5 0 -16 -9 -26 -10 -11 -12 -19 -5 -24 14 -8 14 -42 0
-51 -6 -3 -16 0 -21 7 -7 11 -11 11 -15 2 -2 -7 -11 -13 -19 -13 -8 0 -14 -5
-14 -11 0 -6 7 -8 16 -5 9 3 31 6 51 6 30 0 34 3 33 23 -4 39 0 47 18 47 14 0
14 2 3 9 -10 7 -19 4 -28 -7 -11 -15 -12 -13 -3 10 7 20 6 29 -3 34 -7 4 -9 3
-4 -1z"/>
<path d="M140 423 c0 -10 4 -14 8 -8 4 6 11 13 16 18 5 4 2 7 -7 7 -10 0 -17
-8 -17 -17z"/>
<path d="M180 426 c0 -9 5 -16 10 -16 6 0 10 4 10 9 0 6 -4 13 -10 16 -5 3
-10 -1 -10 -9z"/>
<path d="M223 432 c-9 -6 -4 -16 16 -35 16 -15 33 -27 38 -27 4 0 1 5 -7 10
-11 7 3 10 46 10 46 0 61 3 61 15 0 15 -26 30 -35 20 -3 -3 0 -5 6 -5 7 0 12
-5 12 -10 0 -6 -23 -9 -57 -6 -68 5 -61 3 -65 21 -2 9 -8 11 -15 7z"/>
<path d="M640 436 c0 -9 30 -14 35 -6 4 6 -3 10 -14 10 -12 0 -21 -2 -21 -4z"/>
<path d="M1016 428 c5 -8 2 -9 -11 -4 -13 4 -26 -3 -46 -26 -34 -38 -34 -38
-9 -31 11 3 20 1 20 -5 0 -6 -8 -13 -17 -15 -13 -3 -12 -5 5 -6 20 -1 23 3 20
31 -2 23 1 33 12 34 47 4 77 34 34 34 -9 0 -12 -5 -8 -12z"/>
<path d="M1507 426 c-4 -10 -5 -21 -2 -24 9 -9 17 6 13 25 -3 17 -4 17 -11 -1z"/>
<path d="M1602 420 c-7 -11 -8 -20 -3 -20 9 0 24 30 18 36 -1 2 -8 -6 -15 -16z"/>
<path d="M1650 430 c0 -6 7 -10 15 -10 8 0 15 2 15 4 0 2 -7 6 -15 10 -8 3
-15 1 -15 -4z"/>
<path d="M2023 433 c12 -3 16 -10 12 -21 -5 -13 -3 -14 6 -5 14 14 3 33 -19
32 -15 -1 -14 -2 1 -6z"/>
<path d="M2215 430 c-3 -5 0 -7 9 -4 17 7 41 -31 30 -48 -4 -7 -3 -8 4 -4 17
11 14 37 -5 52 -22 16 -30 17 -38 4z"/>
<path d="M2620 425 c0 -7 -8 -19 -17 -24 -15 -9 -16 -10 -2 -11 9 0 21 11 27
25 7 15 8 25 2 25 -6 0 -10 -7 -10 -15z"/>
<path d="M2958 415 c-3 -14 -1 -25 3 -25 5 0 9 11 9 25 0 14 -2 25 -4 25 -2 0
-6 -11 -8 -25z"/>
<path d="M440 420 c0 -6 7 -10 15 -10 8 0 15 2 15 4 0 2 -7 6 -15 10 -8 3 -15
1 -15 -4z"/>
<path d="M727 424 c-3 -4 -21 -8 -38 -10 -18 -2 -35 -7 -38 -10 -3 -4 4 -5 16
-2 21 6 52 -16 52 -37 0 -5 5 -11 13 -13 9 -2 8 0 -2 7 -13 9 -13 11 -1 11 11
0 9 4 -5 15 -10 8 -14 15 -8 15 7 0 14 7 18 15 6 16 3 19 -7 9z"/>
<path d="M1805 420 c-3 -5 -2 -10 4 -10 5 0 13 5 16 10 3 6 2 10 -4 10 -5 0
-13 -4 -16 -10z"/>
<path d="M1948 408 c-7 -13 -11 -27 -10 -32 2 -5 -5 -6 -14 -2 -14 5 -15 4 -5
-8 7 -8 19 -12 27 -9 11 4 12 9 3 19 -14 17 2 18 21 2 12 -11 12 -10 2 4 -9
11 -10 18 -2 23 13 8 13 25 0 25 -5 0 -15 -10 -22 -22z"/>
<path d="M2090 420 c0 -5 7 -7 15 -4 8 4 15 1 15 -5 0 -6 15 -11 33 -11 27 1
29 2 14 11 -9 5 -21 8 -26 4 -5 -3 -12 -1 -16 5 -8 13 -35 13 -35 0z"/>
<path d="M2430 420 c-8 -5 -12 -12 -9 -15 4 -3 12 1 19 10 14 17 11 19 -10 5z"/>
<path d="M2470 421 c0 -5 7 -12 16 -15 21 -8 24 -8 24 5 0 5 -4 7 -10 4 -5 -3
-10 -1 -10 4 0 6 -4 11 -10 11 -5 0 -10 -4 -10 -9z"/>
<path d="M2568 423 c7 -3 16 -2 19 1 4 3 -2 6 -13 5 -11 0 -14 -3 -6 -6z"/>
<path d="M2866 394 c-17 -38 -21 -58 -6 -34 8 13 11 13 22 1 10 -10 10 -12 1
-7 -7 4 -13 2 -13 -3 0 -6 -7 -11 -15 -11 -17 0 -20 -16 -5 -25 6 -3 10 -1 10
5 0 6 5 8 10 5 6 -3 10 0 10 7 0 9 3 9 10 -2 7 -11 10 -11 10 -2 0 7 5 10 10
7 16 -10 12 -23 -10 -30 -20 -6 -20 -7 -3 -35 9 -16 19 -27 21 -25 3 3 -1 12
-9 21 -11 14 -10 19 10 35 13 10 26 17 30 15 3 -2 6 7 6 20 0 21 -1 22 -12 8
-11 -15 -15 -13 -43 14 -30 30 -30 31 -10 45 16 11 18 16 7 20 -9 3 -20 -7
-31 -29z"/>
<path d="M410 405 c-7 -9 -8 -15 -2 -15 5 0 12 7 16 15 3 8 4 15 2 15 -2 0 -9
-7 -16 -15z"/>
<path d="M543 413 c-18 -7 -16 -23 2 -23 8 0 15 -6 15 -14 0 -12 5 -12 30 1
17 8 37 12 45 9 9 -3 12 0 8 10 -6 17 -8 17 -41 0 -22 -11 -29 -12 -39 -1 -10
11 -10 15 0 18 7 3 8 5 2 5 -5 0 -16 -2 -22 -5z"/>
<path d="M860 406 c0 -8 4 -17 9 -20 5 -4 7 3 4 14 -6 23 -13 26 -13 6z"/>
<path d="M1626 404 c-9 -24 -9 -24 27 -23 17 0 25 3 17 6 -8 3 -20 12 -26 19
-10 12 -13 12 -18 -2z"/>
<path d="M2757 401 c3 -14 11 -17 26 -13 18 5 19 7 5 10 -10 2 -18 8 -18 13 0
5 -4 9 -9 9 -5 0 -7 -8 -4 -19z"/>
<path d="M465 400 c-17 -6 -15 -8 10 -13 17 -3 34 -2 38 2 12 11 -24 19 -48
11z"/>
<path d="M1238 403 c7 -3 16 -2 19 1 4 3 -2 6 -13 5 -11 0 -14 -3 -6 -6z"/>
<path d="M1861 394 c0 -11 3 -14 6 -6 3 7 2 16 -1 19 -3 4 -6 -2 -5 -13z"/>
<path d="M2060 400 c-9 -6 -10 -10 -3 -10 6 0 15 5 18 10 8 12 4 12 -15 0z"/>
<path d="M2220 401 c0 -6 -7 -8 -15 -5 -8 4 -15 1 -15 -5 0 -13 36 -15 45 -2
3 5 1 12 -5 16 -5 3 -10 2 -10 -4z"/>
<path d="M2729 410 c0 -3 -2 -13 -4 -23 -2 -9 1 -15 5 -12 10 6 25 -14 17 -21
-9 -9 -48 16 -42 27 4 5 0 9 -8 9 -29 0 -25 -14 10 -32 44 -24 59 -13 38 28
-8 16 -15 27 -16 24z"/>
<path d="M134 385 c-12 -8 -23 -13 -25 -11 -2 2 -11 -3 -19 -12 -13 -14 -12
-15 4 -9 10 4 27 7 39 8 14 0 17 3 8 6 -10 4 -8 9 10 19 13 7 19 13 14 14 -6
0 -20 -7 -31 -15z"/>
<path d="M175 384 c-17 -12 -17 -14 -2 -14 9 0 17 6 17 13 0 9 3 9 9 -1 5 -8
17 -12 27 -10 15 3 14 5 -7 14 -19 9 -29 9 -44 -2z"/>
<path d="M745 390 c3 -5 13 -10 21 -10 8 0 12 5 9 10 -3 6 -13 10 -21 10 -8 0
-12 -4 -9 -10z"/>
<path d="M1015 390 c-3 -5 -1 -10 4 -10 6 0 11 5 11 10 0 6 -2 10 -4 10 -3 0
-8 -4 -11 -10z"/>
<path d="M2081 381 c-20 -16 -21 -19 -7 -24 10 -4 15 -3 11 3 -3 6 -2 10 3 10
6 0 12 7 16 15 7 19 6 19 -23 -4z"/>
<path d="M2282 391 c5 -19 35 -23 42 -5 6 17 -10 19 -20 3 -4 -8 -9 -7 -16 2
-8 12 -9 12 -6 0z"/>
<path d="M2630 385 c-9 -10 -9 -15 -1 -15 6 0 11 4 11 9 0 5 8 12 18 14 14 4
14 5 1 6 -9 0 -22 -6 -29 -14z"/>
<path d="M2831 391 c-7 -5 -11 -15 -9 -22 3 -10 8 -7 17 9 13 24 12 26 -8 13z"/>
<path d="M676 371 c10 -10 21 -14 23 -8 4 10 -17 27 -33 27 -5 0 -1 -8 10 -19z"/>
<path d="M1278 383 c6 -2 18 -2 25 0 6 3 1 5 -13 5 -14 0 -19 -2 -12 -5z"/>
<path d="M1517 383 c-11 -11 -8 -20 8 -20 8 0 15 6 15 14 0 14 -12 17 -23 6z"/>
<path d="M1785 380 c4 -6 11 -8 16 -5 14 9 11 15 -7 15 -8 0 -12 -5 -9 -10z"/>
<path d="M2145 380 c-3 -5 -1 -10 4 -10 6 0 11 5 11 10 0 6 -2 10 -4 10 -3 0
-8 -4 -11 -10z"/>
<path d="M2383 378 c16 -10 57 -10 57 0 0 4 -16 8 -35 8 -21 0 -30 -3 -22 -8z"/>
<path d="M2450 381 c0 -5 9 -11 21 -14 16 -4 18 -3 8 9 -13 16 -29 19 -29 5z"/>
<path d="M2510 380 c0 -5 3 -9 8 -8 4 1 19 -6 34 -16 l27 -18 -26 -22 c-20
-17 -22 -23 -10 -23 10 0 17 6 17 13 0 6 10 14 23 18 l22 6 -25 17 c-14 9 -31
23 -38 30 -16 15 -32 17 -32 3z"/>
<path d="M2977 370 c-3 -11 -1 -20 4 -20 5 0 9 9 9 20 0 11 -2 20 -4 20 -2 0
-6 -9 -9 -20z"/>
<path d="M0 370 c0 -5 5 -10 11 -10 5 0 7 5 4 10 -3 6 -8 10 -11 10 -2 0 -4
-4 -4 -10z"/>
<path d="M58 373 c7 -3 16 -2 19 1 4 3 -2 6 -13 5 -11 0 -14 -3 -6 -6z"/>
<path d="M330 370 l25 -8 -24 -1 c-39 -2 -15 -14 30 -15 40 -1 40 -1 18 17
-11 9 -33 17 -48 16 l-26 -1 25 -8z"/>
<path d="M522 367 c-8 -10 -6 -13 7 -13 11 0 17 6 14 13 -3 7 -6 13 -8 13 -1
0 -7 -6 -13 -13z"/>
<path d="M790 371 c0 -6 4 -13 10 -16 6 -3 7 1 4 9 -7 18 -14 21 -14 7z"/>
<path d="M840 372 c0 -5 7 -9 15 -9 8 0 12 4 9 9 -3 4 -9 8 -15 8 -5 0 -9 -4
-9 -8z"/>
<path d="M1998 368 c5 -5 16 -8 23 -6 8 3 3 7 -10 11 -17 4 -21 3 -13 -5z"/>
<path d="M2330 371 c0 -6 4 -13 10 -16 6 -3 7 1 4 9 -7 18 -14 21 -14 7z"/>
<path d="M2782 365 c-11 -12 -10 -15 3 -15 8 0 15 7 15 15 0 18 -2 18 -18 0z"/>
<path d="M610 360 c-17 -11 -16 -11 25 -15 17 -2 24 -1 17 2 -6 3 -10 9 -6 14
7 12 -17 11 -36 -1z"/>
<path d="M1250 361 c0 -6 -8 -11 -17 -11 -13 0 -14 -3 -5 -12 8 -8 15 -8 25 0
8 7 17 8 22 4 4 -4 6 -1 3 7 -5 18 -28 27 -28 12z"/>
<path d="M1399 354 c-12 -15 -41 -19 -52 -7 -11 10 -57 13 -57 2 0 -5 11 -9
25 -9 14 0 25 -4 25 -8 0 -4 -17 -7 -37 -5 l-38 2 35 -9 c23 -6 39 -5 48 3 10
8 16 7 23 -4 6 -10 9 -10 9 -1 0 6 7 12 16 12 8 0 12 5 9 10 -4 6 12 10 41 10
53 0 53 12 -1 16 -20 1 -39 -4 -46 -12z"/>
<path d="M1720 351 c0 -11 4 -23 10 -26 6 -4 9 5 8 19 -3 30 -18 35 -18 7z"/>
<path d="M1834 343 c2 -26 0 -30 -11 -22 -9 8 -13 8 -13 0 0 -6 -14 -11 -32
-11 -53 0 -23 -12 37 -15 33 -1 52 1 44 6 -7 4 -10 11 -6 15 3 4 13 1 22 -6 9
-7 18 -10 22 -7 3 4 -2 9 -11 13 -9 3 -16 14 -16 23 -1 13 -3 12 -12 -4 -12
-19 -13 -18 -20 10 l-7 30 3 -32z"/>
<path d="M1858 363 c7 -3 16 -2 19 1 4 3 -2 6 -13 5 -11 0 -14 -3 -6 -6z"/>
<path d="M2185 361 c-11 -5 -26 -6 -32 -4 -7 3 -13 1 -13 -4 0 -5 10 -9 21
-10 12 -1 31 -10 42 -20 16 -13 18 -14 9 -2 -7 9 -10 24 -6 33 7 18 7 18 -21
7z"/>
<path d="M2595 360 c3 -5 18 -10 32 -10 32 0 28 5 -10 14 -19 4 -26 3 -22 -4z"/>
<path d="M236 352 c-2 -4 -25 -7 -50 -6 -25 1 -46 -2 -46 -6 0 -12 69 -17 74
-5 3 6 5 5 5 -2 1 -7 9 -13 19 -12 11 0 12 2 4 6 -10 4 -10 8 -1 19 6 8 9 14
6 14 -3 0 -8 -4 -11 -8z"/>
<path d="M1580 349 c0 -5 5 -7 10 -4 6 3 10 8 10 11 0 2 -4 4 -10 4 -5 0 -10
-5 -10 -11z"/>
<path d="M1676 344 c-9 -23 -8 -24 13 -24 14 0 18 5 14 20 -6 24 -19 26 -27 4z"/>
<path d="M1777 354 c7 -3 9 -13 6 -22 -4 -15 -3 -15 6 -2 15 22 14 30 -6 29
-10 0 -13 -3 -6 -5z"/>
<path d="M1977 349 c7 -7 15 -10 18 -7 3 3 -2 9 -12 12 -14 6 -15 5 -6 -5z"/>
<path d="M2416 343 c-10 -26 -6 -33 19 -31 14 1 25 6 25 11 0 5 -10 5 -22 2
-16 -5 -20 -4 -13 3 6 5 19 12 30 14 17 3 15 5 -7 10 -18 3 -29 0 -32 -9z"/>
<path d="M560 347 c0 -2 6 -10 14 -16 11 -9 16 -9 22 1 4 7 4 10 -1 6 -4 -4
-14 -3 -22 3 -7 6 -13 9 -13 6z"/>
<path d="M746 343 c-4 -5 -22 -13 -39 -20 -31 -11 -31 -11 20 -10 28 1 49 5
47 9 -3 5 -10 6 -15 3 -5 -4 -9 -2 -9 4 0 5 6 12 13 14 6 3 7 6 1 6 -6 1 -14
-2 -18 -6z"/>
<path d="M990 341 c0 -6 -7 -11 -15 -11 -8 0 -15 -8 -14 -17 0 -11 3 -13 6 -5
2 6 11 12 18 12 18 0 28 17 15 25 -5 3 -10 1 -10 -4z"/>
<path d="M1516 342 c-3 -6 0 -13 6 -16 7 -3 1 -4 -14 -1 -15 3 -30 1 -33 -5
-3 -6 1 -7 9 -4 9 3 16 2 16 -2 0 -5 14 -10 31 -11 l32 -2 -19 22 c-10 12 -20
23 -20 25 -1 2 -5 -1 -8 -6z"/>
<path d="M2324 336 c5 -14 2 -17 -9 -12 -9 3 -14 2 -10 -3 3 -5 -1 -11 -7 -13
-7 -3 -1 -7 14 -10 20 -4 25 -2 20 10 -3 10 -1 13 6 8 6 -3 13 -2 17 4 4 6 11
8 16 5 5 -4 9 -1 9 5 0 7 -8 9 -21 5 -13 -5 -25 -2 -31 6 -7 11 -8 9 -4 -5z"/>
<path d="M2685 340 c-3 -5 -1 -10 4 -10 6 0 11 5 11 10 0 6 -2 10 -4 10 -3 0
-8 -4 -11 -10z"/>
<path d="M2820 341 c0 -7 -5 -9 -12 -5 -7 5 -8 3 -3 -5 5 -9 10 -10 18 -2 6 6
8 14 4 18 -4 3 -7 1 -7 -6z"/>
<path d="M35 331 c3 -2 -5 -16 -17 -30 l-23 -25 26 20 c16 12 40 19 58 18 42
-3 30 13 -14 18 -19 2 -32 2 -30 -1z"/>
<path d="M260 330 c0 -5 5 -10 11 -10 19 0 3 -25 -17 -26 -43 -2 -54 -4 -54
-12 0 -11 82 -2 98 11 7 5 15 7 19 3 3 -3 0 -6 -8 -6 -11 0 -11 -2 1 -10 8 -5
22 -10 30 -10 12 0 13 2 1 9 -11 7 -11 9 0 14 8 3 -1 8 -19 12 -19 5 -36 14
-39 21 -6 16 -23 19 -23 4z"/>
<path d="M345 331 c-3 -5 4 -13 16 -16 28 -9 33 -2 9 13 -11 6 -21 8 -25 3z"/>
<path d="M894 328 c-4 -7 -3 -8 4 -4 7 4 12 2 12 -3 0 -6 7 -11 16 -11 14 0
14 2 0 15 -18 18 -23 19 -32 3z"/>
<path d="M2080 329 c0 -5 5 -7 10 -4 6 3 10 8 10 11 0 2 -4 4 -10 4 -5 0 -10
-5 -10 -11z"/>
<path d="M2250 330 c0 -5 7 -7 15 -4 8 4 15 8 15 10 0 2 -7 4 -15 4 -8 0 -15
-4 -15 -10z"/>
<path d="M2486 325 c-3 -8 -1 -15 4 -15 6 0 10 4 10 9 0 5 10 12 23 14 20 4
19 4 -4 6 -16 0 -29 -5 -33 -14z"/>
<path d="M2970 330 c0 -5 7 -10 16 -10 8 0 12 5 9 10 -3 6 -10 10 -16 10 -5 0
-9 -4 -9 -10z"/>
<path d="M510 319 c0 -5 -4 -8 -8 -5 -4 2 -14 1 -22 -5 -11 -6 -8 -9 13 -9 17
0 27 5 27 15 0 8 -2 15 -5 15 -3 0 -5 -5 -5 -11z"/>
<path d="M540 319 c0 -5 5 -7 10 -4 6 3 10 8 10 11 0 2 -4 4 -10 4 -5 0 -10
-5 -10 -11z"/>
<path d="M661 322 c-1 -8 -11 -11 -31 -7 -26 5 -30 2 -30 -19 0 -13 7 -26 15
-30 8 -3 14 -2 14 2 -3 18 2 33 9 28 13 -8 35 11 29 25 -4 10 -6 11 -6 1z
m-44 -34 c-3 -8 -6 -5 -6 6 -1 11 2 17 5 13 3 -3 4 -12 1 -19z"/>
<path d="M815 319 c-4 -6 -5 -13 -2 -16 7 -7 27 6 27 18 0 12 -17 12 -25 -2z"/>
<path d="M1651 314 c0 -11 3 -14 6 -6 3 7 2 16 -1 19 -3 4 -6 -2 -5 -13z"/>
<path d="M1967 323 c-10 -9 -9 -23 1 -23 5 0 9 7 9 15 0 17 -1 18 -10 8z"/>
<path d="M2157 314 c3 -8 14 -14 25 -14 23 0 16 16 -11 23 -14 3 -18 1 -14 -9z"/>
<path d="M2217 292 c-11 -21 -16 -34 -11 -30 4 4 13 3 21 -3 8 -8 13 -8 13 -1
0 6 -6 12 -12 15 -10 3 -10 7 0 20 8 9 12 21 10 26 -1 5 -11 -7 -21 -27z"/>
<path d="M2726 318 c3 -5 10 -6 15 -2 6 3 9 -2 7 -12 -2 -15 4 -19 29 -20 24
-1 30 2 25 14 -4 11 -7 12 -10 4 -6 -20 -32 -14 -32 7 0 13 -6 19 -19 18 -11
0 -17 -5 -15 -9z"/>
<path d="M150 309 c0 -5 5 -7 10 -4 6 3 10 8 10 11 0 2 -4 4 -10 4 -5 0 -10
-5 -10 -11z"/>
<path d="M1020 311 c0 -6 3 -11 8 -12 102 -8 108 -8 72 2 -71 20 -80 21 -80
10z"/>
<path d="M1178 313 c-50 -8 -29 -18 38 -19 60 -1 64 0 43 12 -24 14 -33 14
-81 7z"/>
<path d="M1630 312 c0 -6 -10 -12 -22 -14 -14 -2 -19 -6 -12 -10 13 -9 52 17
41 28 -4 4 -7 2 -7 -4z"/>
<path d="M1915 310 c3 -5 8 -10 11 -10 2 0 4 5 4 10 0 6 -5 10 -11 10 -5 0 -7
-4 -4 -10z"/>
<path d="M2672 315 c3 -3 16 -8 28 -10 12 -2 20 -1 16 2 -4 4 -16 8 -28 10
-12 2 -19 1 -16 -2z"/>
<path d="M867 294 c6 -16 19 -18 27 -5 3 5 -3 11 -13 14 -14 3 -18 1 -14 -9z"/>
<path d="M980 300 c0 -5 7 -10 15 -10 8 0 15 5 15 10 0 6 -7 10 -15 10 -8 0
-15 -4 -15 -10z"/>
<path d="M1373 303 c-24 -2 -43 -7 -43 -11 0 -4 20 -6 45 -4 25 2 45 8 45 13
0 5 -1 8 -2 7 -2 -1 -22 -3 -45 -5z"/>
<path d="M1570 300 c0 -5 -10 -10 -22 -11 -22 0 -22 -1 2 -10 14 -5 30 -17 37
-25 10 -13 20 -14 58 -6 50 11 134 -3 117 -20 -5 -5 -19 -5 -34 1 -15 5 -30 6
-39 0 -10 -6 -4 -9 21 -10 19 -1 41 -3 49 -3 8 -1 17 -8 20 -17 4 -11 12 -14
25 -9 19 6 18 7 -3 13 -14 3 -20 10 -16 17 4 6 13 9 20 6 7 -2 16 2 19 10 3 8
17 14 31 14 14 0 25 5 25 11 0 5 -4 8 -9 5 -4 -3 -22 -1 -39 3 -22 7 -32 6
-36 -4 -3 -9 2 -11 16 -7 14 3 19 1 14 -6 -4 -7 -16 -12 -26 -12 -45 0 -71 29
-27 31 12 0 16 3 9 6 -7 3 -20 2 -30 -2 -25 -11 -102 -14 -102 -4 0 5 14 9 31
9 27 0 30 2 19 15 -14 17 -35 21 -25 5 3 -5 1 -10 -6 -10 -7 0 -21 -7 -31 -17
-15 -14 -22 -14 -42 -3 -14 7 -22 18 -19 26 3 8 2 14 -1 14 -3 0 -6 -4 -6 -10z"/>
<path d="M2035 299 c-4 -6 -5 -12 -2 -15 2 -3 7 2 10 11 7 17 1 20 -8 4z"/>
<path d="M2360 286 c0 -22 3 -27 11 -19 8 8 8 16 0 30 -9 16 -10 14 -11 -11z"/>
<path d="M2380 306 c0 -2 7 -7 16 -10 8 -3 12 -2 9 4 -6 10 -25 14 -25 6z"/>
<path d="M2630 300 c11 -7 11 -10 2 -10 -7 0 -10 -4 -7 -10 11 -17 -7 -11 -21
8 -7 9 -14 12 -14 6 0 -15 29 -39 37 -31 3 4 12 2 20 -4 8 -8 13 -8 13 -1 0 6
-6 13 -12 15 -10 4 -10 8 0 15 11 7 10 10 -3 16 -24 9 -32 7 -15 -4z"/>
<path d="M2820 294 c0 -8 5 -12 10 -9 6 3 10 10 10 16 0 5 -4 9 -10 9 -5 0
-10 -7 -10 -16z"/>
<path d="M2985 300 c-3 -5 -1 -10 4 -10 6 0 11 5 11 10 0 6 -2 10 -4 10 -3 0
-8 -4 -11 -10z"/>
<path d="M104 285 c10 -8 23 -12 29 -8 11 7 -12 23 -33 23 -12 -1 -11 -4 4
-15z"/>
<path d="M162 293 c-6 -2 -10 -9 -6 -14 8 -14 21 -11 28 6 6 15 1 17 -22 8z"/>
<path d="M361 278 c0 -16 2 -18 6 -8 3 8 11 18 17 22 7 5 4 8 -6 8 -12 0 -18
-7 -17 -22z"/>
<path d="M683 293 c-18 -7 -16 -20 2 -20 8 0 12 4 9 8 -2 4 4 10 13 12 12 3
13 5 3 5 -8 0 -21 -2 -27 -5z"/>
<path d="M2063 285 c0 -8 4 -15 9 -15 4 0 8 7 8 15 0 8 -4 15 -8 15 -5 0 -9
-7 -9 -15z"/>
<path d="M2100 293 c0 -5 9 -19 20 -31 12 -12 16 -22 11 -22 -6 0 -8 -7 -5
-15 4 -10 0 -15 -12 -15 -16 0 -17 -2 -4 -10 13 -9 13 -10 0 -11 -8 -1 -21 -1
-29 0 -7 2 -10 -2 -6 -8 10 -17 34 -13 47 9 7 11 18 20 25 20 7 0 13 5 13 10
0 6 -4 10 -10 10 -5 0 -9 3 -7 8 1 4 -8 20 -20 36 -13 16 -23 24 -23 19z"/>
<path d="M2487 286 c-9 -9 -19 -11 -28 -5 -8 5 -20 9 -28 9 -11 0 -11 -3 -1
-15 7 -8 16 -12 21 -9 5 3 9 2 9 -3 0 -4 12 -9 27 -10 16 -1 21 2 13 7 -7 4
-9 13 -6 19 4 6 12 8 18 5 7 -4 8 -2 4 4 -9 15 -12 15 -29 -2z"/>
<path d="M50 280 c-8 -5 -10 -10 -5 -10 6 0 17 5 25 10 8 5 11 10 5 10 -5 0
-17 -5 -25 -10z"/>
<path d="M530 275 c-6 -7 0 -10 18 -9 14 0 27 5 29 10 4 13 -36 12 -47 -1z"/>
<path d="M827 283 c-4 -3 -7 -11 -7 -17 0 -6 5 -5 12 2 6 6 9 14 7 17 -3 3 -9
2 -12 -2z"/>
<path d="M2280 280 c0 -5 5 -10 10 -10 6 0 10 5 10 10 0 6 -4 10 -10 10 -5 0
-10 -4 -10 -10z"/>
<path d="M408 273 c6 -2 18 -2 25 0 6 3 1 5 -13 5 -14 0 -19 -2 -12 -5z"/>
<path d="M487 260 c3 -11 8 -20 12 -20 4 0 7 9 7 20 0 11 -6 20 -12 20 -7 0
-10 -8 -7 -20z"/>
<path d="M710 268 c0 -14 9 -16 46 -13 54 4 65 11 30 17 -14 3 -23 1 -20 -3 8
-14 -30 -11 -44 3 -9 9 -12 8 -12 -4z"/>
<path d="M854 271 c4 -6 16 -16 28 -22 15 -8 18 -8 14 0 -4 6 -16 16 -28 22
-15 8 -18 8 -14 0z"/>
<path d="M905 271 c-3 -5 -1 -12 5 -16 5 -3 10 1 10 9 0 18 -6 21 -15 7z"/>
<path d="M965 270 c-19 -8 -19 -9 2 -9 12 -1 25 4 28 9 7 12 -2 12 -30 0z"/>
<path d="M1041 264 c0 -11 3 -14 6 -6 3 7 2 16 -1 19 -3 4 -6 -2 -5 -13z"/>
<path d="M1066 271 c-10 -15 58 -19 79 -5 11 8 15 14 9 14 -5 0 -16 -6 -23
-12 -11 -10 -14 -10 -18 0 -5 14 -39 16 -47 3z"/>
<path d="M1437 274 c-3 -3 -29 -6 -56 -7 -28 0 -51 -4 -51 -10 0 -5 11 -6 25
-3 18 5 25 2 25 -8 0 -8 -8 -17 -17 -19 -10 -2 -4 -3 14 -1 17 1 33 -1 35 -6
4 -11 53 -14 88 -6 14 3 34 3 44 0 19 -6 19 -7 1 -20 -10 -8 -15 -14 -9 -14 5
0 17 7 27 14 15 12 16 14 2 20 -8 3 -15 11 -15 18 0 10 2 10 9 -1 5 -8 11 -9
15 -3 3 5 -1 15 -9 22 -13 11 -18 10 -29 -5 -7 -10 -19 -16 -27 -13 -8 3 -24
1 -36 -3 -14 -5 -23 -5 -23 1 0 6 -11 10 -25 10 -14 0 -25 4 -25 9 0 5 12 8
26 5 16 -3 23 -1 19 6 -3 5 1 10 10 10 11 0 15 -5 11 -15 -6 -17 9 -21 19 -5
4 6 16 8 28 5 19 -5 19 -4 -3 9 -26 16 -62 21 -73 10z"/>
<path d="M1965 270 c3 -5 14 -10 23 -10 15 0 15 2 2 10 -20 13 -33 13 -25 0z"/>
<path d="M2386 263 c-6 -14 -5 -15 5 -6 7 7 10 15 7 18 -3 3 -9 -2 -12 -12z"/>
<path d="M2953 273 c-13 -3 -23 -12 -23 -21 0 -13 2 -14 9 -4 5 8 20 15 35 15
14 1 26 5 26 10 0 7 -9 7 -47 0z"/>
<path d="M1283 263 c-22 -8 -14 -23 12 -23 14 0 25 4 25 9 0 11 -21 19 -37 14z"/>
<path d="M2013 254 c0 -7 6 -15 14 -18 8 -3 13 2 13 13 0 10 -6 18 -13 18 -8
0 -14 -6 -14 -13z"/>
<path d="M2260 260 c0 -5 10 -10 22 -10 12 0 30 -7 40 -17 10 -9 18 -11 18 -6
0 6 -15 18 -34 27 -40 19 -46 20 -46 6z"/>
<path d="M2713 263 c9 -2 23 -2 30 0 6 3 -1 5 -18 5 -16 0 -22 -2 -12 -5z"/>
<path d="M2790 261 c0 -6 4 -13 10 -16 6 -3 7 1 4 9 -7 18 -14 21 -14 7z"/>
<path d="M2856 262 c-2 -4 4 -18 13 -31 14 -18 20 -21 26 -11 5 8 4 11 -2 7
-10 -7 -28 20 -25 36 2 9 -5 9 -12 -1z"/>
<path d="M136 244 c-3 -7 5 -9 20 -6 33 6 38 17 8 17 -13 0 -26 -5 -28 -11z"/>
<path d="M647 250 c-36 -7 -62 -20 -38 -20 9 0 9 -4 -1 -14 -9 -10 -17 -11
-25 -4 -18 14 -16 0 1 -18 8 -8 13 -24 11 -35 -4 -18 0 -20 20 -17 13 3 26 0
29 -6 2 -6 3 -1 3 11 -1 17 -6 22 -18 18 -25 -8 -34 26 -12 43 10 7 17 17 16
21 -1 4 11 5 26 3 16 -2 31 1 35 6 9 16 -5 19 -47 12z"/>
<path d="M1175 251 c-3 -5 5 -12 17 -14 17 -3 15 -5 -9 -6 -17 0 -35 -5 -38
-11 -3 -5 -12 -10 -18 -10 -8 0 -7 3 2 9 10 6 5 11 -19 16 -21 5 -36 3 -43 -5
-9 -10 -7 -11 12 -7 16 4 28 1 36 -10 10 -13 19 -14 51 -6 22 5 49 6 59 2 36
-14 85 -10 85 6 0 8 -7 15 -15 15 -8 0 -15 -6 -15 -12 0 -8 -3 -9 -8 -3 -4 6
-15 10 -24 10 -10 0 -18 4 -17 9 2 20 -45 34 -56 17z"/>
<path d="M1240 250 c0 -5 5 -10 10 -10 6 0 10 5 10 10 0 6 -4 10 -10 10 -5 0
-10 -4 -10 -10z"/>
<path d="M1903 250 c-13 -5 -23 -11 -23 -14 0 -2 10 -2 23 1 18 5 20 3 10 -7
-7 -7 -28 -13 -48 -12 -29 1 -35 -2 -35 -18 0 -11 -6 -20 -14 -20 -8 0 -17 -4
-21 -9 -3 -6 7 -6 26 -1 35 10 53 5 42 -13 -4 -7 1 -5 11 3 17 13 17 15 -8 23
-35 12 -33 24 4 24 23 0 30 -5 30 -20 0 -13 5 -17 16 -13 9 3 18 6 20 6 2 0 4
4 4 10 0 5 -7 7 -15 4 -10 -4 -15 0 -15 10 0 9 7 19 15 22 8 4 15 12 15 20 0
16 -6 16 -37 4z"/>
<path d="M2087 253 c-8 -7 11 -33 23 -33 5 0 6 9 3 20 -5 20 -15 25 -26 13z"/>
<path d="M2520 256 c0 -26 73 -55 86 -34 5 8 2 9 -9 5 -10 -3 -17 -2 -17 4 0
6 -5 7 -11 4 -5 -4 -19 1 -30 11 -10 9 -19 14 -19 10z"/>
<path d="M2820 249 c0 -5 5 -7 10 -4 6 3 10 8 10 11 0 2 -4 4 -10 4 -5 0 -10
-5 -10 -11z"/>
<path d="M5 240 c-3 -5 -1 -10 4 -10 6 0 11 5 11 10 0 6 -2 10 -4 10 -3 0 -8
-4 -11 -10z"/>
<path d="M35 239 c-10 -15 3 -25 16 -12 7 7 7 13 1 17 -6 3 -14 1 -17 -5z"/>
<path d="M330 241 c-15 -4 -20 -10 -13 -14 13 -8 43 1 43 14 0 5 -1 9 -2 8 -2
-1 -14 -4 -28 -8z"/>
<path d="M518 229 c-10 -10 -18 -24 -18 -31 0 -6 9 -1 20 12 11 13 20 27 20
32 0 11 -2 10 -22 -13z"/>
<path d="M926 241 c-3 -5 1 -11 9 -15 15 -6 29 7 18 18 -9 9 -21 8 -27 -3z"/>
<path d="M971 243 c5 -32 -33 -74 -46 -53 -4 6 -11 10 -16 10 -6 0 -7 -4 -4
-10 3 -5 -3 -10 -14 -10 -12 0 -21 -4 -21 -10 0 -12 2 -12 34 0 19 7 26 6 26
-2 0 -6 9 -3 19 6 11 10 24 15 30 12 5 -4 12 -2 16 4 4 6 11 8 16 5 15 -10 10
14 -8 35 -17 20 -34 27 -32 13z m24 -43 c-6 -9 -9 -9 -16 1 -10 17 0 34 13 21
6 -6 7 -16 3 -22z"/>
<path d="M2174 243 c10 -11 36 -12 36 -2 0 5 -10 9 -22 9 -12 0 -18 -3 -14 -7z"/>
<path d="M2420 246 c0 -2 7 -7 16 -10 8 -3 12 -2 9 4 -6 10 -25 14 -25 6z"/>
<path d="M2618 243 c7 -3 16 -2 19 1 4 3 -2 6 -13 5 -11 0 -14 -3 -6 -6z"/>
<path d="M2708 243 c7 -3 16 -2 19 1 4 3 -2 6 -13 5 -11 0 -14 -3 -6 -6z"/>
<path d="M220 229 c0 -5 5 -7 10 -4 13 8 13 -8 0 -21 -5 -5 -6 -15 0 -24 8
-12 11 -13 22 -2 7 8 9 13 3 12 -22 -5 -27 1 -15 15 12 15 6 35 -11 35 -5 0
-9 -5 -9 -11z"/>
<path d="M718 233 c6 -2 18 -2 25 0 6 3 1 5 -13 5 -14 0 -19 -2 -12 -5z"/>
<path d="M766 226 c4 -12 -1 -14 -23 -10 -15 2 -23 1 -18 -3 13 -11 17 -33 6
-33 -5 0 -11 6 -14 13 -2 6 -8 9 -12 5 -4 -4 5 -18 20 -32 32 -30 40 -33 27
-10 -13 23 -3 54 14 47 9 -3 14 2 14 16 0 12 -4 21 -10 21 -5 0 -7 -7 -4 -14z"/>
<path d="M855 230 c-3 -6 1 -7 9 -4 18 7 21 14 7 14 -6 0 -13 -4 -16 -10z"/>
<path d="M1656 231 c-4 -7 -5 -15 -2 -18 9 -9 19 4 14 18 -4 11 -6 11 -12 0z"/>
<path d="M2374 228 c-4 -7 -3 -8 4 -4 7 4 12 2 12 -3 0 -6 4 -11 10 -11 5 0 7
7 4 15 -7 18 -20 19 -30 3z"/>
<path d="M2480 230 c-11 -7 -12 -12 -4 -20 8 -8 13 -6 17 9 3 12 4 21 4 21 -1
0 -9 -5 -17 -10z"/>
<path d="M98 225 c-3 -3 -16 -8 -28 -10 -12 -2 -25 -7 -29 -11 -10 -11 62 5
73 16 7 7 6 10 0 10 -6 0 -13 -2 -16 -5z"/>
<path d="M190 215 c7 -9 15 -13 17 -11 7 7 -7 26 -19 26 -6 0 -6 -6 2 -15z"/>
<path d="M888 217 c-7 -7 -21 -16 -30 -20 -12 -4 -15 -12 -11 -24 6 -16 8 -16
11 -2 1 9 14 22 27 29 14 7 25 17 25 22 0 11 -7 10 -22 -5z"/>
<path d="M1955 219 c-18 -7 -18 -8 -2 -8 10 -1 15 -5 12 -11 -8 -13 16 -13 35
1 13 9 13 10 -2 5 -9 -2 -18 1 -20 8 -2 9 -9 11 -23 5z"/>
<path d="M2040 220 c-10 -6 -11 -10 -2 -10 6 0 12 -5 12 -11 0 -6 -7 -9 -15
-5 -8 3 -20 -3 -27 -13 -15 -20 -48 -35 -48 -21 0 6 -5 10 -10 10 -6 0 -5 -8
2 -20 8 -13 16 -16 22 -10 6 6 21 10 36 11 14 0 19 3 13 6 -7 2 -13 9 -13 15
0 6 6 8 13 5 21 -8 39 8 35 31 -2 16 -7 19 -18 12z"/>
<path d="M2270 226 c0 -2 15 -9 33 -15 29 -10 30 -9 13 4 -18 14 -46 20 -46
11z"/>
<path d="M2622 214 c-25 -16 -72 -23 -72 -10 0 6 -4 5 -9 -3 -7 -11 -10 -10
-13 5 -3 18 -4 18 -24 -1 -11 -11 -26 -21 -33 -23 -7 -1 -19 -9 -27 -16 -7 -8
-19 -16 -26 -19 -7 -2 -10 -8 -6 -12 5 -5 16 -1 25 8 10 8 25 17 33 19 8 2 22
11 32 21 10 12 17 14 20 6 3 -9 17 -9 57 0 67 14 79 7 18 -11 -25 -7 -46 -17
-48 -23 -2 -5 -6 -9 -9 -8 -3 1 -13 5 -24 9 -14 5 -17 3 -14 -7 8 -24 118 -5
118 20 0 5 10 11 23 13 13 2 21 10 19 18 -2 12 1 11 11 -2 13 -16 80 -24 144
-16 20 2 21 4 8 18 -8 9 -12 20 -8 24 4 4 -1 4 -11 0 -14 -5 -15 -9 -5 -15 8
-4 10 -11 6 -15 -10 -10 -79 -6 -91 6 -6 6 4 8 30 5 21 -2 33 -1 26 2 -6 2
-10 9 -6 14 3 5 -2 9 -10 9 -9 0 -16 -5 -16 -11 0 -5 -5 -7 -10 -4 -6 4 -17 1
-25 -5 -14 -12 -39 -5 -31 9 7 11 -34 8 -52 -5z"/>
<path d="M2977 219 c7 -7 15 -10 18 -7 3 3 -2 9 -12 12 -14 6 -15 5 -6 -5z"/>
<path d="M138 213 c6 -2 18 -2 25 0 6 3 1 5 -13 5 -14 0 -19 -2 -12 -5z"/>
<path d="M418 213 c7 -3 16 -2 19 1 4 3 -2 6 -13 5 -11 0 -14 -3 -6 -6z"/>
<path d="M540 209 c0 -13 -33 -37 -50 -36 -3 0 -15 -5 -27 -12 -16 -8 -23 -8
-23 -1 0 6 -7 4 -16 -5 -13 -13 -19 -14 -25 -4 -4 8 -11 10 -15 7 -4 -4 -16
-2 -28 4 -19 10 -20 10 -7 -6 8 -10 21 -14 30 -11 13 5 13 4 4 -6 -9 -9 -16
-9 -25 -1 -8 6 -26 9 -41 8 -17 -2 -27 2 -27 10 0 8 -6 11 -16 7 -16 -6 -16
-7 0 -18 22 -17 137 -29 145 -16 4 5 31 13 61 16 30 3 63 8 73 11 18 6 24 24
6 24 -5 0 -8 4 -5 8 2 4 1 14 -5 22 -7 13 -9 13 -9 -1z m10 -39 c0 -5 -10 -10
-22 -10 -19 0 -20 2 -8 10 19 13 30 13 30 0z"/>
<path d="M807 213 c-12 -11 -8 -45 5 -41 17 6 30 48 14 48 -7 0 -16 -3 -19 -7z"/>
<path d="M1590 211 c0 -10 41 -23 49 -16 2 3 -1 5 -8 5 -7 0 -9 5 -6 10 3 6
-3 10 -14 10 -12 0 -21 -4 -21 -9z"/>
<path d="M2178 206 c-17 -12 -17 -14 0 -29 16 -14 17 -13 17 14 0 16 0 29 0
29 0 0 -8 -7 -17 -14z"/>
<path d="M2235 205 c-3 -8 -7 -22 -10 -30 -4 -12 -1 -13 15 -5 10 5 30 10 44
10 14 0 26 5 26 10 0 12 2 12 -38 1 -30 -9 -32 -8 -27 10 4 10 4 19 0 19 -3 0
-8 -7 -10 -15z"/>
<path d="M2430 205 c0 -9 6 -12 15 -9 8 4 15 10 15 15 0 5 -7 9 -15 9 -8 0
-15 -7 -15 -15z"/>
<path d="M7 203 c-6 -9 13 -27 31 -30 16 -4 15 5 -2 23 -16 16 -23 17 -29 7z"/>
<path d="M660 201 c0 -5 -10 -12 -22 -14 -21 -4 -21 -4 -2 -6 11 0 29 6 40 14
17 13 17 14 2 15 -10 0 -18 -4 -18 -9z"/>
<path d="M1194 201 c-5 -5 -20 -11 -34 -14 l-25 -4 25 -1 c26 -2 58 13 49 22
-3 3 -10 2 -15 -3z"/>
<path d="M1333 203 c9 -2 23 -2 30 0 6 3 -1 5 -18 5 -16 0 -22 -2 -12 -5z"/>
<path d="M1700 200 c-8 -5 -11 -12 -8 -16 4 -3 14 1 23 10 18 17 9 21 -15 6z"/>
<path d="M2360 201 c8 -6 12 -11 8 -12 -5 -1 -12 -3 -18 -4 -5 -1 -14 -3 -19
-4 -5 0 -7 -10 -4 -21 3 -11 0 -20 -6 -20 -6 0 -11 -4 -11 -10 0 -23 21 -8 26
19 4 20 11 28 20 24 16 -6 19 -33 4 -33 -5 0 -10 -7 -10 -15 0 -13 -18 -20
-42 -16 -5 0 -8 -4 -8 -9 0 -12 52 -9 61 4 4 4 15 3 26 -2 26 -15 27 13 2 50
-24 33 -24 46 -1 26 11 -11 24 -13 37 -8 19 8 19 9 -3 9 -13 1 -21 5 -18 9 3
5 0 9 -7 9 -7 0 -21 4 -32 8 -16 5 -17 5 -5 -4z m33 -75 c4 -10 1 -13 -9 -9
-15 6 -19 23 -5 23 5 0 11 -7 14 -14z"/>
<path d="M2901 201 c-8 -5 -21 -7 -30 -5 -9 3 -6 -1 7 -7 13 -7 21 -18 18 -26
-3 -7 -1 -13 4 -13 6 0 10 9 10 19 0 14 5 18 19 14 11 -3 28 0 38 6 15 10 13
11 -14 7 -18 -2 -33 0 -35 5 -2 5 -9 5 -17 0z"/>
<path d="M136 173 c31 -25 44 -29 44 -13 0 5 -3 9 -7 8 -5 -2 -9 2 -9 7 -1 6
2 9 7 8 5 -2 9 1 9 6 0 5 -16 8 -36 8 l-36 -1 28 -23z"/>
<path d="M190 180 c0 -5 5 -10 11 -10 5 0 7 5 4 10 -3 6 -8 10 -11 10 -2 0 -4
-4 -4 -10z"/>
<path d="M1083 183 c9 -2 23 -2 30 0 6 3 -1 5 -18 5 -16 0 -22 -2 -12 -5z"/>
<path d="M1398 183 c6 -2 18 -2 25 0 6 3 1 5 -13 5 -14 0 -19 -2 -12 -5z"/>
<path d="M1728 183 c6 -2 18 -2 25 0 6 3 1 5 -13 5 -14 0 -19 -2 -12 -5z"/>
<path d="M65 171 c-12 -12 -3 -23 15 -18 10 3 25 -2 31 -9 10 -12 6 -21 -17
-46 -26 -28 -19 -31 14 -5 7 6 32 11 54 11 43 1 56 19 36 47 -8 11 -9 10 -4
-3 3 -11 -2 -22 -15 -29 -17 -9 -24 -6 -45 16 -13 14 -24 30 -24 35 0 9 -37
10 -45 1z"/>
<path d="M766 171 c-3 -5 1 -11 9 -15 8 -3 15 -1 15 4 0 13 -18 22 -24 11z"/>
<path d="M1230 176 c0 -9 30 -14 35 -6 4 6 -3 10 -14 10 -12 0 -21 -2 -21 -4z"/>
<path d="M1288 169 c4 -4 21 -9 37 -12 17 -4 24 -4 17 -1 -6 3 -10 9 -8 12 2
4 -9 7 -24 7 -16 0 -26 -3 -22 -6z"/>
<path d="M1361 164 c6 -8 18 -14 26 -14 20 0 8 16 -17 23 -17 4 -19 3 -9 -9z"/>
<path d="M1578 172 c-10 -2 -18 -8 -18 -13 0 -6 5 -7 10 -4 6 3 10 2 10 -4 0
-6 10 -15 21 -22 17 -9 20 -8 14 2 -6 8 -4 11 6 7 20 -8 66 26 50 36 -6 4 -11
3 -11 -3 0 -6 -7 -7 -17 -4 -12 5 -14 3 -8 -8 7 -11 4 -11 -15 2 -14 8 -33 13
-42 11z"/>
<path d="M2860 170 c0 -5 5 -10 11 -10 5 0 7 5 4 10 -3 6 -8 10 -11 10 -2 0
-4 -4 -4 -10z"/>
<path d="M2980 170 c0 -5 -15 -11 -32 -11 -19 -1 -25 -3 -15 -6 24 -6 67 5 67
17 0 6 -4 10 -10 10 -5 0 -10 -4 -10 -10z"/>
<path d="M680 162 c0 -5 7 -9 15 -9 8 0 12 4 9 9 -7 10 -24 10 -24 0z"/>
<path d="M1123 154 c27 -14 37 -34 17 -34 -5 0 -10 5 -10 12 0 6 -7 3 -16 -8
-12 -15 -15 -16 -10 -2 2 9 -2 22 -11 30 -14 11 -15 10 -8 -12 8 -24 8 -24
-19 -6 -16 10 -35 14 -47 11 -26 -9 -15 -25 13 -17 16 4 19 2 13 -8 -5 -8 -4
-11 3 -7 5 4 21 3 33 -2 13 -4 36 -5 51 0 16 4 28 4 28 -2 0 -5 4 -9 8 -9 4 0
8 13 7 29 0 19 -4 27 -12 24 -7 -3 -13 0 -13 6 0 6 -12 11 -27 11 l-28 -1 28
-15z"/>
<path d="M1440 156 c12 -15 40 -11 40 5 0 13 -18 11 -23 -3 -4 -10 -6 -10 -6
0 -1 6 -6 12 -12 12 -8 0 -8 -4 1 -14z"/>
<path d="M1512 163 c-7 -2 -17 -13 -22 -24 -8 -15 -7 -17 5 -13 8 4 15 10 15
15 0 5 8 9 18 9 11 0 13 -3 5 -8 -7 -4 -9 -13 -4 -21 7 -10 9 -9 14 3 7 17 -1
47 -12 45 -3 0 -12 -3 -19 -6z"/>
<path d="M2120 155 c-13 -16 -5 -20 29 -16 7 2 10 -2 6 -8 -3 -7 0 -8 9 -5 9
3 16 1 16 -4 0 -6 -8 -13 -17 -15 -14 -4 -14 -5 3 -6 14 -1 24 6 27 19 4 14 0
20 -11 20 -10 0 -24 5 -32 11 -12 9 -11 10 8 6 12 -3 20 -1 16 4 -8 14 -40 11
-54 -6z"/>
<path d="M1201 139 c6 -12 19 -24 30 -26 11 -3 16 -10 12 -17 -4 -6 1 -5 10 3
21 16 22 32 3 25 -8 -3 -23 -1 -33 5 -16 9 -16 10 5 11 13 0 20 4 17 10 -3 6
-17 10 -31 10 -22 0 -23 -2 -13 -21z"/>
<path d="M1684 151 c-11 -11 -2 -19 16 -16 11 2 22 0 25 -6 4 -5 11 -9 16 -9
6 0 7 5 3 12 -5 7 -2 9 8 6 8 -4 21 -3 28 2 8 5 -8 9 -39 11 -29 2 -55 2 -57
0z"/>
<path d="M1800 134 c-19 -15 -28 -24 -20 -22 19 7 45 -18 27 -25 -9 -4 -9 -6
0 -6 6 -1 15 4 18 9 5 7 11 8 19 1 8 -7 12 -4 12 10 0 10 -4 19 -7 19 -4 0 -9
9 -11 21 -3 19 -4 19 -38 -7z m30 -4 c0 -5 -4 -10 -10 -10 -5 0 -10 5 -10 10
0 6 5 10 10 10 6 0 10 -4 10 -10z"/>
<path d="M2074 149 c-7 -12 17 -32 26 -22 3 3 -1 8 -8 10 -6 3 -10 9 -6 14 3
5 3 9 0 9 -3 0 -8 -5 -12 -11z"/>
<path d="M2676 152 c-38 -3 -49 -7 -53 -23 -3 -11 -14 -19 -26 -19 -20 0 -20
0 -1 15 10 8 14 15 8 15 -17 0 -37 -27 -29 -40 3 -5 -1 -10 -9 -10 -11 0 -16
-9 -16 -29 0 -22 4 -28 18 -26 9 2 23 4 30 4 6 1 12 5 12 10 0 4 -11 6 -25 3
-30 -5 -31 2 -5 28 24 24 34 26 26 5 -10 -27 8 -16 26 15 11 19 22 28 31 24 8
-3 18 -1 21 5 4 5 17 6 34 2 15 -5 38 -4 52 1 13 5 34 7 46 4 12 -3 33 -2 45
3 19 6 12 9 -36 13 -35 3 -65 1 -73 -5 -8 -7 -16 -7 -20 -1 -4 5 -29 8 -56 6z"/>
<path d="M560 140 c0 -5 5 -10 11 -10 5 0 7 5 4 10 -3 6 -8 10 -11 10 -2 0 -4
-4 -4 -10z"/>
<path d="M810 135 c0 -8 7 -15 15 -15 9 0 12 6 9 15 -4 8 -10 15 -15 15 -5 0
-9 -7 -9 -15z"/>
<path d="M840 146 c0 -10 28 -13 41 -5 10 6 7 9 -13 9 -16 0 -28 -2 -28 -4z"/>
<path d="M1285 130 c10 -11 23 -20 28 -20 6 0 2 7 -9 16 -17 14 -17 15 -1 10
11 -3 16 -2 12 4 -3 6 -16 10 -27 10 -20 0 -21 -1 -3 -20z"/>
<path d="M1875 138 c-7 -16 -2 -55 8 -64 4 -4 7 6 8 22 0 27 1 28 9 7 6 -15
15 -21 25 -17 8 3 12 10 9 15 -3 5 -10 7 -15 4 -5 -4 -9 0 -9 8 0 8 -7 20 -15
27 -12 10 -16 9 -20 -2z"/>
<path d="M1936 128 c16 -12 32 -26 35 -31 9 -13 29 1 29 19 0 17 -17 19 -22 2
-3 -8 -11 -5 -23 10 -11 12 -26 22 -34 22 -7 0 -1 -10 15 -22z"/>
<path d="M2230 141 c0 -5 5 -13 10 -16 6 -3 10 -2 10 4 0 5 -4 13 -10 16 -5 3
-10 2 -10 -4z"/>
<path d="M2460 140 c-8 -5 -11 -12 -7 -16 4 -4 13 -2 19 4 15 15 7 24 -12 12z"/>
<path d="M53 122 c-33 -16 -42 -35 -23 -47 6 -3 10 1 10 10 0 11 5 15 16 11 8
-3 12 -2 9 3 -3 6 3 14 12 20 31 17 10 19 -24 3z"/>
<path d="M510 125 c-8 -9 -8 -15 -2 -15 12 0 26 19 19 26 -2 2 -10 -2 -17 -11z"/>
<path d="M697 129 c7 -7 15 -10 18 -7 3 3 -2 9 -12 12 -14 6 -15 5 -6 -5z"/>
<path d="M1384 105 c1 -25 -4 -40 -13 -43 -10 -3 -12 0 -7 13 5 15 4 16 -9 5
-24 -20 -19 -43 8 -34 12 3 24 11 25 15 2 5 8 7 13 4 5 -3 17 -2 27 4 11 6 24
6 36 -1 13 -7 20 -7 26 1 5 9 10 8 20 -4 10 -12 10 -15 -4 -15 -9 0 -16 -3
-17 -7 0 -5 -2 -16 -4 -26 -4 -20 -1 -21 25 -7 11 6 17 16 14 23 -3 10 5 13
31 11 40 -4 44 1 14 17 -15 8 -19 8 -15 0 10 -15 -6 -14 -28 2 -18 13 -18 14
-2 20 10 4 26 2 38 -4 15 -8 22 -7 32 6 11 15 15 15 59 -4 39 -17 47 -18 47
-6 0 8 6 15 14 15 8 0 17 4 20 8 7 12 -30 8 -46 -6 -9 -7 -18 -8 -28 -1 -13 9
-13 9 0 7 9 -2 15 2 15 7 0 6 -4 9 -10 7 -5 -2 -23 -4 -40 -4 -16 -1 -35 -8
-42 -17 -9 -12 -12 -13 -13 -2 0 10 -12 12 -52 7 -29 -4 -68 -9 -85 -11 -26
-3 -33 0 -33 13 0 9 -4 23 -9 31 -5 8 -8 0 -7 -24z"/>
<path d="M1563 133 c-18 -6 -16 -23 1 -23 17 0 30 16 19 23 -5 2 -14 2 -20 0z"/>
<path d="M2020 130 c0 -5 5 -10 11 -10 5 0 7 5 4 10 -3 6 -8 10 -11 10 -2 0
-4 -4 -4 -10z"/>
<path d="M2278 133 c7 -3 16 -2 19 1 4 3 -2 6 -13 5 -11 0 -14 -3 -6 -6z"/>
<path d="M2880 120 c-6 -11 -8 -24 -5 -29 3 -5 -3 -12 -12 -14 -12 -3 -8 -5 9
-6 28 -1 51 20 30 27 -7 2 -12 10 -12 18 0 9 4 12 10 9 5 -3 18 -1 27 4 16 9
14 10 -9 11 -17 0 -31 -7 -38 -20z"/>
<path d="M242 114 c-14 -16 -5 -18 17 -5 7 5 9 11 5 14 -5 3 -15 -1 -22 -9z"/>
<path d="M420 116 c-22 -10 -22 -27 1 -34 8 -3 10 -1 6 4 -5 5 9 16 30 25 34
15 35 16 11 15 -15 0 -37 -5 -48 -10z"/>
<path d="M591 114 c-1 -21 21 -26 46 -11 7 5 31 3 53 -3 22 -6 45 -8 50 -5 5
3 18 1 29 -4 16 -9 19 -7 17 14 -1 24 -16 37 -16 14 0 -6 -7 -9 -15 -6 -8 4
-17 2 -20 -3 -3 -5 -20 -4 -38 1 -19 5 -48 7 -65 5 -17 -2 -33 2 -36 8 -2 6
-5 2 -5 -10z"/>
<path d="M967 110 c-3 -11 -2 -22 2 -24 4 -3 8 6 9 20 2 29 -4 31 -11 4z"/>
<path d="M2805 121 c-3 -6 -14 -11 -24 -11 -13 0 -17 -9 -18 -37 -1 -21 1 -31
3 -21 4 13 11 15 36 7 18 -5 34 -6 37 -4 2 3 -2 5 -9 5 -8 0 -5 7 8 19 23 20
31 41 9 22 -8 -6 -17 -8 -20 -4 -4 3 -9 -2 -13 -11 -8 -20 -34 -21 -34 -1 0 8
6 15 14 15 16 0 31 18 23 26 -3 3 -8 1 -12 -5z"/>
<path d="M560 110 c0 -5 5 -10 10 -10 6 0 10 5 10 10 0 6 -4 10 -10 10 -5 0
-10 -4 -10 -10z"/>
<path d="M2055 112 c-18 -13 -16 -38 5 -57 18 -17 20 -17 14 -2 -3 9 -10 17
-15 17 -5 0 -9 5 -9 10 0 6 10 10 23 10 12 1 33 8 47 16 23 14 12 13 -27 -3
-7 -3 -13 0 -13 6 0 13 -10 14 -25 3z"/>
<path d="M2276 111 c-5 -7 -19 -11 -31 -9 -16 4 -22 1 -18 -9 10 -25 70 -8 61
18 -4 11 -6 11 -12 0z"/>
<path d="M2420 109 c0 -5 5 -7 10 -4 6 3 10 8 10 11 0 2 -4 4 -10 4 -5 0 -10
-5 -10 -11z"/>
<path d="M2520 111 c0 -5 -8 -8 -17 -7 -10 2 -33 -4 -51 -13 -31 -14 -32 -16
-11 -23 16 -6 28 -3 41 9 16 14 21 15 27 4 11 -17 34 -4 27 14 -3 8 0 16 7 19
7 2 4 5 -5 5 -10 1 -18 -3 -18 -8z"/>
<path d="M2933 106 c-8 -9 -8 -17 -1 -24 15 -15 38 -3 38 19 0 22 -20 24 -37
5z"/>
<path d="M271 93 c-6 -10 -11 -13 -11 -8 0 6 -5 3 -11 -5 -8 -11 -12 -12 -16
-2 -5 14 -49 17 -57 3 -9 -14 6 -21 25 -10 15 7 19 6 19 -5 0 -8 8 -14 18 -14
9 1 30 -2 45 -6 19 -4 26 -3 22 4 -3 5 -13 10 -22 10 -13 0 -13 3 -3 15 7 9
19 14 26 11 7 -3 16 -1 19 4 4 6 2 10 -4 10 -5 0 -16 3 -24 6 -9 3 -20 -2 -26
-13z"/>
<path d="M368 103 c7 -3 16 -2 19 1 4 3 -2 6 -13 5 -11 0 -14 -3 -6 -6z"/>
<path d="M996 94 c-3 -8 -2 -13 3 -9 5 3 11 0 13 -7 3 -8 7 -6 11 4 3 9 0 19
-8 22 -7 2 -16 -2 -19 -10z"/>
<path d="M2700 102 c8 -4 15 -13 16 -19 1 -7 2 -21 3 -32 0 -10 10 -21 22 -24
12 -3 18 -10 14 -16 -4 -8 2 -8 20 -1 33 13 38 13 30 -1 -5 -7 -2 -7 11 0 27
14 58 24 67 22 5 -1 6 3 2 9 -3 5 -2 10 4 10 5 0 12 -4 15 -9 8 -12 66 -20 72
-9 3 4 -9 8 -25 8 -17 0 -31 5 -31 11 0 5 6 7 13 3 8 -5 8 -2 -2 9 -15 18 -26
23 -16 7 3 -6 0 -10 -8 -10 -8 0 -27 -6 -43 -14 -16 -8 -41 -14 -56 -12 -15 2
-25 -1 -22 -5 8 -13 -19 -10 -36 4 -16 13 -19 44 -7 65 6 9 -1 12 -25 11 -20
0 -27 -3 -18 -7z"/>
<path d="M336 84 c-4 -11 0 -14 17 -12 16 2 21 -1 19 -15 -2 -10 7 -22 23 -29
18 -8 22 -14 13 -20 -10 -6 -8 -8 5 -8 24 0 21 15 -6 37 -13 10 -22 23 -20 29
2 6 -7 16 -21 22 -20 9 -25 8 -30 -4z"/>
<path d="M455 90 c3 -5 -1 -11 -7 -13 -7 -3 1 -6 17 -6 23 -1 27 -4 15 -11 -8
-5 -26 -10 -39 -10 -36 0 -13 -18 29 -23 19 -2 27 -2 17 0 -9 2 -15 8 -12 13
8 13 45 -1 56 -21 5 -11 20 -19 32 -18 14 0 17 2 7 6 -23 8 -70 55 -70 69 0
10 7 11 31 2 16 -6 28 -12 25 -15 -10 -10 31 -38 59 -40 25 -1 27 1 14 10 -9
7 -14 18 -12 25 3 7 -3 12 -14 11 -10 0 -13 -3 -6 -5 7 -3 10 -11 7 -19 -4
-10 -13 -5 -32 16 -22 24 -37 31 -74 33 -26 2 -46 0 -43 -4z"/>
<path d="M850 93 c-19 -2 -40 -11 -47 -19 -7 -10 -19 -13 -31 -10 -11 4 -23 2
-27 -4 -5 -8 9 -10 43 -8 42 2 48 5 39 17 -10 11 -5 13 25 9 20 -2 35 -1 32 3
-2 4 2 10 8 12 14 6 11 6 -42 0z"/>
<path d="M1770 89 c0 -5 5 -7 10 -4 6 3 10 8 10 11 0 2 -4 4 -10 4 -5 0 -10
-5 -10 -11z"/>
<path d="M2015 91 c3 -5 -2 -12 -10 -14 -12 -4 -12 -5 1 -3 19 1 32 26 14 26
-6 0 -9 -4 -5 -9z"/>
<path d="M2984 89 c-3 -6 -1 -16 5 -22 8 -8 11 -5 11 11 0 24 -5 28 -16 11z"/>
<path d="M136 69 c12 -13 13 -18 2 -22 -9 -4 -7 -6 4 -6 9 -1 20 4 23 9 3 6 1
10 -5 10 -7 0 -10 6 -7 14 4 10 0 14 -13 13 -17 -1 -18 -3 -4 -18z"/>
<path d="M1073 76 c0 -9 6 -16 14 -16 16 0 17 -12 1 -30 -7 -8 -4 -7 7 3 19
17 19 17 -1 38 -17 16 -21 17 -21 5z"/>
<path d="M1119 77 c6 -8 9 -16 6 -19 -3 -3 11 -2 32 1 20 3 38 12 41 19 3 11
0 11 -18 0 -18 -10 -24 -10 -27 0 -3 6 -14 12 -25 12 -16 0 -18 -3 -9 -13z"/>
<path d="M1946 82 c-3 -5 1 -9 9 -9 8 0 12 4 9 9 -3 4 -7 8 -9 8 -2 0 -6 -4
-9 -8z"/>
<path d="M2137 79 c7 -7 15 -10 18 -7 3 3 -2 9 -12 12 -14 6 -15 5 -6 -5z"/>
<path d="M2190 79 c0 -5 -3 -8 -8 -5 -4 2 -15 -2 -25 -9 -28 -20 -4 -27 32 -9
33 16 41 34 16 34 -8 0 -15 -5 -15 -11z"/>
<path d="M696 68 c4 -13 1 -15 -17 -11 -16 4 -20 2 -17 -8 3 -9 16 -13 34 -11
22 2 26 1 14 -7 -9 -7 -10 -11 -3 -11 22 0 23 18 3 41 -13 15 -18 18 -14 7z"/>
<path d="M910 56 c0 -26 24 -51 40 -41 18 11 11 23 -10 18 -11 -3 -20 0 -20 6
0 6 7 11 16 11 14 0 14 3 4 15 -18 22 -30 18 -30 -9z"/>
<path d="M1218 73 c7 -3 16 -2 19 1 4 3 -2 6 -13 5 -11 0 -14 -3 -6 -6z"/>
<path d="M1723 73 c-10 -3 -10 -10 -2 -24 5 -11 7 -25 3 -31 -4 -7 -3 -8 4 -4
7 4 12 14 12 22 0 8 6 14 14 14 8 0 18 5 21 10 4 7 -3 8 -21 4 -19 -5 -25 -4
-20 5 8 12 7 12 -11 4z"/>
<path d="M2104 72 c3 -5 0 -12 -6 -15 -10 -4 -10 -7 -1 -16 7 -6 11 -8 8 -5
-3 4 0 13 6 20 7 8 6 14 -2 20 -7 4 -9 3 -5 -4z"/>
<path d="M2330 70 c0 -9 -48 -21 -100 -25 -47 -4 -50 -5 -50 -25 0 -20 0 -20
20 0 26 26 49 26 25 0 -18 -20 -18 -20 14 -4 18 9 43 17 56 18 13 0 21 4 18 9
-2 4 1 7 6 7 6 0 11 -4 11 -9 0 -9 34 -24 80 -36 l25 -7 -25 18 c-14 10 -28
23 -32 28 -5 7 -8 7 -8 -2 0 -10 -4 -10 -19 0 -24 15 -18 28 9 21 11 -3 20 0
20 6 0 6 -11 11 -25 11 -14 0 -25 -4 -25 -10z"/>
<path d="M2390 60 c0 -11 2 -20 4 -20 2 0 6 9 9 20 3 11 1 20 -4 20 -5 0 -9
-9 -9 -20z"/>
<path d="M95 60 c-16 -7 -17 -9 -3 -9 9 -1 20 4 23 9 7 11 7 11 -20 0z"/>
<path d="M850 60 c0 -5 5 -10 11 -10 5 0 7 5 4 10 -3 6 -8 10 -11 10 -2 0 -4
-4 -4 -10z"/>
<path d="M1290 62 c0 -6 -8 -8 -17 -6 -11 3 -23 -3 -31 -16 -7 -12 -8 -20 -2
-20 6 0 13 7 16 15 5 11 10 13 19 5 9 -7 16 -6 24 4 8 10 9 16 1 21 -5 3 -10
2 -10 -3z"/>
<path d="M1603 49 c-1 -12 1 -18 4 -15 4 3 16 -2 27 -11 16 -14 18 -15 8 -2
-10 14 -9 17 9 22 13 4 18 10 14 17 -6 9 -10 9 -16 -1 -6 -11 -11 -11 -21 -1
-17 17 -24 15 -25 -9z"/>
<path d="M1800 66 c0 -2 7 -9 15 -16 13 -11 14 -10 9 4 -5 14 -24 23 -24 12z"/>
<path d="M1856 62 c-2 -4 -1 -14 4 -22 7 -11 9 -9 7 8 -1 24 -3 26 -11 14z"/>
<path d="M2690 60 c0 -6 -4 -9 -9 -6 -5 3 -11 0 -14 -8 -3 -7 -20 -13 -37 -14
-38 -1 -50 -10 -30 -22 9 -6 16 -6 18 1 3 6 10 5 20 -3 12 -10 14 -10 8 0 -4
7 -1 12 8 12 9 0 16 5 16 11 0 6 9 9 20 6 21 -5 29 16 10 28 -5 3 -10 1 -10
-5z"/>
<path d="M877 40 c-3 -11 0 -23 5 -27 6 -3 8 -1 4 5 -3 6 -2 13 4 17 12 8 13
25 1 25 -5 0 -11 -9 -14 -20z"/>
<path d="M1035 50 c3 -5 8 -10 11 -10 2 0 4 5 4 10 0 6 -5 10 -11 10 -5 0 -7
-4 -4 -10z"/>
<path d="M2410 48 c0 -4 7 -8 15 -8 8 0 15 4 15 8 0 5 -7 9 -15 9 -8 0 -15 -4
-15 -9z"/>
<path d="M2483 28 c-1 -27 1 -29 7 -13 11 27 12 45 2 45 -5 0 -9 -15 -9 -32z"/>
<path d="M2645 50 c3 -5 8 -10 11 -10 2 0 4 5 4 10 0 6 -5 10 -11 10 -5 0 -7
-4 -4 -10z"/>
<path d="M1190 46 c0 -2 7 -9 15 -16 9 -7 15 -8 15 -2 0 5 -7 12 -15 16 -8 3
-15 4 -15 2z"/>
<path d="M1447 43 c-17 -4 -64 -43 -53 -43 8 0 76 42 76 46 0 2 -1 3 -2 3 -2
-1 -11 -3 -21 -6z"/>
<path d="M1947 37 c3 -6 -2 -16 -12 -24 -11 -7 -14 -13 -8 -13 10 0 43 32 43
42 0 2 -7 5 -15 5 -8 0 -11 -5 -8 -10z"/>
<path d="M1997 29 c-13 -15 -13 -18 -1 -23 7 -3 13 -2 13 2 -3 21 3 28 24 27
14 -1 21 -8 19 -19 -2 -9 2 -16 8 -16 14 0 13 27 -2 36 -22 14 -46 11 -61 -7z"/>
<path d="M2450 35 c-10 -12 -10 -15 4 -15 9 0 16 7 16 15 0 8 -2 15 -4 15 -2
0 -9 -7 -16 -15z"/>
<path d="M40 31 c0 -5 8 -15 18 -22 15 -12 16 -12 5 2 -7 9 -10 19 -6 22 3 4
1 7 -5 7 -7 0 -12 -4 -12 -9z"/>
<path d="M318 33 c-21 -2 -38 -9 -38 -14 0 -8 28 -6 68 7 6 2 12 -1 12 -7 0
-6 5 -7 10 -4 11 7 4 26 -8 23 -4 -1 -24 -3 -44 -5z"/>
<path d="M810 25 c0 -8 5 -15 11 -15 5 0 8 4 5 9 -4 5 0 12 6 14 8 3 6 6 -4 6
-10 1 -18 -6 -18 -14z"/>
<path d="M988 33 c7 -3 16 -2 19 1 4 3 -2 6 -13 5 -11 0 -14 -3 -6 -6z"/>
<path d="M1887 20 c-3 -11 -1 -20 4 -20 5 0 9 9 9 20 0 11 -2 20 -4 20 -2 0
-6 -9 -9 -20z"/>
<path d="M10 17 c0 -8 7 -14 15 -14 11 0 12 4 4 14 -6 7 -13 13 -15 13 -2 0
-4 -6 -4 -13z"/>
<path d="M196 22 c-2 -4 13 -7 35 -7 21 0 39 3 39 7 0 10 -67 10 -74 0z"/>
<path d="M1128 23 c7 -3 16 -2 19 1 4 3 -2 6 -13 5 -11 0 -14 -3 -6 -6z"/>
<path d="M1570 19 c0 -5 5 -7 10 -4 6 3 10 8 10 11 0 2 -4 4 -10 4 -5 0 -10
-5 -10 -11z"/>
<path d="M1660 18 c0 -6 3 -8 6 -5 4 3 15 2 25 -4 11 -6 19 -6 19 0 0 9 -23
21 -41 21 -5 0 -9 -5 -9 -12z"/>
<path d="M1817 23 c-4 -3 -7 -11 -7 -17 0 -6 5 -5 12 2 6 6 9 14 7 17 -3 3 -9
2 -12 -2z"/>
<path d="M2124 18 c4 -18 28 -16 34 2 4 13 3 13 -10 2 -11 -9 -18 -9 -21 -2
-3 6 -4 5 -3 -2z"/>
<path d="M1038 13 c7 -3 16 -2 19 1 4 3 -2 6 -13 5 -11 0 -14 -3 -6 -6z"/>
<path d="M1455 10 c-3 -5 -1 -10 4 -10 6 0 11 5 11 10 0 6 -2 10 -4 10 -3 0
-8 -4 -11 -10z"/>
<path d="M2525 10 c-19 -8 -19 -9 3 -9 12 -1 22 4 22 9 0 6 -1 10 -2 9 -2 0
-12 -4 -23 -9z"/>
<path d="M2675 10 c-3 -5 1 -10 10 -10 9 0 13 5 10 10 -3 6 -8 10 -10 10 -2 0
-7 -4 -10 -10z"/>
<path d="M2970 10 c-8 -5 -10 -10 -5 -10 6 0 17 5 25 10 8 5 11 10 5 10 -5 0
-17 -5 -25 -10z"/>
<path d="M118 3 c7 -3 16 -2 19 1 4 3 -2 6 -13 5 -11 0 -14 -3 -6 -6z"/>
<path d="M748 3 c7 -3 16 -2 19 1 4 3 -2 6 -13 5 -11 0 -14 -3 -6 -6z"/>
<path d="M2303 3 c9 -2 23 -2 30 0 6 3 -1 5 -18 5 -16 0 -22 -2 -12 -5z"/>
</g>
</svg>
